M48
METRIC,TZ
T1C0.450
T2C1.200
T3C1.900
T4C2.970
T5C4.100
T6C4.200
%
G90
G05
T1
X14130Y-68324
X14130Y-143924
X14930Y-68324
X14930Y-143924
X15730Y-68324
X15730Y-143924
X16530Y-68324
X16530Y-143924
X17330Y-68324
X17330Y-143924
X18130Y-68324
X18130Y-143924
X18930Y-68324
X18930Y-143924
X19730Y-68324
X19730Y-143924
X20530Y-68324
X20530Y-143924
X99130Y-156283
X99930Y-156283
X100730Y-156283
X101530Y-156283
X102330Y-156283
X103130Y-156283
X103930Y-156283
X104730Y-156283
X105530Y-156283
X111630Y-58799
X112430Y-58799
X113230Y-58799
X114030Y-58799
X114830Y-58799
X115630Y-58799
X116430Y-58799
X117230Y-58799
X118030Y-58799
X196630Y-58799
X197430Y-58799
X198230Y-58799
X199030Y-58799
X199830Y-58799
X200630Y-58799
X201430Y-58799
X202230Y-58799
X203030Y-58799
X209130Y-156283
X209930Y-156283
X210730Y-156283
X211530Y-156283
X212330Y-156283
X213130Y-156283
X213930Y-156283
X214730Y-156283
X215530Y-156283
X294130Y-68324
X294130Y-143924
X294930Y-68324
X294930Y-143924
X295730Y-68324
X295730Y-143924
X296530Y-68324
X296530Y-143924
X297330Y-68324
X297330Y-143924
X298130Y-68324
X298130Y-143924
X298930Y-68324
X298930Y-143924
X299730Y-68324
X299730Y-143924
X300530Y-68324
X300530Y-143924
T2
X131835Y-108380
X138835Y-108380
X176416Y-108330
X183416Y-108330
T3
X11775Y-77549
X11775Y-96599
X11775Y-115649
X11775Y-134699
X21935Y-77549
X21935Y-96599
X21935Y-115649
X21935Y-134699
X30825Y-68024
X30825Y-87074
X30825Y-106124
X30825Y-125174
X40985Y-68024
X40985Y-87074
X40985Y-106124
X40985Y-125174
X49875Y-63261
X49875Y-82311
X49875Y-101361
X49875Y-120411
X60035Y-63261
X60035Y-82311
X60035Y-101361
X60035Y-120411
X68925Y-63261
X68925Y-82311
X68925Y-101361
X68925Y-120411
X71306Y-141978
X79085Y-63261
X79085Y-82311
X79085Y-101361
X79085Y-120411
X81466Y-141978
X87975Y-65642
X87975Y-84692
X87975Y-103742
X87975Y-122792
X97500Y-147058
X98135Y-65642
X98135Y-84692
X98135Y-103742
X98135Y-122792
X107025Y-68024
X107025Y-87074
X107025Y-106124
X107025Y-125174
X107660Y-147058
X117185Y-68024
X117185Y-87074
X117185Y-106124
X117185Y-125174
X118883Y-148040
X126075Y-127055
X128889Y-149804
X136235Y-127055
X139771Y-152720
X149319Y-156195
X165840Y-156195
X175388Y-152720
X178925Y-127055
X186270Y-149804
X189085Y-127055
X196276Y-148040
X197975Y-68024
X197975Y-87074
X197975Y-106124
X197975Y-125174
X207500Y-147058
X208135Y-68024
X208135Y-87074
X208135Y-106124
X208135Y-125174
X217025Y-65642
X217025Y-84692
X217025Y-103742
X217025Y-122792
X217660Y-147058
X227185Y-65642
X227185Y-84692
X227185Y-103742
X227185Y-122792
X236075Y-63261
X236075Y-82311
X236075Y-101361
X236075Y-120411
X246235Y-63261
X246235Y-82311
X246235Y-101361
X246235Y-120411
X255125Y-63261
X255125Y-82311
X255125Y-101361
X255125Y-120411
X265285Y-63261
X265285Y-82311
X265285Y-101361
X265285Y-120411
X274175Y-68024
X274175Y-87074
X274175Y-106124
X274175Y-125174
X284335Y-68024
X284335Y-87074
X284335Y-106124
X284335Y-125174
X293225Y-77549
X293225Y-96599
X293225Y-115649
X293225Y-134699
X303385Y-77549
X303385Y-96599
X303385Y-115649
X303385Y-134699
T4
X13045Y-75009
X13045Y-94059
X13045Y-113109
X13045Y-132159
X19395Y-72469
X19395Y-91519
X19395Y-110569
X19395Y-129619
X32095Y-65484
X32095Y-84534
X32095Y-103584
X32095Y-122634
X38445Y-62944
X38445Y-81994
X38445Y-101044
X38445Y-120094
X51145Y-60721
X51145Y-79771
X51145Y-98821
X51145Y-117871
X57495Y-58181
X57495Y-77231
X57495Y-96281
X57495Y-115331
X70195Y-60721
X70195Y-79771
X70195Y-98821
X70195Y-117871
X72576Y-139438
X76545Y-58181
X76545Y-77231
X76545Y-96281
X76545Y-115331
X78926Y-136898
X89245Y-63102
X89245Y-82152
X89245Y-101202
X89245Y-120252
X95595Y-60562
X95595Y-79612
X95595Y-98662
X95595Y-117712
X98770Y-144518
X105120Y-141978
X108295Y-65484
X108295Y-84534
X108295Y-103584
X108295Y-122634
X114645Y-62944
X114645Y-81994
X114645Y-101044
X114645Y-120094
X120575Y-145759
X127269Y-144360
X127345Y-124515
X133695Y-121975
X141833Y-150767
X148669Y-150552
X166165Y-153374
X171263Y-148815
X180195Y-124515
X186545Y-121975
X187080Y-147082
X192892Y-143478
X199245Y-65484
X199245Y-84534
X199245Y-103584
X199245Y-122634
X205595Y-62944
X205595Y-81994
X205595Y-101044
X205595Y-120094
X208770Y-144518
X215120Y-141978
X218295Y-63102
X218295Y-82152
X218295Y-101202
X218295Y-120252
X224645Y-60562
X224645Y-79612
X224645Y-98662
X224645Y-117712
X237345Y-60721
X237345Y-79771
X237345Y-98821
X237345Y-117871
X243695Y-58181
X243695Y-77231
X243695Y-96281
X243695Y-115331
X256395Y-60721
X256395Y-79771
X256395Y-98821
X256395Y-117871
X262745Y-58181
X262745Y-77231
X262745Y-96281
X262745Y-115331
X275445Y-65484
X275445Y-84534
X275445Y-103584
X275445Y-122634
X281795Y-62944
X281795Y-81994
X281795Y-101044
X281795Y-120094
X294495Y-75009
X294495Y-94059
X294495Y-113109
X294495Y-132159
X300845Y-72469
X300845Y-91519
X300845Y-110569
X300845Y-129619
T5
X16855Y-77549
X16855Y-96599
X16855Y-115649
X16855Y-134699
X35905Y-68024
X35905Y-87074
X35905Y-106124
X35905Y-125174
X54955Y-63261
X54955Y-82311
X54955Y-101361
X54955Y-120411
X74005Y-63261
X74005Y-82311
X74005Y-101361
X74005Y-120411
X76386Y-141978
X93055Y-65642
X93055Y-84692
X93055Y-103742
X93055Y-122792
X102580Y-147058
X112105Y-68024
X112105Y-87074
X112105Y-106124
X112105Y-125174
X123886Y-148922
X131155Y-127055
X144545Y-154457
X170614Y-154457
X184005Y-127055
X191273Y-148922
X203055Y-68024
X203055Y-87074
X203055Y-106124
X203055Y-125174
X212580Y-147058
X222105Y-65642
X222105Y-84692
X222105Y-103742
X222105Y-122792
X241155Y-63261
X241155Y-82311
X241155Y-101361
X241155Y-120411
X260205Y-63261
X260205Y-82311
X260205Y-101361
X260205Y-120411
X279255Y-68024
X279255Y-87074
X279255Y-106124
X279255Y-125174
X298305Y-77549
X298305Y-96599
X298305Y-115649
X298305Y-134699
T6
X24475Y-87074
X24475Y-125174
X64480Y-72786
X64480Y-110886
X102580Y-75939
X102580Y-114039
X114132Y-137710
X136886Y-141722
X178273Y-141723
X201028Y-137710
X212580Y-75939
X212580Y-114039
X250680Y-72786
X250680Y-110886
X290685Y-87074
X290685Y-125174
T0
M30
