G04 #@! TF.GenerationSoftware,KiCad,Pcbnew,7.0.6*
G04 #@! TF.CreationDate,2024-01-13T20:54:37+09:00*
G04 #@! TF.ProjectId,SumNight57,53756d4e-6967-4687-9435-372e6b696361,rev?*
G04 #@! TF.SameCoordinates,Original*
G04 #@! TF.FileFunction,Soldermask,Top*
G04 #@! TF.FilePolarity,Negative*
%FSLAX46Y46*%
G04 Gerber Fmt 4.6, Leading zero omitted, Abs format (unit mm)*
G04 Created by KiCad (PCBNEW 7.0.6) date 2024-01-13 20:54:37*
%MOMM*%
%LPD*%
G01*
G04 APERTURE LIST*
%ADD10C,0.200000*%
%ADD11C,4.200000*%
%ADD12R,1.700000X1.700000*%
%ADD13O,1.700000X1.700000*%
%ADD14C,1.397000*%
%ADD15C,3.300000*%
%ADD16C,1.200000*%
%ADD17C,0.450000*%
%ADD18C,1.524000*%
%ADD19C,1.900000*%
%ADD20C,3.000000*%
%ADD21C,4.100000*%
%ADD22C,0.500000*%
G04 #@! TA.AperFunction,Profile*
%ADD23C,0.105833*%
G04 #@! TD*
G04 APERTURE END LIST*
D10*
X176462117Y-112108494D02*
X176633546Y-112165636D01*
X176633546Y-112165636D02*
X176919260Y-112165636D01*
X176919260Y-112165636D02*
X177033546Y-112108494D01*
X177033546Y-112108494D02*
X177090688Y-112051351D01*
X177090688Y-112051351D02*
X177147831Y-111937065D01*
X177147831Y-111937065D02*
X177147831Y-111822779D01*
X177147831Y-111822779D02*
X177090688Y-111708494D01*
X177090688Y-111708494D02*
X177033546Y-111651351D01*
X177033546Y-111651351D02*
X176919260Y-111594208D01*
X176919260Y-111594208D02*
X176690688Y-111537065D01*
X176690688Y-111537065D02*
X176576403Y-111479922D01*
X176576403Y-111479922D02*
X176519260Y-111422779D01*
X176519260Y-111422779D02*
X176462117Y-111308494D01*
X176462117Y-111308494D02*
X176462117Y-111194208D01*
X176462117Y-111194208D02*
X176519260Y-111079922D01*
X176519260Y-111079922D02*
X176576403Y-111022779D01*
X176576403Y-111022779D02*
X176690688Y-110965636D01*
X176690688Y-110965636D02*
X176976403Y-110965636D01*
X176976403Y-110965636D02*
X177147831Y-111022779D01*
X178176403Y-111365636D02*
X178176403Y-112165636D01*
X177662117Y-111365636D02*
X177662117Y-111994208D01*
X177662117Y-111994208D02*
X177719260Y-112108494D01*
X177719260Y-112108494D02*
X177833545Y-112165636D01*
X177833545Y-112165636D02*
X178004974Y-112165636D01*
X178004974Y-112165636D02*
X178119260Y-112108494D01*
X178119260Y-112108494D02*
X178176403Y-112051351D01*
X178747831Y-112165636D02*
X178747831Y-111365636D01*
X178747831Y-111479922D02*
X178804974Y-111422779D01*
X178804974Y-111422779D02*
X178919259Y-111365636D01*
X178919259Y-111365636D02*
X179090688Y-111365636D01*
X179090688Y-111365636D02*
X179204974Y-111422779D01*
X179204974Y-111422779D02*
X179262117Y-111537065D01*
X179262117Y-111537065D02*
X179262117Y-112165636D01*
X179262117Y-111537065D02*
X179319259Y-111422779D01*
X179319259Y-111422779D02*
X179433545Y-111365636D01*
X179433545Y-111365636D02*
X179604974Y-111365636D01*
X179604974Y-111365636D02*
X179719259Y-111422779D01*
X179719259Y-111422779D02*
X179776402Y-111537065D01*
X179776402Y-111537065D02*
X179776402Y-112165636D01*
X180347831Y-112165636D02*
X180347831Y-110965636D01*
X180347831Y-110965636D02*
X181033545Y-112165636D01*
X181033545Y-112165636D02*
X181033545Y-110965636D01*
X181604974Y-112165636D02*
X181604974Y-111365636D01*
X181604974Y-110965636D02*
X181547831Y-111022779D01*
X181547831Y-111022779D02*
X181604974Y-111079922D01*
X181604974Y-111079922D02*
X181662117Y-111022779D01*
X181662117Y-111022779D02*
X181604974Y-110965636D01*
X181604974Y-110965636D02*
X181604974Y-111079922D01*
X182690689Y-111365636D02*
X182690689Y-112337065D01*
X182690689Y-112337065D02*
X182633546Y-112451351D01*
X182633546Y-112451351D02*
X182576403Y-112508494D01*
X182576403Y-112508494D02*
X182462117Y-112565636D01*
X182462117Y-112565636D02*
X182290689Y-112565636D01*
X182290689Y-112565636D02*
X182176403Y-112508494D01*
X182690689Y-112108494D02*
X182576403Y-112165636D01*
X182576403Y-112165636D02*
X182347831Y-112165636D01*
X182347831Y-112165636D02*
X182233546Y-112108494D01*
X182233546Y-112108494D02*
X182176403Y-112051351D01*
X182176403Y-112051351D02*
X182119260Y-111937065D01*
X182119260Y-111937065D02*
X182119260Y-111594208D01*
X182119260Y-111594208D02*
X182176403Y-111479922D01*
X182176403Y-111479922D02*
X182233546Y-111422779D01*
X182233546Y-111422779D02*
X182347831Y-111365636D01*
X182347831Y-111365636D02*
X182576403Y-111365636D01*
X182576403Y-111365636D02*
X182690689Y-111422779D01*
X183262117Y-112165636D02*
X183262117Y-110965636D01*
X183776403Y-112165636D02*
X183776403Y-111537065D01*
X183776403Y-111537065D02*
X183719260Y-111422779D01*
X183719260Y-111422779D02*
X183604974Y-111365636D01*
X183604974Y-111365636D02*
X183433545Y-111365636D01*
X183433545Y-111365636D02*
X183319260Y-111422779D01*
X183319260Y-111422779D02*
X183262117Y-111479922D01*
X184176402Y-111365636D02*
X184633545Y-111365636D01*
X184347831Y-110965636D02*
X184347831Y-111994208D01*
X184347831Y-111994208D02*
X184404974Y-112108494D01*
X184404974Y-112108494D02*
X184519259Y-112165636D01*
X184519259Y-112165636D02*
X184633545Y-112165636D01*
X185604973Y-110965636D02*
X185033545Y-110965636D01*
X185033545Y-110965636D02*
X184976402Y-111537065D01*
X184976402Y-111537065D02*
X185033545Y-111479922D01*
X185033545Y-111479922D02*
X185147831Y-111422779D01*
X185147831Y-111422779D02*
X185433545Y-111422779D01*
X185433545Y-111422779D02*
X185547831Y-111479922D01*
X185547831Y-111479922D02*
X185604973Y-111537065D01*
X185604973Y-111537065D02*
X185662116Y-111651351D01*
X185662116Y-111651351D02*
X185662116Y-111937065D01*
X185662116Y-111937065D02*
X185604973Y-112051351D01*
X185604973Y-112051351D02*
X185547831Y-112108494D01*
X185547831Y-112108494D02*
X185433545Y-112165636D01*
X185433545Y-112165636D02*
X185147831Y-112165636D01*
X185147831Y-112165636D02*
X185033545Y-112108494D01*
X185033545Y-112108494D02*
X184976402Y-112051351D01*
X186062116Y-110965636D02*
X186862116Y-110965636D01*
X186862116Y-110965636D02*
X186347830Y-112165636D01*
X188119259Y-111365636D02*
X188404973Y-112165636D01*
X188404973Y-112165636D02*
X188690688Y-111365636D01*
X189604974Y-112108494D02*
X189490688Y-112165636D01*
X189490688Y-112165636D02*
X189262117Y-112165636D01*
X189262117Y-112165636D02*
X189147831Y-112108494D01*
X189147831Y-112108494D02*
X189090688Y-111994208D01*
X189090688Y-111994208D02*
X189090688Y-111537065D01*
X189090688Y-111537065D02*
X189147831Y-111422779D01*
X189147831Y-111422779D02*
X189262117Y-111365636D01*
X189262117Y-111365636D02*
X189490688Y-111365636D01*
X189490688Y-111365636D02*
X189604974Y-111422779D01*
X189604974Y-111422779D02*
X189662117Y-111537065D01*
X189662117Y-111537065D02*
X189662117Y-111651351D01*
X189662117Y-111651351D02*
X189090688Y-111765636D01*
X190176402Y-112165636D02*
X190176402Y-111365636D01*
X190176402Y-111594208D02*
X190233545Y-111479922D01*
X190233545Y-111479922D02*
X190290688Y-111422779D01*
X190290688Y-111422779D02*
X190404973Y-111365636D01*
X190404973Y-111365636D02*
X190519259Y-111365636D01*
X190862116Y-111079922D02*
X190919259Y-111022779D01*
X190919259Y-111022779D02*
X191033545Y-110965636D01*
X191033545Y-110965636D02*
X191319259Y-110965636D01*
X191319259Y-110965636D02*
X191433545Y-111022779D01*
X191433545Y-111022779D02*
X191490687Y-111079922D01*
X191490687Y-111079922D02*
X191547830Y-111194208D01*
X191547830Y-111194208D02*
X191547830Y-111308494D01*
X191547830Y-111308494D02*
X191490687Y-111479922D01*
X191490687Y-111479922D02*
X190804973Y-112165636D01*
X190804973Y-112165636D02*
X191547830Y-112165636D01*
X123612117Y-112108494D02*
X123783546Y-112165636D01*
X123783546Y-112165636D02*
X124069260Y-112165636D01*
X124069260Y-112165636D02*
X124183546Y-112108494D01*
X124183546Y-112108494D02*
X124240688Y-112051351D01*
X124240688Y-112051351D02*
X124297831Y-111937065D01*
X124297831Y-111937065D02*
X124297831Y-111822779D01*
X124297831Y-111822779D02*
X124240688Y-111708494D01*
X124240688Y-111708494D02*
X124183546Y-111651351D01*
X124183546Y-111651351D02*
X124069260Y-111594208D01*
X124069260Y-111594208D02*
X123840688Y-111537065D01*
X123840688Y-111537065D02*
X123726403Y-111479922D01*
X123726403Y-111479922D02*
X123669260Y-111422779D01*
X123669260Y-111422779D02*
X123612117Y-111308494D01*
X123612117Y-111308494D02*
X123612117Y-111194208D01*
X123612117Y-111194208D02*
X123669260Y-111079922D01*
X123669260Y-111079922D02*
X123726403Y-111022779D01*
X123726403Y-111022779D02*
X123840688Y-110965636D01*
X123840688Y-110965636D02*
X124126403Y-110965636D01*
X124126403Y-110965636D02*
X124297831Y-111022779D01*
X125326403Y-111365636D02*
X125326403Y-112165636D01*
X124812117Y-111365636D02*
X124812117Y-111994208D01*
X124812117Y-111994208D02*
X124869260Y-112108494D01*
X124869260Y-112108494D02*
X124983545Y-112165636D01*
X124983545Y-112165636D02*
X125154974Y-112165636D01*
X125154974Y-112165636D02*
X125269260Y-112108494D01*
X125269260Y-112108494D02*
X125326403Y-112051351D01*
X125897831Y-112165636D02*
X125897831Y-111365636D01*
X125897831Y-111479922D02*
X125954974Y-111422779D01*
X125954974Y-111422779D02*
X126069259Y-111365636D01*
X126069259Y-111365636D02*
X126240688Y-111365636D01*
X126240688Y-111365636D02*
X126354974Y-111422779D01*
X126354974Y-111422779D02*
X126412117Y-111537065D01*
X126412117Y-111537065D02*
X126412117Y-112165636D01*
X126412117Y-111537065D02*
X126469259Y-111422779D01*
X126469259Y-111422779D02*
X126583545Y-111365636D01*
X126583545Y-111365636D02*
X126754974Y-111365636D01*
X126754974Y-111365636D02*
X126869259Y-111422779D01*
X126869259Y-111422779D02*
X126926402Y-111537065D01*
X126926402Y-111537065D02*
X126926402Y-112165636D01*
X127497831Y-112165636D02*
X127497831Y-110965636D01*
X127497831Y-110965636D02*
X128183545Y-112165636D01*
X128183545Y-112165636D02*
X128183545Y-110965636D01*
X128754974Y-112165636D02*
X128754974Y-111365636D01*
X128754974Y-110965636D02*
X128697831Y-111022779D01*
X128697831Y-111022779D02*
X128754974Y-111079922D01*
X128754974Y-111079922D02*
X128812117Y-111022779D01*
X128812117Y-111022779D02*
X128754974Y-110965636D01*
X128754974Y-110965636D02*
X128754974Y-111079922D01*
X129840689Y-111365636D02*
X129840689Y-112337065D01*
X129840689Y-112337065D02*
X129783546Y-112451351D01*
X129783546Y-112451351D02*
X129726403Y-112508494D01*
X129726403Y-112508494D02*
X129612117Y-112565636D01*
X129612117Y-112565636D02*
X129440689Y-112565636D01*
X129440689Y-112565636D02*
X129326403Y-112508494D01*
X129840689Y-112108494D02*
X129726403Y-112165636D01*
X129726403Y-112165636D02*
X129497831Y-112165636D01*
X129497831Y-112165636D02*
X129383546Y-112108494D01*
X129383546Y-112108494D02*
X129326403Y-112051351D01*
X129326403Y-112051351D02*
X129269260Y-111937065D01*
X129269260Y-111937065D02*
X129269260Y-111594208D01*
X129269260Y-111594208D02*
X129326403Y-111479922D01*
X129326403Y-111479922D02*
X129383546Y-111422779D01*
X129383546Y-111422779D02*
X129497831Y-111365636D01*
X129497831Y-111365636D02*
X129726403Y-111365636D01*
X129726403Y-111365636D02*
X129840689Y-111422779D01*
X130412117Y-112165636D02*
X130412117Y-110965636D01*
X130926403Y-112165636D02*
X130926403Y-111537065D01*
X130926403Y-111537065D02*
X130869260Y-111422779D01*
X130869260Y-111422779D02*
X130754974Y-111365636D01*
X130754974Y-111365636D02*
X130583545Y-111365636D01*
X130583545Y-111365636D02*
X130469260Y-111422779D01*
X130469260Y-111422779D02*
X130412117Y-111479922D01*
X131326402Y-111365636D02*
X131783545Y-111365636D01*
X131497831Y-110965636D02*
X131497831Y-111994208D01*
X131497831Y-111994208D02*
X131554974Y-112108494D01*
X131554974Y-112108494D02*
X131669259Y-112165636D01*
X131669259Y-112165636D02*
X131783545Y-112165636D01*
X132754973Y-110965636D02*
X132183545Y-110965636D01*
X132183545Y-110965636D02*
X132126402Y-111537065D01*
X132126402Y-111537065D02*
X132183545Y-111479922D01*
X132183545Y-111479922D02*
X132297831Y-111422779D01*
X132297831Y-111422779D02*
X132583545Y-111422779D01*
X132583545Y-111422779D02*
X132697831Y-111479922D01*
X132697831Y-111479922D02*
X132754973Y-111537065D01*
X132754973Y-111537065D02*
X132812116Y-111651351D01*
X132812116Y-111651351D02*
X132812116Y-111937065D01*
X132812116Y-111937065D02*
X132754973Y-112051351D01*
X132754973Y-112051351D02*
X132697831Y-112108494D01*
X132697831Y-112108494D02*
X132583545Y-112165636D01*
X132583545Y-112165636D02*
X132297831Y-112165636D01*
X132297831Y-112165636D02*
X132183545Y-112108494D01*
X132183545Y-112108494D02*
X132126402Y-112051351D01*
X133212116Y-110965636D02*
X134012116Y-110965636D01*
X134012116Y-110965636D02*
X133497830Y-112165636D01*
X135269259Y-111365636D02*
X135554973Y-112165636D01*
X135554973Y-112165636D02*
X135840688Y-111365636D01*
X136754974Y-112108494D02*
X136640688Y-112165636D01*
X136640688Y-112165636D02*
X136412117Y-112165636D01*
X136412117Y-112165636D02*
X136297831Y-112108494D01*
X136297831Y-112108494D02*
X136240688Y-111994208D01*
X136240688Y-111994208D02*
X136240688Y-111537065D01*
X136240688Y-111537065D02*
X136297831Y-111422779D01*
X136297831Y-111422779D02*
X136412117Y-111365636D01*
X136412117Y-111365636D02*
X136640688Y-111365636D01*
X136640688Y-111365636D02*
X136754974Y-111422779D01*
X136754974Y-111422779D02*
X136812117Y-111537065D01*
X136812117Y-111537065D02*
X136812117Y-111651351D01*
X136812117Y-111651351D02*
X136240688Y-111765636D01*
X137326402Y-112165636D02*
X137326402Y-111365636D01*
X137326402Y-111594208D02*
X137383545Y-111479922D01*
X137383545Y-111479922D02*
X137440688Y-111422779D01*
X137440688Y-111422779D02*
X137554973Y-111365636D01*
X137554973Y-111365636D02*
X137669259Y-111365636D01*
X138012116Y-111079922D02*
X138069259Y-111022779D01*
X138069259Y-111022779D02*
X138183545Y-110965636D01*
X138183545Y-110965636D02*
X138469259Y-110965636D01*
X138469259Y-110965636D02*
X138583545Y-111022779D01*
X138583545Y-111022779D02*
X138640687Y-111079922D01*
X138640687Y-111079922D02*
X138697830Y-111194208D01*
X138697830Y-111194208D02*
X138697830Y-111308494D01*
X138697830Y-111308494D02*
X138640687Y-111479922D01*
X138640687Y-111479922D02*
X137954973Y-112165636D01*
X137954973Y-112165636D02*
X138697830Y-112165636D01*
D11*
X64479974Y-110886144D03*
D12*
X282615974Y-141913644D03*
D13*
X282615974Y-144453644D03*
X282615974Y-146993644D03*
X282615974Y-149533644D03*
X282615974Y-152073644D03*
X282615974Y-154613644D03*
X282615974Y-157153644D03*
D14*
X125894974Y-103479894D03*
D11*
X102579974Y-75938644D03*
D14*
X189355974Y-103429894D03*
D15*
X177479974Y-114529894D03*
D11*
X290684974Y-125173644D03*
D15*
X190529974Y-114529894D03*
D16*
X176415974Y-105329894D03*
X183415974Y-105329894D03*
D17*
X294129974Y-143923644D03*
X294929974Y-143923644D03*
X295729974Y-143923644D03*
X296529974Y-143923644D03*
X297329974Y-143923644D03*
X298129974Y-143923644D03*
X298929974Y-143923644D03*
X299729974Y-143923644D03*
X300529974Y-143923644D03*
D11*
X201027718Y-136883256D03*
D15*
X137679974Y-114529894D03*
D11*
X24474974Y-87073644D03*
D17*
X14129974Y-143923644D03*
X14929974Y-143923644D03*
X15729974Y-143923644D03*
X16529974Y-143923644D03*
X17329974Y-143923644D03*
X18129974Y-143923644D03*
X18929974Y-143923644D03*
X19729974Y-143923644D03*
X20529974Y-143923644D03*
X14129974Y-68323644D03*
X14929974Y-68323644D03*
X15729974Y-68323644D03*
X16529974Y-68323644D03*
X17329974Y-68323644D03*
X18129974Y-68323644D03*
X18929974Y-68323644D03*
X19729974Y-68323644D03*
X20529974Y-68323644D03*
D18*
X138774974Y-62919894D03*
X138774974Y-65459894D03*
X138774974Y-67999894D03*
X138774974Y-70539894D03*
X138774974Y-73079894D03*
X138784974Y-75619894D03*
X138774974Y-78159894D03*
X138774974Y-80699894D03*
X138784974Y-83239894D03*
X138784974Y-85779894D03*
X138784974Y-88319894D03*
X138774974Y-90859894D03*
X123534974Y-90859894D03*
X123524974Y-88319894D03*
X123524974Y-85779894D03*
X123524974Y-83239894D03*
X123524974Y-80699894D03*
X123534974Y-78159894D03*
X123524974Y-75619894D03*
X123534974Y-73079894D03*
X123534974Y-70539894D03*
X123534974Y-67999894D03*
X123534974Y-65459894D03*
X123534974Y-62919894D03*
X123534974Y-60379894D03*
X138774974Y-60379894D03*
D14*
X189355974Y-107229895D03*
D17*
X111629974Y-58798644D03*
X112429974Y-58798644D03*
X113229974Y-58798644D03*
X114029974Y-58798644D03*
X114829974Y-58798644D03*
X115629974Y-58798644D03*
X116429974Y-58798644D03*
X117229974Y-58798644D03*
X118029974Y-58798644D03*
D11*
X212579974Y-114038644D03*
D18*
X191624974Y-62919894D03*
X191624974Y-65459894D03*
X191624974Y-67999894D03*
X191624974Y-70539894D03*
X191624974Y-73079894D03*
X191634974Y-75619894D03*
X191624974Y-78159894D03*
X191624974Y-80699894D03*
X191634974Y-83239894D03*
X191634974Y-85779894D03*
X191634974Y-88319894D03*
X191624974Y-90859894D03*
X176384974Y-90859894D03*
X176374974Y-88319894D03*
X176374974Y-85779894D03*
X176374974Y-83239894D03*
X176374974Y-80699894D03*
X176384974Y-78159894D03*
X176374974Y-75619894D03*
X176384974Y-73079894D03*
X176384974Y-70539894D03*
X176384974Y-67999894D03*
X176384974Y-65459894D03*
X176384974Y-62919894D03*
X176384974Y-60379894D03*
X191624974Y-60379894D03*
D17*
X209183513Y-155135062D03*
X209971359Y-154996143D03*
X210759205Y-154857225D03*
X211547051Y-154718306D03*
X212334897Y-154579387D03*
X213122744Y-154440469D03*
X213910590Y-154301550D03*
X214698436Y-154162632D03*
X215486282Y-154023713D03*
D11*
X290684974Y-87073644D03*
D17*
X196629974Y-58798644D03*
X197429974Y-58798644D03*
X198229974Y-58798644D03*
X199029974Y-58798644D03*
X199829974Y-58798644D03*
X200629974Y-58798644D03*
X201429974Y-58798644D03*
X202229974Y-58798644D03*
X203029974Y-58798644D03*
D11*
X102579974Y-114038644D03*
X250679974Y-110886144D03*
X109441833Y-136883007D03*
X24474974Y-125173644D03*
D16*
X138834974Y-105379894D03*
X131834974Y-105379894D03*
D11*
X250679974Y-72786144D03*
X64479974Y-72786144D03*
X182963317Y-140895665D03*
D17*
X99114393Y-153916214D03*
X99902239Y-154055133D03*
X100690085Y-154194051D03*
X101477931Y-154332970D03*
X102265778Y-154471888D03*
X103053624Y-154610807D03*
X103841470Y-154749726D03*
X104629316Y-154888644D03*
X105417162Y-155027563D03*
D11*
X132195675Y-140895414D03*
D15*
X124629974Y-114529894D03*
D17*
X294129974Y-68323644D03*
X294929974Y-68323644D03*
X295729974Y-68323644D03*
X296529974Y-68323644D03*
X297329974Y-68323644D03*
X298129974Y-68323644D03*
X298929974Y-68323644D03*
X299729974Y-68323644D03*
X300529974Y-68323644D03*
D14*
X125894974Y-107279894D03*
D11*
X212579974Y-75938644D03*
D19*
X68924974Y-120411144D03*
D20*
X70194974Y-117871144D03*
D21*
X74004974Y-120411144D03*
D20*
X76544974Y-115331144D03*
D19*
X79084974Y-120411144D03*
D22*
X65144974Y-116371144D03*
X65144974Y-119371144D03*
X81594974Y-113831144D03*
X81594974Y-116831144D03*
D19*
X197974974Y-106123644D03*
D20*
X199244974Y-103583644D03*
D21*
X203054974Y-106123644D03*
D20*
X205594974Y-101043644D03*
D19*
X208134974Y-106123644D03*
D22*
X194194974Y-102083644D03*
X194194974Y-105083644D03*
X210644974Y-99543644D03*
X210644974Y-102543644D03*
D19*
X236074974Y-101361144D03*
D20*
X237344974Y-98821144D03*
D21*
X241154974Y-101361144D03*
D20*
X243694974Y-96281144D03*
D19*
X246234974Y-101361144D03*
D22*
X232294974Y-97321144D03*
X232294974Y-100321144D03*
X248744974Y-94781144D03*
X248744974Y-97781144D03*
D19*
X293224974Y-77548644D03*
D20*
X294494974Y-75008644D03*
D21*
X298304974Y-77548644D03*
D20*
X300844974Y-72468644D03*
D19*
X303384974Y-77548644D03*
D22*
X289444974Y-73508644D03*
X289444974Y-76508644D03*
X305894974Y-70968644D03*
X305894974Y-73968644D03*
D19*
X95432658Y-143904989D03*
D20*
X97124430Y-141624111D03*
D21*
X100435481Y-144787122D03*
D20*
X103819025Y-140225365D03*
D19*
X105438304Y-145669255D03*
D22*
X92411623Y-139269976D03*
X91890678Y-142224399D03*
X109052777Y-139625077D03*
X108531832Y-142579500D03*
D19*
X49874974Y-63261144D03*
D20*
X51144974Y-60721144D03*
D21*
X54954974Y-63261144D03*
D20*
X57494974Y-58181144D03*
D19*
X60034974Y-63261144D03*
D22*
X46094974Y-59221144D03*
X46094974Y-62221144D03*
X62544974Y-56681144D03*
X62544974Y-59681144D03*
D19*
X126074974Y-127054894D03*
D20*
X127344974Y-124514894D03*
D21*
X131154974Y-127054894D03*
D20*
X133694974Y-121974894D03*
D19*
X136234974Y-127054894D03*
D22*
X122294974Y-123014894D03*
X122294974Y-126014894D03*
X138744974Y-120474894D03*
X138744974Y-123474894D03*
D19*
X71305974Y-141977644D03*
D20*
X72575974Y-139437644D03*
D21*
X76385974Y-141977644D03*
D20*
X78925974Y-136897644D03*
D19*
X81465974Y-141977644D03*
D22*
X67525974Y-137937644D03*
X67525974Y-140937644D03*
X83975974Y-135397644D03*
X83975974Y-138397644D03*
D19*
X30824974Y-125173644D03*
D20*
X32094974Y-122633644D03*
D21*
X35904974Y-125173644D03*
D20*
X38444974Y-120093644D03*
D19*
X40984974Y-125173644D03*
D22*
X27044974Y-121133644D03*
X27044974Y-124133644D03*
X43494974Y-118593644D03*
X43494974Y-121593644D03*
D19*
X11774974Y-77548644D03*
D20*
X13044974Y-75008644D03*
D21*
X16854974Y-77548644D03*
D20*
X19394974Y-72468644D03*
D19*
X21934974Y-77548644D03*
D22*
X7994974Y-73508644D03*
X7994974Y-76508644D03*
X24444974Y-70968644D03*
X24444974Y-73968644D03*
D19*
X30824974Y-68023644D03*
D20*
X32094974Y-65483644D03*
D21*
X35904974Y-68023644D03*
D20*
X38444974Y-62943644D03*
D19*
X40984974Y-68023644D03*
D22*
X27044974Y-63983644D03*
X27044974Y-66983644D03*
X43494974Y-61443644D03*
X43494974Y-64443644D03*
D19*
X274174974Y-87073644D03*
D20*
X275444974Y-84533644D03*
D21*
X279254974Y-87073644D03*
D20*
X281794974Y-81993644D03*
D19*
X284334974Y-87073644D03*
D22*
X270394974Y-83033644D03*
X270394974Y-86033644D03*
X286844974Y-80493644D03*
X286844974Y-83493644D03*
D19*
X217024974Y-103742394D03*
D20*
X218294974Y-101202394D03*
D21*
X222104974Y-103742394D03*
D20*
X224644974Y-98662394D03*
D19*
X227184974Y-103742394D03*
D22*
X213244974Y-99702394D03*
X213244974Y-102702394D03*
X229694974Y-97162394D03*
X229694974Y-100162394D03*
D19*
X255124974Y-120411144D03*
D20*
X256394974Y-117871144D03*
D21*
X260204974Y-120411144D03*
D20*
X262744974Y-115331144D03*
D19*
X265284974Y-120411144D03*
D22*
X251344974Y-116371144D03*
X251344974Y-119371144D03*
X267794974Y-113831144D03*
X267794974Y-116831144D03*
D19*
X49874974Y-82311144D03*
D20*
X51144974Y-79771144D03*
D21*
X54954974Y-82311144D03*
D20*
X57494974Y-77231144D03*
D19*
X60034974Y-82311144D03*
D22*
X46094974Y-78271144D03*
X46094974Y-81271144D03*
X62544974Y-75731144D03*
X62544974Y-78731144D03*
D19*
X236074974Y-82311144D03*
D20*
X237344974Y-79771144D03*
D21*
X241154974Y-82311144D03*
D20*
X243694974Y-77231144D03*
D19*
X246234974Y-82311144D03*
D22*
X232294974Y-78271144D03*
X232294974Y-81271144D03*
X248744974Y-75731144D03*
X248744974Y-78731144D03*
D19*
X197974974Y-125173644D03*
D20*
X199244974Y-122633644D03*
D21*
X203054974Y-125173644D03*
D20*
X205594974Y-120093644D03*
D19*
X208134974Y-125173644D03*
D22*
X194194974Y-121133644D03*
X194194974Y-124133644D03*
X210644974Y-118593644D03*
X210644974Y-121593644D03*
D19*
X107024974Y-125173644D03*
D20*
X108294974Y-122633644D03*
D21*
X112104974Y-125173644D03*
D20*
X114644974Y-120093644D03*
D19*
X117184974Y-125173644D03*
D22*
X103244974Y-121133644D03*
X103244974Y-124133644D03*
X119694974Y-118593644D03*
X119694974Y-121593644D03*
D19*
X107024974Y-87073644D03*
D20*
X108294974Y-84533644D03*
D21*
X112104974Y-87073644D03*
D20*
X114644974Y-81993644D03*
D19*
X117184974Y-87073644D03*
D22*
X103244974Y-83033644D03*
X103244974Y-86033644D03*
X119694974Y-80493644D03*
X119694974Y-83493644D03*
D19*
X293224974Y-134698644D03*
D20*
X294494974Y-132158644D03*
D21*
X298304974Y-134698644D03*
D20*
X300844974Y-129618644D03*
D19*
X303384974Y-134698644D03*
D22*
X289444974Y-130658644D03*
X289444974Y-133658644D03*
X305894974Y-128118644D03*
X305894974Y-131118644D03*
D19*
X274174974Y-68023644D03*
D20*
X275444974Y-65483644D03*
D21*
X279254974Y-68023644D03*
D20*
X281794974Y-62943644D03*
D19*
X284334974Y-68023644D03*
D22*
X270394974Y-63983644D03*
X270394974Y-66983644D03*
X286844974Y-61443644D03*
X286844974Y-64443644D03*
D19*
X236074974Y-120411144D03*
D20*
X237344974Y-117871144D03*
D21*
X241154974Y-120411144D03*
D20*
X243694974Y-115331144D03*
D19*
X246234974Y-120411144D03*
D22*
X232294974Y-116371144D03*
X232294974Y-119371144D03*
X248744974Y-113831144D03*
X248744974Y-116831144D03*
D19*
X49874974Y-120411144D03*
D20*
X51144974Y-117871144D03*
D21*
X54954974Y-120411144D03*
D20*
X57494974Y-115331144D03*
D19*
X60034974Y-120411144D03*
D22*
X46094974Y-116371144D03*
X46094974Y-119371144D03*
X62544974Y-113831144D03*
X62544974Y-116831144D03*
D19*
X209721416Y-145669503D03*
D20*
X210531055Y-142947558D03*
D21*
X214724239Y-144787370D03*
D20*
X216343518Y-139343480D03*
D19*
X219727062Y-143905237D03*
D22*
X205297304Y-142347270D03*
X205818248Y-145301693D03*
X221056325Y-136989345D03*
X221577269Y-139943769D03*
D19*
X274174974Y-125173644D03*
D20*
X275444974Y-122633644D03*
D21*
X279254974Y-125173644D03*
D20*
X281794974Y-120093644D03*
D19*
X284334974Y-125173644D03*
D22*
X270394974Y-121133644D03*
X270394974Y-124133644D03*
X286844974Y-118593644D03*
X286844974Y-121593644D03*
D19*
X197974974Y-87073644D03*
D20*
X199244974Y-84533644D03*
D21*
X203054974Y-87073644D03*
D20*
X205594974Y-81993644D03*
D19*
X208134974Y-87073644D03*
D22*
X194194974Y-83033644D03*
X194194974Y-86033644D03*
X210644974Y-80493644D03*
X210644974Y-83493644D03*
D19*
X217024974Y-84692394D03*
D20*
X218294974Y-82152394D03*
D21*
X222104974Y-84692394D03*
D20*
X224644974Y-79612394D03*
D19*
X227184974Y-84692394D03*
D22*
X213244974Y-80652394D03*
X213244974Y-83652394D03*
X229694974Y-78112394D03*
X229694974Y-81112394D03*
D19*
X87974974Y-103742394D03*
D20*
X89244974Y-101202394D03*
D21*
X93054974Y-103742394D03*
D20*
X95594974Y-98662394D03*
D19*
X98134974Y-103742394D03*
D22*
X84194974Y-99702394D03*
X84194974Y-102702394D03*
X100644974Y-97162394D03*
X100644974Y-100162394D03*
D19*
X293224974Y-115648644D03*
D20*
X294494974Y-113108644D03*
D21*
X298304974Y-115648644D03*
D20*
X300844974Y-110568644D03*
D19*
X303384974Y-115648644D03*
D22*
X289444974Y-111608644D03*
X289444974Y-114608644D03*
X305894974Y-109068644D03*
X305894974Y-112068644D03*
D19*
X236074974Y-63261144D03*
D20*
X237344974Y-60721144D03*
D21*
X241154974Y-63261144D03*
D20*
X243694974Y-58181144D03*
D19*
X246234974Y-63261144D03*
D22*
X232294974Y-59221144D03*
X232294974Y-62221144D03*
X248744974Y-56681144D03*
X248744974Y-59681144D03*
D19*
X87974974Y-65642394D03*
D20*
X89244974Y-63102394D03*
D21*
X93054974Y-65642394D03*
D20*
X95594974Y-60562394D03*
D19*
X98134974Y-65642394D03*
D22*
X84194974Y-61602394D03*
X84194974Y-64602394D03*
X100644974Y-59062394D03*
X100644974Y-62062394D03*
D19*
X255124974Y-101361144D03*
D20*
X256394974Y-98821144D03*
D21*
X260204974Y-101361144D03*
D20*
X262744974Y-96281144D03*
D19*
X265284974Y-101361144D03*
D22*
X251344974Y-97321144D03*
X251344974Y-100321144D03*
X267794974Y-94781144D03*
X267794974Y-97781144D03*
D19*
X11774974Y-134698644D03*
D20*
X13044974Y-132158644D03*
D21*
X16854974Y-134698644D03*
D20*
X19394974Y-129618644D03*
D19*
X21934974Y-134698644D03*
D22*
X7994974Y-130658644D03*
X7994974Y-133658644D03*
X24444974Y-128118644D03*
X24444974Y-131118644D03*
D19*
X107024974Y-106123644D03*
D20*
X108294974Y-103583644D03*
D21*
X112104974Y-106123644D03*
D20*
X114644974Y-101043644D03*
D19*
X117184974Y-106123644D03*
D22*
X103244974Y-102083644D03*
X103244974Y-105083644D03*
X119694974Y-99543644D03*
X119694974Y-102543644D03*
D19*
X293224974Y-96598644D03*
D20*
X294494974Y-94058644D03*
D21*
X298304974Y-96598644D03*
D20*
X300844974Y-91518644D03*
D19*
X303384974Y-96598644D03*
D22*
X289444974Y-92558644D03*
X289444974Y-95558644D03*
X305894974Y-90018644D03*
X305894974Y-93018644D03*
D19*
X30824974Y-87073644D03*
D20*
X32094974Y-84533644D03*
D21*
X35904974Y-87073644D03*
D20*
X38444974Y-81993644D03*
D19*
X40984974Y-87073644D03*
D22*
X27044974Y-83033644D03*
X27044974Y-86033644D03*
X43494974Y-80493644D03*
X43494974Y-83493644D03*
D19*
X274174974Y-106123644D03*
D20*
X275444974Y-103583644D03*
D21*
X279254974Y-106123644D03*
D20*
X281794974Y-101043644D03*
D19*
X284334974Y-106123644D03*
D22*
X270394974Y-102083644D03*
X270394974Y-105083644D03*
X286844974Y-99543644D03*
X286844974Y-102543644D03*
D19*
X87974974Y-122792394D03*
D20*
X89244974Y-120252394D03*
D21*
X93054974Y-122792394D03*
D20*
X95594974Y-117712394D03*
D19*
X98134974Y-122792394D03*
D22*
X84194974Y-118752394D03*
X84194974Y-121752394D03*
X100644974Y-116212394D03*
X100644974Y-119212394D03*
D19*
X255124974Y-63261144D03*
D20*
X256394974Y-60721144D03*
D21*
X260204974Y-63261144D03*
D20*
X262744974Y-58181144D03*
D19*
X265284974Y-63261144D03*
D22*
X251344974Y-59221144D03*
X251344974Y-62221144D03*
X267794974Y-56681144D03*
X267794974Y-59681144D03*
D19*
X114192900Y-147212879D03*
D20*
X115884672Y-144932001D03*
D21*
X119195723Y-148095012D03*
D20*
X122579267Y-143533255D03*
D19*
X124198546Y-148977145D03*
D22*
X111171865Y-142577866D03*
X110650920Y-145532289D03*
X127813019Y-142932967D03*
X127292074Y-145887390D03*
D19*
X217024974Y-122792394D03*
D20*
X218294974Y-120252394D03*
D21*
X222104974Y-122792394D03*
D20*
X224644974Y-117712394D03*
D19*
X227184974Y-122792394D03*
D22*
X213244974Y-118752394D03*
X213244974Y-121752394D03*
X229694974Y-116212394D03*
X229694974Y-119212394D03*
D19*
X217024974Y-65642394D03*
D20*
X218294974Y-63102394D03*
D21*
X222104974Y-65642394D03*
D20*
X224644974Y-60562394D03*
D19*
X227184974Y-65642394D03*
D22*
X213244974Y-61602394D03*
X213244974Y-64602394D03*
X229694974Y-59062394D03*
X229694974Y-62062394D03*
D19*
X68924974Y-101361144D03*
D20*
X70194974Y-98821144D03*
D21*
X74004974Y-101361144D03*
D20*
X76544974Y-96281144D03*
D19*
X79084974Y-101361144D03*
D22*
X65144974Y-97321144D03*
X65144974Y-100321144D03*
X81594974Y-94781144D03*
X81594974Y-97781144D03*
D19*
X11774974Y-96598644D03*
D20*
X13044974Y-94058644D03*
D21*
X16854974Y-96598644D03*
D20*
X19394974Y-91518644D03*
D19*
X21934974Y-96598644D03*
D22*
X7994974Y-92558644D03*
X7994974Y-95558644D03*
X24444974Y-90018644D03*
X24444974Y-93018644D03*
D19*
X178924974Y-127054894D03*
D20*
X180194974Y-124514894D03*
D21*
X184004974Y-127054894D03*
D20*
X186544974Y-121974894D03*
D19*
X189084974Y-127054894D03*
D22*
X175144974Y-123014894D03*
X175144974Y-126014894D03*
X191594974Y-120474894D03*
X191594974Y-123474894D03*
D19*
X68924974Y-82311144D03*
D20*
X70194974Y-79771144D03*
D21*
X74004974Y-82311144D03*
D20*
X76544974Y-77231144D03*
D19*
X79084974Y-82311144D03*
D22*
X65144974Y-78271144D03*
X65144974Y-81271144D03*
X81594974Y-75731144D03*
X81594974Y-78731144D03*
D19*
X87974974Y-84692394D03*
D20*
X89244974Y-82152394D03*
D21*
X93054974Y-84692394D03*
D20*
X95594974Y-79612394D03*
D19*
X98134974Y-84692394D03*
D22*
X84194974Y-80652394D03*
X84194974Y-83652394D03*
X100644974Y-78112394D03*
X100644974Y-81112394D03*
D19*
X49874974Y-101361144D03*
D20*
X51144974Y-98821144D03*
D21*
X54954974Y-101361144D03*
D20*
X57494974Y-96281144D03*
D19*
X60034974Y-101361144D03*
D22*
X46094974Y-97321144D03*
X46094974Y-100321144D03*
X62544974Y-94781144D03*
X62544974Y-97781144D03*
D19*
X30824974Y-106123644D03*
D20*
X32094974Y-103583644D03*
D21*
X35904974Y-106123644D03*
D20*
X38444974Y-101043644D03*
D19*
X40984974Y-106123644D03*
D22*
X27044974Y-102083644D03*
X27044974Y-105083644D03*
X43494974Y-99543644D03*
X43494974Y-102543644D03*
D19*
X11774974Y-115648644D03*
D20*
X13044974Y-113108644D03*
D21*
X16854974Y-115648644D03*
D20*
X19394974Y-110568644D03*
D19*
X21934974Y-115648644D03*
D22*
X7994974Y-111608644D03*
X7994974Y-114608644D03*
X24444974Y-109068644D03*
X24444974Y-112068644D03*
D19*
X255124974Y-82311144D03*
D20*
X256394974Y-79771144D03*
D21*
X260204974Y-82311144D03*
D20*
X262744974Y-77231144D03*
D19*
X265284974Y-82311144D03*
D22*
X251344974Y-78271144D03*
X251344974Y-81271144D03*
X267794974Y-75731144D03*
X267794974Y-78731144D03*
D19*
X107024974Y-68023644D03*
D20*
X108294974Y-65483644D03*
D21*
X112104974Y-68023644D03*
D20*
X114644974Y-62943644D03*
D19*
X117184974Y-68023644D03*
D22*
X103244974Y-63983644D03*
X103244974Y-66983644D03*
X119694974Y-61443644D03*
X119694974Y-64443644D03*
D19*
X172199414Y-152285508D03*
D20*
X173009053Y-149563563D03*
D21*
X177202237Y-151403375D03*
D20*
X178821516Y-145959485D03*
D19*
X182205060Y-150521242D03*
D22*
X167775302Y-148963275D03*
X168296246Y-151917698D03*
X183534323Y-143605350D03*
X184055267Y-146559774D03*
D19*
X68924974Y-63261144D03*
D20*
X70194974Y-60721144D03*
D21*
X74004974Y-63261144D03*
D20*
X76544974Y-58181144D03*
D19*
X79084974Y-63261144D03*
D22*
X65144974Y-59221144D03*
X65144974Y-62221144D03*
X81594974Y-56681144D03*
X81594974Y-59681144D03*
D19*
X190960446Y-148977396D03*
D20*
X191770085Y-146255451D03*
D21*
X195963269Y-148095263D03*
D20*
X197582548Y-142651373D03*
D19*
X200966092Y-147213130D03*
D22*
X186536334Y-145655163D03*
X187057278Y-148609586D03*
X202295355Y-140297238D03*
X202816299Y-143251662D03*
D19*
X132953932Y-150520991D03*
D20*
X134645704Y-148240113D03*
D21*
X137956755Y-151403124D03*
D20*
X141340299Y-146841367D03*
D19*
X142959578Y-152285257D03*
D22*
X129932897Y-145885978D03*
X129411952Y-148840401D03*
X146574051Y-146241079D03*
X146053106Y-149195502D03*
D19*
X197974974Y-68023644D03*
D20*
X199244974Y-65483644D03*
D21*
X203054974Y-68023644D03*
D20*
X205594974Y-62943644D03*
D19*
X208134974Y-68023644D03*
D22*
X194194974Y-63983644D03*
X194194974Y-66983644D03*
X210644974Y-61443644D03*
X210644974Y-64443644D03*
D23*
X135780847Y-66987676D02*
X135805038Y-66982090D01*
X307133684Y-143637152D02*
X307113403Y-143650162D01*
X178765137Y-59056760D02*
X178786394Y-59068783D01*
X169838262Y-161439291D02*
X169830784Y-161415200D01*
X179088488Y-66733330D02*
X179100511Y-66754588D01*
X140682519Y-59349230D02*
X140689261Y-59372944D01*
X306456438Y-175053883D02*
X306405670Y-175057745D01*
X7904512Y-143439323D02*
X7894506Y-143417183D01*
X289703595Y-143732746D02*
X289679397Y-143738332D01*
X174425644Y-142568406D02*
X174436838Y-142550094D01*
X213553462Y-56619258D02*
X213578858Y-56617325D01*
X306927964Y-68528363D02*
X306952120Y-68532573D01*
X178743345Y-59045804D02*
X178765137Y-59056760D01*
X307338285Y-143347554D02*
X307331553Y-143371267D01*
X83005597Y-54518685D02*
X83015614Y-54540825D01*
X307293339Y-174402836D02*
X307275436Y-174448255D01*
X270089852Y-129564406D02*
X270071138Y-129548281D01*
X174575603Y-59241241D02*
X174588670Y-59220537D01*
X232160429Y-54659236D02*
X232164823Y-54634631D01*
X189068787Y-59305782D02*
X189078804Y-59283642D01*
X145329455Y-161528983D02*
X145316695Y-161549785D01*
X225534550Y-131845598D02*
X225511807Y-131854371D01*
X225467724Y-131875200D02*
X225446465Y-131887223D01*
X307349130Y-49158349D02*
X307343075Y-49207189D01*
X65520417Y-150828299D02*
X65498128Y-150818425D01*
X140899017Y-142694338D02*
X140916328Y-142707153D01*
X231463139Y-129473127D02*
X231440850Y-129483000D01*
X105954737Y-154919016D02*
X105954737Y-170059137D01*
X269140919Y-54418537D02*
X269156047Y-54437963D01*
X102107452Y-58549169D02*
X102110634Y-58574196D01*
X213055402Y-58714818D02*
X213065418Y-58692673D01*
X269324970Y-58754667D02*
X269338042Y-58775350D01*
X224876416Y-152156795D02*
X224855474Y-152163984D01*
X225195242Y-151776703D02*
X225190851Y-151798292D01*
X231283825Y-129599492D02*
X231267705Y-129618206D01*
X7940577Y-143502092D02*
X7927579Y-143481809D01*
X307333699Y-45857886D02*
X307342493Y-45907142D01*
X144809932Y-161770655D02*
X105954737Y-154919016D01*
X225203196Y-132316240D02*
X225203196Y-151687578D01*
X307125688Y-45423262D02*
X307155370Y-45461042D01*
X179019963Y-59399958D02*
X179024173Y-59424100D01*
X145221517Y-161658301D02*
X145202891Y-161673435D01*
X8855365Y-170059137D02*
X13755083Y-170059137D01*
X270437335Y-134084429D02*
X270418622Y-134068304D01*
X174505190Y-59473065D02*
X174507030Y-59448482D01*
X26832776Y-68282282D02*
X26844819Y-68261349D01*
X225446465Y-131887223D02*
X225425781Y-131900295D01*
X307212277Y-49572910D02*
X307186129Y-49614268D01*
X280035334Y-159979104D02*
X280024288Y-159957549D01*
X307061198Y-170351938D02*
X307095416Y-170387897D01*
X189428661Y-59010552D02*
X189453264Y-59006152D01*
X230892844Y-131756057D02*
X230871292Y-131767092D01*
X148108246Y-144054313D02*
X148129038Y-144067072D01*
X270562827Y-134159590D02*
X270540540Y-134149716D01*
X27087046Y-59112135D02*
X27105928Y-59097289D01*
X148086748Y-144042537D02*
X148108246Y-144054313D01*
X44732455Y-134113868D02*
X44711772Y-134126934D01*
X7933824Y-45670140D02*
X7953849Y-45625837D01*
X126015398Y-59127211D02*
X126033374Y-59144320D01*
X289468078Y-143852513D02*
X289450705Y-143869070D01*
X174504065Y-142321417D02*
X174504573Y-142298769D01*
X25664302Y-143650162D02*
X25643369Y-143662205D01*
X64784415Y-129520800D02*
X64764134Y-129507802D01*
X46309641Y-54257010D02*
X46333173Y-54250485D01*
X279985120Y-159841553D02*
X279980720Y-159816929D01*
X269876211Y-129450174D02*
X269852345Y-129444799D01*
X8756504Y-50054711D02*
X8707661Y-50048639D01*
X230654673Y-131816362D02*
X225703089Y-131816362D01*
X125848446Y-59027156D02*
X125871189Y-59035930D01*
X45027360Y-129676080D02*
X45015328Y-129697014D01*
X203454493Y-58998978D02*
X212604838Y-58997919D01*
X136179292Y-66523661D02*
X136179942Y-66497955D01*
X8051465Y-49654383D02*
X8023269Y-49614268D01*
X307331553Y-143371267D02*
X307323697Y-143394487D01*
X232268772Y-54417428D02*
X232284480Y-54399286D01*
X287859831Y-159806358D02*
X287734200Y-159878590D01*
X288388004Y-68300324D02*
X288402107Y-68320391D01*
X45884283Y-58754667D02*
X45896307Y-58733409D01*
X280303064Y-160210331D02*
X280280367Y-160201385D01*
X25481266Y-143716817D02*
X25456262Y-143719999D01*
X8113889Y-49730557D02*
X8081684Y-49693173D01*
X188931411Y-66795337D02*
X188945520Y-66775270D01*
X25704186Y-143623209D02*
X25684585Y-143637152D01*
X65434396Y-150782370D02*
X65414330Y-150768262D01*
X64944443Y-129697014D02*
X64932411Y-129676080D01*
X102032454Y-56857443D02*
X102044497Y-56878376D01*
X232416216Y-54295805D02*
X232437772Y-54284759D01*
X213019304Y-58777588D02*
X213032313Y-58757307D01*
X8026023Y-45500253D02*
X8053903Y-45461042D01*
X8605387Y-45090831D02*
X8653778Y-45079665D01*
X8384374Y-49941685D02*
X8341828Y-49917608D01*
X7953849Y-170625625D02*
X7975933Y-170582501D01*
X148357204Y-144472817D02*
X148357260Y-144497831D01*
X46053192Y-54437963D02*
X46068316Y-54418537D01*
X140504058Y-59097289D02*
X140522956Y-59112135D01*
X135805038Y-66982090D02*
X135828764Y-66975349D01*
X232170401Y-54610456D02*
X232177134Y-54586742D01*
X25943083Y-134506551D02*
X25934309Y-134529295D01*
X269945643Y-129473127D02*
X269922900Y-129464354D01*
X231913906Y-56544256D02*
X231934189Y-56531247D01*
X136050132Y-66833985D02*
X136065839Y-66815843D01*
X307048770Y-143683268D02*
X307026067Y-143692225D01*
X270253609Y-129910203D02*
X270251780Y-129885578D01*
X8336723Y-170203907D02*
X8378605Y-170179828D01*
X166972027Y-144161509D02*
X166988484Y-144143255D01*
X188900161Y-66833460D02*
X188916286Y-66814747D01*
X269828185Y-129440590D02*
X269803771Y-129437563D01*
X269632296Y-58982864D02*
X269656156Y-58988240D01*
X225511807Y-131854371D02*
X225489518Y-131864244D01*
X102345645Y-58925583D02*
X102366580Y-58937615D01*
X27328918Y-59003684D02*
X27353945Y-59000502D01*
X82998920Y-150871247D02*
X82998947Y-150871240D01*
X8296145Y-170229918D02*
X8336723Y-170203907D01*
X140280943Y-59003684D02*
X140305575Y-59008083D01*
X125825288Y-59019499D02*
X125848446Y-59027156D01*
X189030126Y-59474567D02*
X189032058Y-59449197D01*
X44949555Y-133771590D02*
X44945345Y-133795771D01*
X64955478Y-129718570D02*
X64944443Y-129697014D01*
X306787645Y-45157957D02*
X306830753Y-45180040D01*
X101864109Y-56689092D02*
X101884391Y-56702101D01*
X144860735Y-161776933D02*
X144835388Y-161774452D01*
X7856473Y-49109088D02*
X7855243Y-49059488D01*
X203454493Y-50059610D02*
X203454493Y-58998978D01*
X279975606Y-159766506D02*
X279974955Y-159740770D01*
X212655916Y-58995340D02*
X212680920Y-58992163D01*
X141095900Y-142786798D02*
X141118129Y-142791246D01*
X83077418Y-56265362D02*
X83085283Y-56288583D01*
X174602758Y-59200451D02*
X174617852Y-59181025D01*
X307026432Y-174799265D02*
X306990154Y-174830696D01*
X144910948Y-161778049D02*
X144885933Y-161778124D01*
X140971670Y-142741124D02*
X140991187Y-142750877D01*
X46198399Y-54306296D02*
X46219657Y-54294272D01*
X231990818Y-56486740D02*
X232008183Y-56470183D01*
X179058882Y-66666505D02*
X179067656Y-66689248D01*
X140705518Y-142321417D02*
X140707024Y-142343834D01*
X83316629Y-56556299D02*
X83338182Y-56567345D01*
X25576980Y-143692225D02*
X25553759Y-143700090D01*
X46138240Y-54348600D02*
X46157650Y-54333476D01*
X230871292Y-131767092D02*
X230849153Y-131777099D01*
X174526250Y-59352567D02*
X174533930Y-59329400D01*
X270170292Y-129657684D02*
X270156186Y-129637617D01*
X231755478Y-56606510D02*
X231779652Y-56600924D01*
X148018272Y-144013476D02*
X148041735Y-144022083D01*
X25405186Y-143722582D02*
X20954907Y-143722582D01*
X279623789Y-134220065D02*
X279600061Y-134213332D01*
X26723197Y-68408792D02*
X26741339Y-68393084D01*
X174504573Y-59497805D02*
X174505190Y-59473065D01*
X8605387Y-170090618D02*
X8653778Y-170079452D01*
X213074375Y-58669970D02*
X213082240Y-58646739D01*
X270232645Y-129789610D02*
X270224989Y-129766452D01*
X279952496Y-134548785D02*
X279944642Y-134525554D01*
X7951160Y-49486798D02*
X7931399Y-49442206D01*
X307322534Y-174308901D02*
X307309059Y-174356364D01*
X7866764Y-45907142D02*
X7875558Y-45857886D01*
X140821877Y-142620152D02*
X140835983Y-142636259D01*
X230755351Y-131806212D02*
X230730747Y-131810606D01*
X136511287Y-59027156D02*
X136534446Y-59019499D01*
X307323697Y-143394487D02*
X307314751Y-143417183D01*
X102325362Y-58912585D02*
X102345645Y-58925583D01*
X178865260Y-59127211D02*
X178883235Y-59144320D01*
X26805824Y-68322161D02*
X26819767Y-68302564D01*
X25905072Y-134697847D02*
X25905072Y-143222696D01*
X25758580Y-143576088D02*
X25741215Y-143592645D01*
X225405713Y-131914401D02*
X225386300Y-131929524D01*
X269312947Y-58733409D02*
X269324970Y-58754667D01*
X225202689Y-151710226D02*
X225201181Y-151732646D01*
X166988484Y-144143255D02*
X167005771Y-144125888D01*
X269301991Y-58711616D02*
X269312947Y-58733409D01*
X83052343Y-54684240D02*
X83054276Y-54709610D01*
X83032435Y-54586742D02*
X83039176Y-54610456D01*
X212729701Y-58982190D02*
X212753415Y-58975458D01*
X179360986Y-66968603D02*
X179384143Y-66976261D01*
X225135461Y-151938992D02*
X225124268Y-151957315D01*
X231164231Y-129837008D02*
X231160021Y-129861166D01*
X307333699Y-174260510D02*
X307322534Y-174308901D01*
X179212742Y-66884670D02*
X179232152Y-66899794D01*
X231252585Y-129637617D02*
X231238481Y-129657684D01*
X270338177Y-133975031D02*
X270325102Y-133954350D01*
X145143001Y-161713268D02*
X145121822Y-161724605D01*
X231934189Y-56531247D02*
X231953790Y-56517304D01*
X126108913Y-59241241D02*
X126120937Y-59262521D01*
X82999040Y-150871200D02*
X82999061Y-150871187D01*
X102120620Y-58623012D02*
X102127361Y-58646739D01*
X307354014Y-171059259D02*
X307354014Y-174058924D01*
X213065418Y-58692673D02*
X213074375Y-58669970D01*
X82999080Y-150871173D02*
X82999099Y-150871158D01*
X83554812Y-56616674D02*
X101604991Y-56616674D01*
X145031997Y-161759578D02*
X145008445Y-161765601D01*
X25832653Y-143481809D02*
X25819644Y-143502092D01*
X225241210Y-132125078D02*
X225232435Y-132147836D01*
X135874698Y-66958528D02*
X135896843Y-66948511D01*
X270729304Y-134196990D02*
X270704682Y-134195161D01*
X82999185Y-150871077D02*
X82999219Y-150871043D01*
X45955763Y-54710576D02*
X45957591Y-54685994D01*
X25894907Y-143323379D02*
X25889321Y-143347554D01*
X145121822Y-161724605D02*
X145100095Y-161734930D01*
X288319139Y-68144869D02*
X288325662Y-68168401D01*
X279944642Y-134525554D02*
X279935696Y-134502850D01*
X45429172Y-129436115D02*
X45403775Y-129438044D01*
X212843026Y-58937615D02*
X212863960Y-58925583D01*
X307026432Y-45319130D02*
X307061156Y-45352243D01*
X174492227Y-142409464D02*
X174496618Y-142387881D01*
X140464148Y-59070337D02*
X140484445Y-59083345D01*
X188579005Y-66995399D02*
X188603418Y-66992371D01*
X83054927Y-54735316D02*
X83054927Y-56116789D01*
X26927655Y-59349230D02*
X26935511Y-59326009D01*
X269967931Y-129483000D02*
X269945643Y-129473127D01*
X188674974Y-66976261D02*
X188698131Y-66968603D01*
X307304745Y-143439323D02*
X307293710Y-143460876D01*
X174113669Y-142786798D02*
X174135469Y-142781406D01*
X8160489Y-68562207D02*
X8183192Y-68553250D01*
X189175963Y-59146878D02*
X189193328Y-59130321D01*
X65019874Y-150281050D02*
X65014477Y-150257192D01*
X145202891Y-161673435D02*
X145183572Y-161687657D01*
X26003117Y-134400461D02*
X25989010Y-134420527D01*
X8855365Y-50059610D02*
X8805765Y-50058380D01*
X231779652Y-56600924D02*
X231803365Y-56594183D01*
X125753732Y-59003388D02*
X125777891Y-59007598D01*
X83236925Y-56502458D02*
X83255812Y-56517304D01*
X174473611Y-142472163D02*
X174480704Y-142451629D01*
X64905480Y-129636201D02*
X64890644Y-129617319D01*
X289122151Y-158272197D02*
X289068438Y-158408434D01*
X7877704Y-68874206D02*
X7885559Y-68850985D01*
X306501931Y-50048639D02*
X306453090Y-50054711D01*
X212680920Y-58992163D02*
X212705525Y-58987769D01*
X82999447Y-150870906D02*
X82999475Y-150870901D01*
X288612761Y-68484883D02*
X288635520Y-68493656D01*
X140952674Y-142730569D02*
X140971670Y-142741124D01*
X269779144Y-129435735D02*
X269754344Y-129435122D01*
X178675157Y-59019499D02*
X178698314Y-59027156D01*
X179027201Y-59448482D02*
X179029030Y-59473065D01*
X307309059Y-45762031D02*
X307322534Y-45809495D01*
X167215967Y-144005990D02*
X167239888Y-143999879D01*
X189078804Y-59283642D02*
X189089850Y-59262090D01*
X98754901Y-170059137D02*
X98754901Y-153649370D01*
X307322534Y-45809495D02*
X307333699Y-45857886D01*
X167169405Y-144021600D02*
X167192460Y-144013238D01*
X126578980Y-66987676D02*
X126603586Y-66992076D01*
X8703034Y-45070872D02*
X8753093Y-45064513D01*
X126210137Y-66669749D02*
X126219093Y-66692446D01*
X225581239Y-131831416D02*
X225557708Y-131837941D01*
X7855893Y-68997074D02*
X7857822Y-68971703D01*
X288063454Y-59070337D02*
X288083736Y-59083345D01*
X232152090Y-56167865D02*
X232154022Y-56142495D01*
X102104218Y-57090854D02*
X102104869Y-57116560D01*
X45084835Y-129599183D02*
X45069127Y-129617319D01*
X8557924Y-45104306D02*
X8605387Y-45090831D01*
X46068316Y-54418537D02*
X46084441Y-54399813D01*
X224790095Y-152180056D02*
X215954463Y-153737917D01*
X280047378Y-160000037D02*
X280035334Y-159979104D01*
X8116788Y-68583269D02*
X8138343Y-68572223D01*
X45993159Y-54544154D02*
X46003032Y-54521847D01*
X83049162Y-54659236D02*
X83052343Y-54684240D01*
X8053903Y-45461042D02*
X8083591Y-45423262D01*
X45984385Y-54566912D02*
X45993159Y-54544154D01*
X7985053Y-143558723D02*
X7969345Y-143540580D01*
X289319930Y-144097605D02*
X289314343Y-144121781D01*
X189270238Y-59072806D02*
X189291170Y-59060763D01*
X170272809Y-161776874D02*
X170248271Y-161774366D01*
X170153408Y-161752677D02*
X170130696Y-161744468D01*
X8026023Y-170500041D02*
X8053903Y-170460831D01*
X167239888Y-143999879D02*
X167264186Y-143994928D01*
X8653778Y-170079452D02*
X8703034Y-170070659D01*
X140783843Y-142568406D02*
X140795787Y-142586202D01*
X44955024Y-133697725D02*
X44954410Y-133722526D01*
X213528436Y-56622439D02*
X213553462Y-56619258D01*
X307348258Y-143298774D02*
X307343864Y-143323379D01*
X141011206Y-142759806D02*
X141031706Y-142767886D01*
X269253487Y-54710576D02*
X269254100Y-54735316D01*
X270195387Y-129699626D02*
X270183365Y-129678367D01*
X178931593Y-59200451D02*
X178945700Y-59220537D01*
X306930295Y-143716817D02*
X306905269Y-143719999D01*
X288281623Y-59349230D02*
X288288357Y-59372944D01*
X307189614Y-68652188D02*
X307207591Y-68669296D01*
X213104080Y-58523772D02*
X213104731Y-58498035D01*
X83115302Y-56354972D02*
X83127345Y-56375905D01*
X289304179Y-144222467D02*
X289304179Y-157240641D01*
X8219155Y-170287487D02*
X8256935Y-170257799D01*
X83140354Y-56396188D02*
X83154297Y-56415789D01*
X102089119Y-56991700D02*
X102094705Y-57015875D01*
X7953849Y-45625837D02*
X7975933Y-45582713D01*
X307095416Y-49730557D02*
X307061198Y-49766452D01*
X135828764Y-66975349D02*
X135851995Y-66967485D01*
X7866764Y-170906929D02*
X7875558Y-170857673D01*
X148303831Y-144261944D02*
X148314154Y-144283670D01*
X136606007Y-59003388D02*
X136630422Y-59000361D01*
X26530170Y-68507165D02*
X26553884Y-68500433D01*
X188945520Y-66775270D02*
X188958595Y-66754588D01*
X8037094Y-143608363D02*
X8018959Y-143592645D01*
X83054927Y-56116789D02*
X83055578Y-56142495D01*
X280423786Y-160238069D02*
X280398782Y-160234892D01*
X7969345Y-68704892D02*
X7985053Y-68686750D01*
X44977485Y-129786651D02*
X44970752Y-129810378D01*
X64994598Y-129834570D02*
X64989019Y-129810378D01*
X307342493Y-45907142D02*
X307348852Y-45957200D01*
X83169143Y-56434676D02*
X83184861Y-56452818D01*
X140605622Y-59198803D02*
X140619570Y-59218404D01*
X306501931Y-170070107D02*
X306550269Y-170078546D01*
X8355128Y-68522894D02*
X13755083Y-68522894D01*
X8421729Y-174960439D02*
X8378605Y-174938355D01*
X136679850Y-58997919D02*
X140204768Y-58997919D01*
X102388133Y-58948650D02*
X102410274Y-58958656D01*
X140329776Y-59013669D02*
X140353513Y-59020410D01*
X279875697Y-134398338D02*
X279860862Y-134379456D01*
X179039323Y-66595949D02*
X179044699Y-66619815D01*
X225224777Y-132171002D02*
X225218252Y-132194535D01*
X270244544Y-129837008D02*
X270239169Y-129813142D01*
X101922878Y-56730891D02*
X101941020Y-56746608D01*
X101958384Y-56763165D02*
X101974941Y-56780530D01*
X231115237Y-131511112D02*
X231105219Y-131533257D01*
X8115023Y-174731420D02*
X8083591Y-174695133D01*
X101941020Y-56746608D02*
X101958384Y-56763165D01*
X178603601Y-59003388D02*
X178627760Y-59007598D01*
X212922732Y-58883816D02*
X212940874Y-58868109D01*
X148349681Y-144399237D02*
X148353390Y-144423483D01*
X8256935Y-45258011D02*
X8296145Y-45230130D01*
X8000012Y-170540619D02*
X8026023Y-170500041D01*
X44600531Y-134176286D02*
X44576999Y-134182834D01*
X8053903Y-170460831D02*
X8083591Y-170423051D01*
X45945470Y-58596030D02*
X45949680Y-58571870D01*
X140728844Y-142451629D02*
X140735927Y-142472163D01*
X136250817Y-59241241D02*
X136263891Y-59220537D01*
X45711827Y-58927053D02*
X45732531Y-58913979D01*
X289326671Y-144073891D02*
X289319930Y-144097605D01*
X45952707Y-58547458D02*
X45954536Y-58522833D01*
X8611562Y-50029418D02*
X8564469Y-50016339D01*
X26664426Y-68450558D02*
X26684709Y-68437560D01*
X179044699Y-66619815D02*
X179051224Y-66643347D01*
X231337629Y-129548281D02*
X231318911Y-129564406D01*
X189024004Y-66571790D02*
X189027032Y-66547378D01*
X279774235Y-134296871D02*
X279754639Y-134282938D01*
X174400997Y-142603459D02*
X174413690Y-142586202D01*
X306872621Y-174914276D02*
X306830753Y-174938355D01*
X307207656Y-143576088D02*
X307190298Y-143592645D01*
X166852412Y-144451585D02*
X166854757Y-144427269D01*
X8183192Y-143692225D02*
X8160489Y-143683268D01*
X307095416Y-170387897D02*
X307127666Y-170425336D01*
X269031528Y-54319369D02*
X269051590Y-54333476D01*
X270302118Y-133911299D02*
X270292243Y-133889011D01*
X8707661Y-50048639D02*
X8659321Y-50040197D01*
X269476715Y-58913979D02*
X269497421Y-58927053D01*
X170176557Y-161759798D02*
X170153408Y-161752677D01*
X136174186Y-66574035D02*
X136177363Y-66549031D01*
X126400264Y-66912413D02*
X126420547Y-66925422D01*
X169969140Y-161642606D02*
X169952008Y-161625731D01*
X270585568Y-134168364D02*
X270562827Y-134159590D01*
X174563578Y-59262521D02*
X174575603Y-59241241D01*
X174769198Y-59056760D02*
X174791025Y-59045804D01*
X215954463Y-170059137D02*
X293754466Y-170059137D01*
X230803238Y-131793901D02*
X230779525Y-131800633D01*
X26920923Y-59372944D02*
X26927655Y-59349230D01*
X232184989Y-54563521D02*
X232193935Y-54540825D01*
X136016226Y-66867907D02*
X136033583Y-66851350D01*
X289389620Y-143943065D02*
X289376607Y-143963348D01*
X225274065Y-132059677D02*
X225262041Y-132080957D01*
X270292243Y-133889011D02*
X270283467Y-133866269D01*
X8557924Y-175014090D02*
X8511451Y-174998369D01*
X148314154Y-144283670D02*
X148323439Y-144305907D01*
X307343864Y-143323379D02*
X307338285Y-143347554D01*
X279734358Y-134269940D02*
X279713424Y-134257908D01*
X126131894Y-59284335D02*
X126141768Y-59306643D01*
X232529581Y-54251180D02*
X232553774Y-54245594D01*
X7874651Y-49255527D02*
X7866212Y-49207189D01*
X280449157Y-160239998D02*
X280423786Y-160238069D01*
X144835388Y-161774452D02*
X144809932Y-161770655D01*
X45960618Y-54661611D02*
X45964828Y-54637470D01*
X231225410Y-129678367D02*
X231213389Y-129699626D01*
X287855312Y-59000502D02*
X287880338Y-59003684D01*
X125729319Y-59000361D02*
X125753732Y-59003388D01*
X189028862Y-66522753D02*
X189029475Y-66497955D01*
X280374176Y-160230498D02*
X280350000Y-160224919D01*
X280175852Y-160141381D02*
X280156964Y-160126546D01*
X83218783Y-56486740D02*
X83236925Y-56502458D01*
X145316695Y-161549785D02*
X145302988Y-161569854D01*
X213104731Y-57116560D02*
X213105381Y-57090854D01*
X288487146Y-68409724D02*
X288506570Y-68424849D01*
X174791025Y-59045804D02*
X174813348Y-59035930D01*
X279889629Y-134417935D02*
X279875697Y-134398338D01*
X213127191Y-56967986D02*
X213135046Y-56944765D01*
X44985340Y-129763419D02*
X44977485Y-129786651D01*
X7954509Y-68723779D02*
X7969345Y-68704892D01*
X225185539Y-151819558D02*
X225179327Y-151840474D01*
X101656068Y-56619258D02*
X101681072Y-56622439D01*
X188627577Y-66988161D02*
X188651442Y-66982786D01*
X8753093Y-170064300D02*
X8803891Y-170060438D01*
X287471956Y-160004911D02*
X287335719Y-160058623D01*
X174387583Y-142620152D02*
X174400997Y-142603459D01*
X287929155Y-59013669D02*
X287952882Y-59020410D01*
X7915547Y-143460876D02*
X7904512Y-143439323D01*
X118454676Y-50059610D02*
X118454676Y-58997919D01*
X231008055Y-131670002D02*
X230990690Y-131686550D01*
X147969560Y-143999687D02*
X147994205Y-144005999D01*
X189357555Y-59030743D02*
X189380775Y-59022879D01*
X188916286Y-66814747D02*
X188931411Y-66795337D01*
X8803891Y-170060438D02*
X8855365Y-170059137D01*
X140743870Y-142492301D02*
X140752653Y-142512018D01*
X65637877Y-150860842D02*
X65613717Y-150856632D01*
X7860405Y-45957200D02*
X7866764Y-45907142D01*
X174310423Y-142694338D02*
X174327134Y-142680818D01*
X83383018Y-56586318D02*
X83406239Y-56594183D01*
X7855243Y-174058924D02*
X7855243Y-171059259D01*
X83295696Y-56544256D02*
X83316629Y-56556299D01*
X136534446Y-59019499D02*
X136557979Y-59012974D01*
X45378748Y-129441221D02*
X45354124Y-129445615D01*
X288547358Y-68452029D02*
X288568638Y-68464052D01*
X225190851Y-151798292D02*
X225185539Y-151819558D01*
X174486916Y-142430721D02*
X174492227Y-142409464D01*
X232124317Y-56288583D02*
X232132182Y-56265362D01*
X232069246Y-56396188D02*
X232082255Y-56375905D01*
X179252219Y-66913901D02*
X179272902Y-66926974D01*
X45403775Y-129438044D02*
X45378748Y-129441221D01*
X269244422Y-54637470D02*
X269248631Y-54661611D01*
X25910541Y-134624011D02*
X25907514Y-134648424D01*
X279754639Y-134282938D02*
X279734358Y-134269940D01*
X140882307Y-142680818D02*
X140899017Y-142694338D01*
X293754466Y-143722582D02*
X289804393Y-143722582D01*
X44994287Y-129740715D02*
X44985340Y-129763419D01*
X44960780Y-129859195D02*
X44957603Y-129884223D01*
X269656156Y-58988240D02*
X269680300Y-58992450D01*
X212753415Y-58975458D02*
X212776636Y-58967602D01*
X280089179Y-160058797D02*
X280074332Y-160039915D01*
X45825856Y-58833539D02*
X45841980Y-58814826D01*
X269216090Y-54544154D02*
X269224864Y-54566912D01*
X269852345Y-129444799D02*
X269828185Y-129440590D01*
X82655726Y-54245594D02*
X82679901Y-54251180D01*
X45896307Y-58733409D02*
X45907263Y-58711616D01*
X288942115Y-158670681D02*
X288869882Y-158796312D01*
X7915547Y-68784596D02*
X7927579Y-68763663D01*
X289609706Y-143761893D02*
X289587549Y-143771910D01*
X126229110Y-66714586D02*
X126240156Y-66736138D01*
X213104731Y-58498035D02*
X213104731Y-57116560D01*
X140655677Y-59281173D02*
X140665696Y-59303313D01*
X208754634Y-155007555D02*
X170398616Y-161770655D01*
X269224864Y-54566912D02*
X269232522Y-54590078D01*
X307348852Y-174161196D02*
X307342493Y-174211254D01*
X269704684Y-58995477D02*
X269729268Y-58997306D01*
X178970798Y-59262521D02*
X178981755Y-59284335D01*
X136344327Y-59127211D02*
X136363041Y-59111087D01*
X268803649Y-54237872D02*
X268828063Y-54240899D01*
X213503812Y-56626839D02*
X213528436Y-56622439D01*
X136217961Y-59306643D02*
X136227836Y-59284335D01*
X307127666Y-170425336D02*
X307157914Y-170464175D01*
X135680064Y-66997841D02*
X135705800Y-66997190D01*
X279526215Y-134200182D02*
X279500816Y-134198253D01*
X144885933Y-161778124D02*
X144860735Y-161776933D01*
X179113585Y-66775270D02*
X179127693Y-66795337D01*
X126326270Y-66851350D02*
X126343635Y-66867907D01*
X224812293Y-152175638D02*
X224790095Y-152180056D01*
X174588670Y-59220537D02*
X174602758Y-59200451D01*
X13755083Y-68522894D02*
X13755083Y-50059610D01*
X306405670Y-45060652D02*
X306456438Y-45064513D01*
X288306529Y-68072432D02*
X288309555Y-68096844D01*
X270107829Y-129581514D02*
X270089852Y-129564406D01*
X289209737Y-157990433D02*
X289169313Y-158132800D01*
X306453090Y-170064036D02*
X306501931Y-170070107D01*
X307277987Y-49442206D02*
X307258239Y-49486798D01*
X13755083Y-143722582D02*
X8355128Y-143722582D01*
X307354014Y-46059473D02*
X307354014Y-49059488D01*
X289545034Y-143794999D02*
X289524738Y-143808007D01*
X269608760Y-58976339D02*
X269632296Y-58982864D01*
X279902626Y-134438216D02*
X279889629Y-134417935D01*
X280326285Y-160218187D02*
X280303064Y-160210331D01*
X8341828Y-49917608D02*
X8300436Y-49891435D01*
X26977530Y-59238686D02*
X26990528Y-59218404D01*
X126554805Y-66982090D02*
X126578980Y-66987676D01*
X148338791Y-144351769D02*
X148344807Y-144375320D01*
X44479936Y-134197345D02*
X44455138Y-134197962D01*
X26088164Y-134311129D02*
X26069451Y-134327253D01*
X135896843Y-66948511D02*
X135918397Y-66937466D01*
X230849153Y-131777099D02*
X230826457Y-131786045D01*
X46013989Y-54500033D02*
X46026012Y-54478753D01*
X166858287Y-144403122D02*
X166862994Y-144379189D01*
X26505995Y-68512744D02*
X26530170Y-68507165D01*
X126095839Y-59220537D02*
X126108913Y-59241241D01*
X125936528Y-59068783D02*
X125957210Y-59081857D01*
X145239415Y-161642282D02*
X145221517Y-161658301D01*
X45306205Y-129457927D02*
X45282974Y-129465782D01*
X65004748Y-129935358D02*
X65004098Y-129909621D01*
X174504573Y-142298769D02*
X174504573Y-59497805D01*
X225208666Y-132242535D02*
X225205638Y-132266918D01*
X232214975Y-54497132D02*
X232227007Y-54476199D01*
X8803891Y-45060652D02*
X8855365Y-45059350D01*
X140772659Y-142550094D02*
X140783843Y-142568406D01*
X231055177Y-131615626D02*
X231040330Y-131634508D01*
X8001601Y-68669385D02*
X8018959Y-68652828D01*
X225201181Y-151732646D02*
X225198692Y-151754813D01*
X44917014Y-133889188D02*
X44907141Y-133911509D01*
X307334655Y-49255527D02*
X307323903Y-49303280D01*
X83360322Y-56577362D02*
X83383018Y-56586318D01*
X269269158Y-58619895D02*
X269275684Y-58643427D01*
X148149099Y-144080779D02*
X148168402Y-144095396D01*
X188720874Y-66959829D02*
X188743161Y-66949955D01*
X231148786Y-131392632D02*
X231144386Y-131417257D01*
X8300436Y-49891435D02*
X8260281Y-49863198D01*
X45216571Y-129495770D02*
X45195637Y-129507802D01*
X8053903Y-174657352D02*
X8026023Y-174618142D01*
X45871210Y-58775350D02*
X45884283Y-58754667D01*
X25805701Y-143521693D02*
X25790855Y-143540580D01*
X82999289Y-150870980D02*
X82999309Y-150870966D01*
X170347815Y-161776995D02*
X170322617Y-161778213D01*
X45118741Y-129565277D02*
X45101383Y-129581825D01*
X102177290Y-58757307D02*
X102190299Y-58777588D01*
X25889321Y-143347554D02*
X25882580Y-143371267D01*
X287053958Y-160146208D02*
X286908812Y-160179704D01*
X307254747Y-143521693D02*
X307239911Y-143540580D01*
X307157914Y-49654383D02*
X307127666Y-49693173D01*
X288682223Y-68507839D02*
X288706084Y-68513215D01*
X136309244Y-59162300D02*
X136326350Y-59144320D01*
X64555993Y-129438044D02*
X64530596Y-129436115D01*
X189529338Y-59000387D02*
X196254679Y-58999681D01*
X25907514Y-134648424D02*
X25905685Y-134673049D01*
X288264819Y-59303313D02*
X288273767Y-59326009D01*
X178651625Y-59012974D02*
X178675157Y-59019499D01*
X148129038Y-144067072D02*
X148149099Y-144080779D01*
X300953929Y-170059137D02*
X306354228Y-170059137D01*
X126182365Y-66549031D02*
X126185546Y-66574035D01*
X289288691Y-157547396D02*
X289269615Y-157697543D01*
X307094262Y-45386975D02*
X307125688Y-45423262D01*
X26481390Y-68517138D02*
X26505995Y-68512744D01*
X225316371Y-131999461D02*
X225301246Y-132018887D01*
X268828063Y-54240899D02*
X268852223Y-54245109D01*
X270256664Y-133747146D02*
X270254835Y-133722522D01*
X307324779Y-68854376D02*
X307332436Y-68877542D01*
X231892973Y-56556299D02*
X231913906Y-56544256D01*
X45101383Y-129581825D02*
X45084835Y-129599183D01*
X231238481Y-129657684D02*
X231225410Y-129678367D01*
X189045225Y-59375413D02*
X189051967Y-59351699D01*
X7886723Y-174308901D02*
X7875558Y-174260510D01*
X307190298Y-143592645D02*
X307172163Y-143608363D01*
X188603418Y-66992371D02*
X188627577Y-66988161D01*
X232578400Y-54241194D02*
X232603429Y-54238013D01*
X82999219Y-150871043D02*
X82999253Y-150871011D01*
X26034366Y-134362338D02*
X26018241Y-134381051D01*
X269124790Y-54399813D02*
X269140919Y-54418537D01*
X189035240Y-59424193D02*
X189039639Y-59399588D01*
X8355128Y-143722582D02*
X8329391Y-143721931D01*
X231154551Y-129934999D02*
X231154551Y-131316469D01*
X270476811Y-134113661D02*
X270456745Y-134099553D01*
X307236325Y-49530393D02*
X307212277Y-49572910D01*
X213177064Y-56857443D02*
X213190061Y-56837160D01*
X288425536Y-159362016D02*
X288321350Y-159461347D01*
X306506468Y-175047524D02*
X306456438Y-175053883D01*
X189249956Y-59085815D02*
X189270238Y-59072806D01*
X82726835Y-54265786D02*
X82749531Y-54274742D01*
X140644629Y-59259620D02*
X140655677Y-59281173D01*
X307067696Y-68570779D02*
X307089487Y-68581736D01*
X148357260Y-144497831D02*
X148356047Y-144523030D01*
X270283467Y-133866269D02*
X270275808Y-133843112D01*
X306736953Y-170135294D02*
X306781545Y-170155055D01*
X231267705Y-129618206D02*
X231252585Y-129637617D01*
X174519702Y-59376100D02*
X174526250Y-59352567D01*
X102065558Y-56922069D02*
X102074514Y-56944765D01*
X289505126Y-143821950D02*
X289486229Y-143836796D01*
X136263891Y-59220537D02*
X136277997Y-59200451D01*
X270269281Y-133819581D02*
X270263904Y-133795716D01*
X126150543Y-59329400D02*
X126158201Y-59352567D01*
X148041735Y-144022083D02*
X148064569Y-144031782D01*
X136140679Y-66692446D02*
X136149625Y-66669749D01*
X83454128Y-56606510D02*
X83478733Y-56610910D01*
X307151491Y-68620939D02*
X307170900Y-68636063D01*
X307338961Y-68901075D02*
X307344336Y-68924933D01*
X102104869Y-58498035D02*
X102105520Y-58523772D01*
X231202433Y-129721420D02*
X231192561Y-129743709D01*
X27145806Y-59070337D02*
X27166740Y-59058294D01*
X45260271Y-129474728D02*
X45238126Y-129484735D01*
X65063745Y-150394626D02*
X65052780Y-150372811D01*
X279828608Y-134343963D02*
X279811252Y-134327414D01*
X45455264Y-58997919D02*
X45480004Y-58997306D01*
X26905194Y-68023008D02*
X26905194Y-59497805D01*
X166928008Y-144221256D02*
X166941752Y-144200586D01*
X179029643Y-59497805D02*
X179029643Y-66497955D01*
X231144386Y-131417257D02*
X231138800Y-131441449D01*
X178698314Y-59027156D02*
X178721057Y-59035930D01*
X169846869Y-161462775D02*
X169838262Y-161439291D01*
X7860999Y-143298774D02*
X7857822Y-143273771D01*
X306913186Y-174888265D02*
X306872621Y-174914276D01*
X270367411Y-134014507D02*
X270352285Y-133995097D01*
X26431016Y-68522244D02*
X26456387Y-68520315D01*
X26758704Y-68376536D02*
X26775261Y-68359178D01*
X8805765Y-50058380D02*
X8756504Y-50054711D01*
X307348852Y-45957200D02*
X307352713Y-46007998D01*
X179176051Y-66851437D02*
X179194028Y-66868545D01*
X288204809Y-59198803D02*
X288218743Y-59218404D01*
X232154673Y-56116789D02*
X232154673Y-54735316D01*
X289169313Y-158132800D02*
X289122151Y-158272197D01*
X136107605Y-66757072D02*
X136119637Y-66736138D01*
X25904421Y-143248401D02*
X25902489Y-143273771D01*
X269263781Y-58596030D02*
X269269158Y-58619895D01*
X189029475Y-66497955D02*
X189029475Y-59500273D01*
X136423201Y-59068783D02*
X136444460Y-59056760D01*
X225057301Y-152040707D02*
X225041849Y-152055573D01*
X307353364Y-143248401D02*
X307351435Y-143273771D01*
X225629261Y-131821831D02*
X225605103Y-131826041D01*
X231397797Y-129505978D02*
X231377112Y-129519051D01*
X25430892Y-143721931D02*
X25405186Y-143722582D01*
X231580595Y-129440590D02*
X231556436Y-129444799D01*
X306787645Y-174960439D02*
X306743359Y-174980464D01*
X8095855Y-143650162D02*
X8075573Y-143637152D01*
X101681072Y-56622439D02*
X101705677Y-56626839D01*
X102005503Y-56817559D02*
X102019446Y-56837160D01*
X307351435Y-143273771D02*
X307348258Y-143298774D01*
X7856544Y-174110398D02*
X7855243Y-174058924D01*
X8254342Y-68533058D02*
X8278966Y-68528659D01*
X136185413Y-59424100D02*
X136189624Y-59399958D01*
X125977276Y-59095963D02*
X125996685Y-59111087D01*
X64504859Y-129435465D02*
X45454909Y-129435465D01*
X83184861Y-56452818D02*
X83201418Y-56470183D01*
X279575869Y-134207753D02*
X279551243Y-134203360D01*
X169935677Y-161608021D02*
X169920185Y-161589500D01*
X280195454Y-160155314D02*
X280175852Y-160141381D01*
X280398782Y-160234892D02*
X280374176Y-160230498D01*
X126679667Y-66997841D02*
X135680064Y-66997841D01*
X83054276Y-54709610D02*
X83054927Y-54735316D01*
X8753093Y-45064513D02*
X8803891Y-45060652D01*
X306743359Y-174980464D02*
X306697959Y-174998369D01*
X26553884Y-68500433D02*
X26577104Y-68492577D01*
X288791852Y-158918031D02*
X288708214Y-159035650D01*
X167103330Y-144053147D02*
X167124803Y-144041578D01*
X179529536Y-66997841D02*
X188529582Y-66997841D01*
X135851995Y-66967485D02*
X135874698Y-66958528D01*
X174358678Y-142651754D02*
X174373470Y-142636259D01*
X126265207Y-66777355D02*
X126279150Y-66796955D01*
X7997130Y-49572910D02*
X7973082Y-49530393D01*
X82999505Y-150870898D02*
X82999537Y-150870897D01*
X7894506Y-68828289D02*
X7904512Y-68806149D01*
X307255962Y-68725427D02*
X307270072Y-68745513D01*
X166852603Y-144525117D02*
X166851325Y-144500553D01*
X269256542Y-58547458D02*
X269259571Y-58571870D01*
X102144183Y-58692673D02*
X102154200Y-58714818D01*
X7904512Y-68806149D02*
X7915547Y-68784596D01*
X307344336Y-68924933D02*
X307348546Y-68949075D01*
X269248631Y-54661611D02*
X269251658Y-54685994D01*
X306879872Y-143721931D02*
X306854136Y-143722582D01*
X213143992Y-56922069D02*
X213153998Y-56899929D01*
X140762256Y-142531290D02*
X140772659Y-142550094D01*
X232603429Y-54238013D02*
X232628828Y-54236081D01*
X269254713Y-58522833D02*
X269256542Y-58547458D01*
X45480004Y-58997306D02*
X45504586Y-58995477D01*
X289418418Y-143904577D02*
X289403567Y-143923464D01*
X213387818Y-56666004D02*
X213409962Y-56655987D01*
X215954463Y-153737917D02*
X215954463Y-170059137D01*
X45454909Y-129435465D02*
X45429172Y-129436115D01*
X307224705Y-68687277D02*
X307240834Y-68706001D01*
X166956437Y-144180627D02*
X166972027Y-144161509D01*
X45329932Y-129451194D02*
X45306205Y-129457927D01*
X213082240Y-58646739D02*
X213088981Y-58623012D01*
X136238793Y-59262521D02*
X136250817Y-59241241D01*
X270518749Y-134138759D02*
X270497492Y-134126735D01*
X225198692Y-151754813D02*
X225195242Y-151776703D01*
X288433346Y-68358515D02*
X288450450Y-68376492D01*
X269456627Y-58899872D02*
X269476715Y-58913979D01*
X7856544Y-171007785D02*
X7860405Y-170956988D01*
X135979209Y-66898470D02*
X135998091Y-66883624D01*
X102102286Y-57065484D02*
X102104218Y-57090854D01*
X174633932Y-59162300D02*
X174650981Y-59144320D01*
X169891860Y-161550128D02*
X169879101Y-161529328D01*
X27256375Y-59020410D02*
X27280102Y-59013669D01*
X289306762Y-144171390D02*
X289304830Y-144196761D01*
X307240834Y-68706001D02*
X307255962Y-68725427D01*
X269754008Y-58997919D02*
X287804179Y-58997919D01*
X140705012Y-59497805D02*
X140705012Y-142298769D01*
X140399472Y-59037231D02*
X140421630Y-59047248D01*
X288417227Y-68339801D02*
X288433346Y-68358515D01*
X45623668Y-58968681D02*
X45646426Y-58959907D01*
X232437772Y-54284759D02*
X232459917Y-54274742D01*
X140866218Y-142666615D02*
X140882307Y-142680818D01*
X231532571Y-129450174D02*
X231509040Y-129456698D01*
X306598023Y-170089319D02*
X306645110Y-170102391D01*
X26380159Y-134198575D02*
X26355534Y-134200403D01*
X307209255Y-45540830D02*
X307233331Y-45582713D01*
X307343075Y-49207189D02*
X307334655Y-49255527D01*
X83039176Y-54610456D02*
X83044762Y-54634631D01*
X230826457Y-131786045D02*
X230803238Y-131793901D01*
X189143690Y-59182385D02*
X189159407Y-59164243D01*
X179431541Y-66988161D02*
X179455700Y-66992371D01*
X26355534Y-134200403D02*
X26331121Y-134203431D01*
X170373160Y-161774484D02*
X170347815Y-161776995D01*
X232375000Y-54320857D02*
X232395282Y-54307848D01*
X307236325Y-170588272D02*
X307258239Y-170631891D01*
X213135046Y-56944765D02*
X213143992Y-56922069D01*
X45576969Y-58982864D02*
X45600502Y-58976339D01*
X7900198Y-45762031D02*
X7915919Y-45715559D01*
X145077858Y-161744218D02*
X145055147Y-161752442D01*
X307354014Y-69022779D02*
X307354014Y-143222696D01*
X286304179Y-160240648D02*
X280474864Y-160240648D01*
X231151968Y-131367604D02*
X231148786Y-131392632D01*
X213409962Y-56655987D02*
X213432665Y-56647030D01*
X82999117Y-150871142D02*
X82999152Y-150871110D01*
X126463033Y-66948511D02*
X126485174Y-66958528D01*
X7894506Y-143417183D02*
X7885559Y-143394487D01*
X179504738Y-66997228D02*
X179529536Y-66997841D01*
X101903991Y-56716045D02*
X101922878Y-56730891D01*
X232055303Y-56415789D02*
X232069246Y-56396188D01*
X307157914Y-170464175D02*
X307186129Y-170504332D01*
X179030256Y-66522753D02*
X179032085Y-66547378D01*
X174343226Y-142666615D02*
X174358678Y-142651754D01*
X189503634Y-59001038D02*
X189529338Y-59000387D01*
X225072094Y-152025205D02*
X225057301Y-152040707D01*
X189039639Y-59399588D02*
X189045225Y-59375413D01*
X289403567Y-143923464D02*
X289389620Y-143943065D01*
X288309555Y-68096844D02*
X288313764Y-68121003D01*
X82998972Y-150871232D02*
X82998996Y-150871223D01*
X174135469Y-142781406D02*
X174156850Y-142775094D01*
X26990528Y-59218404D02*
X27004461Y-59198803D01*
X140484445Y-59083345D02*
X140504058Y-59097289D01*
X46333173Y-54250485D02*
X46357039Y-54245109D01*
X8219155Y-174830696D02*
X8182867Y-174799265D01*
X213098967Y-58574196D02*
X213102148Y-58549169D01*
X135756223Y-66992076D02*
X135780847Y-66987676D01*
X136119637Y-66736138D02*
X136130672Y-66714586D01*
X82982508Y-54476199D02*
X82994551Y-54497132D01*
X135998091Y-66883624D02*
X136016226Y-66867907D01*
X288325662Y-68168401D02*
X288333318Y-68191559D01*
X135939331Y-66925422D02*
X135959612Y-66912413D01*
X8653778Y-175038731D02*
X8605387Y-175027565D01*
X212776636Y-58967602D02*
X212799333Y-58958656D01*
X8148136Y-174766151D02*
X8115023Y-174731420D01*
X167005771Y-144125888D02*
X167023850Y-144109430D01*
X280138821Y-160110838D02*
X280121455Y-160094290D01*
X25905072Y-143222696D02*
X25904421Y-143248401D01*
X279974955Y-159740770D02*
X279974955Y-134697489D01*
X307209255Y-174577564D02*
X307183247Y-174618142D01*
X288157714Y-59144409D02*
X288174263Y-59161774D01*
X45282974Y-129465782D02*
X45260271Y-129474728D01*
X8026023Y-174618142D02*
X8000012Y-174577564D01*
X101604991Y-56616674D02*
X101630697Y-56617325D01*
X7975933Y-45582713D02*
X8000012Y-45540830D01*
X213102148Y-58549169D02*
X213104080Y-58523772D01*
X225164282Y-151881167D02*
X225155489Y-151900894D01*
X306456438Y-45064513D02*
X306506468Y-45070872D01*
X64721645Y-129484735D02*
X64699499Y-129474728D01*
X140694848Y-59397119D02*
X140699247Y-59421724D01*
X232654567Y-54235430D02*
X268754222Y-54235430D01*
X148168402Y-144095396D02*
X148186922Y-144110888D01*
X289587549Y-143771910D02*
X289565981Y-143782956D01*
X270754100Y-134197603D02*
X270729304Y-134196990D01*
X188865077Y-66868545D02*
X188883052Y-66851437D01*
X188529582Y-66997841D02*
X188554380Y-66997228D01*
X174980017Y-58998532D02*
X175004817Y-58997919D01*
X46241451Y-54283316D02*
X46263740Y-54273442D01*
X44965174Y-129834570D02*
X44960780Y-129859195D01*
X82999475Y-150870901D02*
X82999505Y-150870898D01*
X307061156Y-45352243D02*
X307094262Y-45386975D01*
X288288357Y-59372944D02*
X288293936Y-59397119D01*
X307070915Y-143673251D02*
X307048770Y-143683268D01*
X136164213Y-66622815D02*
X136169792Y-66598640D01*
X269070996Y-54348600D02*
X269089705Y-54364725D01*
X45955149Y-58498035D02*
X45955149Y-54735316D01*
X306854136Y-68522894D02*
X306878931Y-68523507D01*
X179032085Y-66547378D02*
X179035113Y-66571790D01*
X174480704Y-142451629D02*
X174486916Y-142430721D01*
X26775261Y-68359178D02*
X26790978Y-68341043D01*
X231155165Y-129910203D02*
X231154551Y-129934999D01*
X27233144Y-59028275D02*
X27256375Y-59020410D01*
X82891070Y-54365364D02*
X82908436Y-54381921D01*
X8148048Y-49766452D02*
X8113889Y-49730557D01*
X135705800Y-66997190D02*
X135731197Y-66995258D01*
X27188295Y-59047248D02*
X27210440Y-59037231D01*
X8116788Y-143662205D02*
X8095855Y-143650162D01*
X225041849Y-152055573D02*
X225025758Y-152069779D01*
X8075573Y-143637152D02*
X8055976Y-143623209D01*
X126179168Y-59473065D02*
X126179782Y-59497805D01*
X7870972Y-143347554D02*
X7865393Y-143323379D01*
X174275224Y-142719238D02*
X174293113Y-142707153D01*
X306405670Y-175057745D02*
X306354228Y-175059046D01*
X213114881Y-57015875D02*
X213120459Y-56991700D01*
X174447251Y-142531290D02*
X174456865Y-142512018D01*
X7975933Y-170582501D02*
X8000012Y-170540619D01*
X174507030Y-59448482D02*
X174510074Y-59424100D01*
X231605006Y-129437563D02*
X231580595Y-129440590D01*
X178846549Y-59111087D02*
X178865260Y-59127211D01*
X8278966Y-68528659D02*
X8303993Y-68525477D01*
X102579063Y-58997269D02*
X102604769Y-58997919D01*
X188806892Y-66913901D02*
X188826957Y-66899794D01*
X293754466Y-50059610D02*
X203454493Y-50059610D01*
X307186129Y-49614268D02*
X307157914Y-49654383D01*
X64919413Y-129655799D02*
X64905480Y-129636201D01*
X26819767Y-68302564D02*
X26832776Y-68282282D01*
X174687683Y-59111087D02*
X174707110Y-59095963D01*
X174542723Y-59306643D02*
X174552612Y-59284335D01*
X140590770Y-59179916D02*
X140605622Y-59198803D01*
X64804013Y-129534733D02*
X64784415Y-129520800D01*
X270248753Y-129861166D02*
X270244544Y-129837008D01*
X7855243Y-69022779D02*
X7855893Y-68997074D01*
X45600502Y-58976339D02*
X45623668Y-58968681D01*
X268899619Y-54257010D02*
X268922776Y-54264668D01*
X306697959Y-45120027D02*
X306743359Y-45137932D01*
X118454676Y-58997919D02*
X125679896Y-58997919D01*
X126081732Y-59200451D02*
X126095839Y-59220537D01*
X306697959Y-174998369D02*
X306651506Y-175014090D01*
X225425781Y-131900295D02*
X225405713Y-131914401D01*
X189059831Y-59328479D02*
X189068787Y-59305782D01*
X224955399Y-152119525D02*
X224936411Y-152130072D01*
X7969345Y-143540580D02*
X7954509Y-143521693D01*
X105954737Y-170059137D02*
X208754634Y-170059137D01*
X101630697Y-56617325D02*
X101656068Y-56619258D01*
X44933445Y-133843223D02*
X44925787Y-133866412D01*
X166854757Y-144427269D02*
X166858287Y-144403122D01*
X213305455Y-56716045D02*
X213325051Y-56702101D01*
X44856981Y-133995420D02*
X44841857Y-134014848D01*
X188991454Y-66689248D02*
X189000230Y-66666505D01*
X225218252Y-132194535D02*
X225212876Y-132218393D01*
X64764134Y-129507802D02*
X64743200Y-129495770D01*
X269259571Y-58571870D02*
X269263781Y-58596030D01*
X174465658Y-142492301D02*
X174473611Y-142472163D01*
X178900344Y-59162300D02*
X178916469Y-59181025D01*
X65566318Y-150844731D02*
X65543160Y-150837073D01*
X225145875Y-151920177D02*
X225135461Y-151938992D01*
X140674654Y-59326009D02*
X140682519Y-59349230D01*
X178627760Y-59007598D02*
X178651625Y-59012974D01*
X65414330Y-150768262D02*
X65394921Y-150753138D01*
X288635520Y-68493656D02*
X288658688Y-68501314D01*
X44955024Y-129935358D02*
X44955024Y-133697725D01*
X8296145Y-45230130D02*
X8336723Y-45204119D01*
X167062233Y-144079333D02*
X167082461Y-144065740D01*
X170108459Y-161735193D02*
X170086733Y-161724880D01*
X293754466Y-68522894D02*
X293754466Y-50059610D01*
X189380775Y-59022879D02*
X189404487Y-59016138D01*
X307207591Y-68669296D02*
X307224705Y-68687277D01*
X136189624Y-59399958D02*
X136195001Y-59376100D01*
X213286573Y-56730891D02*
X213305455Y-56716045D01*
X125777891Y-59007598D02*
X125801757Y-59012974D01*
X287981550Y-159728329D02*
X287859831Y-159806358D01*
X7886723Y-170809283D02*
X7900198Y-170761819D01*
X231826586Y-56586318D02*
X231849281Y-56577362D01*
X44825732Y-134033573D02*
X44808623Y-134051554D01*
X270680272Y-134192134D02*
X270656116Y-134187923D01*
X8378605Y-45180040D02*
X8421729Y-45157957D01*
X27105928Y-59097289D02*
X27125525Y-59083345D01*
X213110487Y-57040480D02*
X213114881Y-57015875D01*
X8055976Y-68622265D02*
X8075573Y-68608321D01*
X213234535Y-56780530D02*
X213251082Y-56763165D01*
X140705012Y-142298769D02*
X140705518Y-142321417D01*
X64629837Y-129451194D02*
X64605645Y-129445615D01*
X289524738Y-143808007D02*
X289505126Y-143821950D01*
X269540521Y-58950033D02*
X269562831Y-58959907D01*
X188846366Y-66884670D02*
X188865077Y-66868545D01*
X8703034Y-170070659D02*
X8753093Y-170064300D01*
X46219657Y-54294272D02*
X46241451Y-54283316D01*
X8466032Y-174980464D02*
X8421729Y-174960439D01*
X306990154Y-174830696D02*
X306952384Y-174860384D01*
X64841031Y-129565277D02*
X64822895Y-129549569D01*
X141052669Y-142775094D02*
X141074073Y-142781406D01*
X307155370Y-174657352D02*
X307125688Y-174695133D01*
X8000012Y-174577564D02*
X7975933Y-174535682D01*
X288273767Y-59326009D02*
X288281623Y-59349230D01*
X126380664Y-66898470D02*
X126400264Y-66912413D01*
X26915344Y-59397119D02*
X26920923Y-59372944D01*
X7954509Y-143521693D02*
X7940577Y-143502092D01*
X189159407Y-59164243D02*
X189175963Y-59146878D01*
X279845156Y-134361320D02*
X279828608Y-134343963D01*
X102082378Y-56967986D02*
X102089119Y-56991700D01*
X307094262Y-174731420D02*
X307061156Y-174766151D01*
X179051224Y-66643347D02*
X179058882Y-66666505D01*
X45553111Y-58988240D02*
X45576969Y-58982864D01*
X25741215Y-143592645D02*
X25723073Y-143608363D01*
X126279150Y-66796955D02*
X126293996Y-66815843D01*
X231082130Y-131575747D02*
X231069120Y-131596029D01*
X145341232Y-161507473D02*
X145329455Y-161528983D01*
X280014271Y-159935404D02*
X280005314Y-159912701D01*
X8037094Y-68637111D02*
X8055976Y-68622265D01*
X136169792Y-66598640D02*
X136174186Y-66574035D01*
X82999099Y-150871158D02*
X82999117Y-150871142D01*
X27125525Y-59083345D02*
X27145806Y-59070337D01*
X174707110Y-59095963D02*
X174727200Y-59081857D01*
X167042683Y-144093904D02*
X167062233Y-144079333D01*
X44925787Y-133866412D02*
X44917014Y-133889188D01*
X232040457Y-56434676D02*
X232055303Y-56415789D01*
X140709509Y-142365997D02*
X140712953Y-142387881D01*
X82955556Y-54436315D02*
X82969499Y-54455916D01*
X268779022Y-54236043D02*
X268803649Y-54237872D01*
X270656116Y-134187923D02*
X270632253Y-134182547D01*
X65613717Y-150856632D02*
X65589851Y-150851256D01*
X306555699Y-175038731D02*
X306506468Y-175047524D01*
X27280102Y-59013669D02*
X27304294Y-59008083D01*
X269922900Y-129464354D02*
X269899743Y-129456698D01*
X306604066Y-45090831D02*
X306651506Y-45104306D01*
X25905685Y-134673049D02*
X25905072Y-134697847D01*
X136277997Y-59200451D02*
X136293121Y-59181025D01*
X306736953Y-49983410D02*
X306691447Y-50000991D01*
X189334861Y-59039700D02*
X189357555Y-59030743D01*
X213325051Y-56702101D02*
X213345331Y-56689092D01*
X8184005Y-49800673D02*
X8148048Y-49766452D01*
X213044356Y-58736374D02*
X213055402Y-58714818D01*
X289655661Y-143745073D02*
X289632421Y-143752937D01*
X289450705Y-143869070D02*
X289434141Y-143886435D01*
X289269615Y-157697543D02*
X289243234Y-157845285D01*
X288869882Y-158796312D02*
X288791852Y-158918031D01*
X288304087Y-68023008D02*
X288304700Y-68047806D01*
X225099620Y-151992388D02*
X225086207Y-152009090D01*
X126174312Y-59424100D02*
X126177340Y-59448482D01*
X280474864Y-160240648D02*
X280449157Y-160239998D01*
X26169581Y-134256801D02*
X26148323Y-134268824D01*
X213366264Y-56677049D02*
X213387818Y-56666004D01*
X148353390Y-144423483D02*
X148355906Y-144448022D01*
X189089850Y-59262090D02*
X189101893Y-59241156D01*
X83104256Y-56333419D02*
X83115302Y-56354972D01*
X102135226Y-58669970D02*
X102144183Y-58692673D01*
X82999421Y-150870913D02*
X82999447Y-150870906D01*
X189291170Y-59060763D02*
X189312722Y-59049717D01*
X306830753Y-45180040D02*
X306872621Y-45204119D01*
X25723073Y-143608363D02*
X25704186Y-143623209D01*
X20954907Y-50059610D02*
X20954907Y-68522894D01*
X306651506Y-45104306D02*
X306697959Y-45120027D01*
X288293936Y-59397119D02*
X288298330Y-59421724D01*
X83015614Y-54540825D02*
X83024570Y-54563521D01*
X189101893Y-59241156D02*
X189114901Y-59220873D01*
X213218828Y-56798672D02*
X213234535Y-56780530D01*
X25914751Y-134599851D02*
X25910541Y-134624011D01*
X25902489Y-143273771D02*
X25899307Y-143298774D01*
X280350000Y-160224919D02*
X280326285Y-160218187D01*
X64874937Y-129599183D02*
X64858388Y-129581825D01*
X270400645Y-134051195D02*
X270383536Y-134033219D01*
X8472602Y-49983410D02*
X8427992Y-49963630D01*
X83065091Y-56217474D02*
X83070677Y-56241649D01*
X45957591Y-54685994D02*
X45960618Y-54661611D01*
X140353513Y-59020410D02*
X140376756Y-59028275D01*
X270352285Y-133995097D02*
X270338177Y-133975031D01*
X307025304Y-170317781D02*
X307061198Y-170351938D01*
X102305761Y-58898652D02*
X102325362Y-58912585D01*
X174747909Y-59068783D02*
X174769198Y-59056760D01*
X126219093Y-66692446D02*
X126229110Y-66714586D01*
X189029475Y-59500273D02*
X189030126Y-59474567D01*
X289364561Y-143984281D02*
X289353513Y-144005834D01*
X7877704Y-143371267D02*
X7870972Y-143347554D01*
X188554380Y-66997228D02*
X188579005Y-66995399D01*
X306987921Y-170285577D02*
X307025304Y-170317781D01*
X174617852Y-59181025D02*
X174633932Y-59162300D01*
X8095855Y-68595312D02*
X8116788Y-68583269D01*
X25505871Y-143712417D02*
X25481266Y-143716817D01*
X189114901Y-59220873D02*
X189128844Y-59201273D01*
X230953661Y-131717094D02*
X230934060Y-131731027D01*
X136581846Y-59007598D02*
X136606007Y-59003388D01*
X224896900Y-152148731D02*
X224876416Y-152156795D01*
X179024173Y-59424100D02*
X179027201Y-59448482D01*
X307348546Y-68949075D02*
X307351573Y-68973457D01*
X279990707Y-159865744D02*
X279985120Y-159841553D01*
X270383536Y-134033219D02*
X270367411Y-134014507D01*
X7915919Y-45715559D02*
X7933824Y-45670140D01*
X307170900Y-68636063D02*
X307189614Y-68652188D01*
X64653564Y-129457927D02*
X64629837Y-129451194D01*
X136157480Y-66646529D02*
X136164213Y-66622815D01*
X7865393Y-143323379D02*
X7860999Y-143298774D01*
X289434141Y-143886435D02*
X289418418Y-143904577D01*
X306691447Y-170117728D02*
X306736953Y-170135294D01*
X178786394Y-59068783D02*
X178807075Y-59081857D01*
X188698131Y-66968603D02*
X188720874Y-66959829D01*
X307352713Y-46007998D02*
X307354014Y-46059473D01*
X136488543Y-59035930D02*
X136511287Y-59027156D01*
X224855474Y-152163984D02*
X224834092Y-152170273D01*
X82998828Y-150871256D02*
X82998860Y-150871255D01*
X178991629Y-59306643D02*
X179000404Y-59329400D01*
X45752617Y-58899872D02*
X45772043Y-58884748D01*
X145008445Y-161765601D02*
X144984528Y-161770484D01*
X126653961Y-66997190D02*
X126679667Y-66997841D01*
X102604769Y-58997919D02*
X111254855Y-58997919D01*
X288333318Y-68191559D02*
X288342089Y-68214302D01*
X231094173Y-131554813D02*
X231082130Y-131575747D01*
X26107574Y-134296005D02*
X26088164Y-134311129D01*
X8138343Y-68572223D02*
X8160489Y-68562207D01*
X225349604Y-131962755D02*
X225332496Y-131980736D01*
X7933824Y-174448255D02*
X7915919Y-174402836D01*
X8230150Y-68538644D02*
X8254342Y-68533058D01*
X230680377Y-131815712D02*
X230654673Y-131816362D01*
X225203196Y-151687578D02*
X225202689Y-151710226D01*
X189051967Y-59351699D02*
X189059831Y-59328479D01*
X232008183Y-56470183D02*
X232024740Y-56452818D01*
X288174263Y-59161774D02*
X288189972Y-59179916D01*
X270010981Y-129505978D02*
X269989724Y-129493956D01*
X7855243Y-46059473D02*
X7856544Y-46007998D01*
X225009047Y-152083302D02*
X224991737Y-152096116D01*
X144935743Y-161776734D02*
X144910948Y-161778049D01*
X82998996Y-150871223D02*
X82999019Y-150871212D01*
X45954536Y-58522833D02*
X45955149Y-58498035D01*
X232148909Y-56192868D02*
X232152090Y-56167865D01*
X269352147Y-58795416D02*
X269367268Y-58814826D01*
X270259693Y-133771558D02*
X270256664Y-133747146D01*
X270239169Y-129813142D02*
X270232645Y-129789610D01*
X102094705Y-57015875D02*
X102099104Y-57040480D01*
X232459917Y-54274742D02*
X232482622Y-54265786D01*
X8018959Y-143592645D02*
X8001601Y-143576088D01*
X306878931Y-68523507D02*
X306903554Y-68525336D01*
X288231743Y-59238686D02*
X288243776Y-59259620D01*
X232132182Y-56265362D02*
X232138923Y-56241649D01*
X287829915Y-58998570D02*
X287855312Y-59000502D01*
X46455035Y-54235430D02*
X82555041Y-54235430D01*
X279925691Y-134480705D02*
X279914657Y-134459150D01*
X307309059Y-174356364D02*
X307293339Y-174402836D01*
X307295172Y-68787497D02*
X307306130Y-68809311D01*
X270254222Y-133697725D02*
X270254222Y-129934999D01*
X136326350Y-59144320D02*
X136344327Y-59127211D01*
X25865759Y-143417183D02*
X25855742Y-143439323D01*
X270275808Y-133843112D02*
X270269281Y-133819581D01*
X8256935Y-170257799D02*
X8296145Y-170229918D01*
X306975983Y-68537949D02*
X306999512Y-68544474D01*
X102553692Y-58995340D02*
X102579063Y-58997269D01*
X82999396Y-150870921D02*
X82999421Y-150870913D01*
X166915357Y-144242485D02*
X166928008Y-144221256D01*
X279793117Y-134311707D02*
X279774235Y-134296871D01*
X7857822Y-143273771D02*
X7855893Y-143248401D01*
X270051729Y-129533158D02*
X270031663Y-129519051D01*
X145100095Y-161734930D02*
X145077858Y-161744218D01*
X231176131Y-129789610D02*
X231169606Y-129813142D01*
X7860141Y-49158349D02*
X7856473Y-49109088D01*
X307310852Y-170768370D02*
X307323903Y-170815463D01*
X169867325Y-161507818D02*
X169856569Y-161485626D01*
X45976728Y-54590078D02*
X45984385Y-54566912D01*
X8075573Y-68608321D02*
X8095855Y-68595312D01*
X102127361Y-58646739D02*
X102135226Y-58669970D01*
X279475077Y-134197603D02*
X270754100Y-134197603D01*
X83055578Y-56142495D02*
X83057510Y-56167865D01*
X44690514Y-134138960D02*
X44668720Y-134149925D01*
X8055976Y-143623209D02*
X8037094Y-143608363D01*
X230913778Y-131744025D02*
X230892844Y-131756057D01*
X212821473Y-58948650D02*
X212843026Y-58937615D01*
X7855243Y-143222696D02*
X7855243Y-69022779D01*
X64932411Y-129676080D02*
X64919413Y-129655799D01*
X231132058Y-131465177D02*
X231124193Y-131488408D01*
X25963914Y-134462468D02*
X25952957Y-134484262D01*
X8855365Y-45059350D02*
X306354228Y-45059350D01*
X212604838Y-58997919D02*
X212630545Y-58997269D01*
X83154297Y-56415789D02*
X83169143Y-56434676D01*
X147994205Y-144005999D02*
X148018272Y-144013476D01*
X288619156Y-159148979D02*
X288524868Y-159257830D01*
X102204243Y-58797186D02*
X102219089Y-58816068D01*
X148280170Y-144220169D02*
X148292494Y-144240764D01*
X8336723Y-174914276D02*
X8296145Y-174888265D01*
X279713424Y-134257908D02*
X279691869Y-134246873D01*
X231485882Y-129464354D02*
X231463139Y-129473127D01*
X44455138Y-134197962D02*
X26404958Y-134197962D01*
X287196323Y-160105785D02*
X287053958Y-160146208D01*
X102104869Y-57116560D02*
X102104869Y-58498035D01*
X126179782Y-59497805D02*
X126179782Y-66497955D01*
X65007204Y-150208670D02*
X65005365Y-150184088D01*
X288083736Y-59083345D02*
X288103335Y-59097289D01*
X287904963Y-59008083D02*
X287929155Y-59013669D01*
X232482622Y-54265786D02*
X232505854Y-54257921D01*
X289068438Y-158408434D02*
X289008363Y-158541325D01*
X286761072Y-160206085D02*
X286610928Y-160225161D01*
X307306130Y-68809311D02*
X307316005Y-68831618D01*
X82999537Y-150870897D02*
X65711715Y-150866312D01*
X189312722Y-59049717D02*
X189334861Y-59039700D01*
X306854136Y-143722582D02*
X300953929Y-143722582D01*
X279914657Y-134459150D02*
X279902626Y-134438216D01*
X307295536Y-49396702D02*
X307277987Y-49442206D01*
X65014477Y-150257192D02*
X65010248Y-150233051D01*
X26051474Y-134344362D02*
X26034366Y-134362338D01*
X166851265Y-144476028D02*
X166852412Y-144451585D01*
X102479906Y-58982190D02*
X102504082Y-58987769D01*
X174510074Y-59424100D02*
X174514304Y-59399958D01*
X25819644Y-143502092D02*
X25805701Y-143521693D01*
X126179782Y-66497955D02*
X126180433Y-66523661D01*
X307025304Y-49800673D02*
X306987921Y-49832933D01*
X8329391Y-143721931D02*
X8303993Y-143719999D01*
X174500068Y-142365997D02*
X174502557Y-142343834D01*
X179294160Y-66938998D02*
X179315954Y-66949955D01*
X169824472Y-161390527D02*
X169819361Y-161365297D01*
X140722640Y-142430721D02*
X140728844Y-142451629D01*
X169856569Y-161485626D02*
X169846869Y-161462775D01*
X231105219Y-131533257D02*
X231094173Y-131554813D01*
X307186129Y-170504332D02*
X307212277Y-170545725D01*
X7856544Y-46007998D02*
X7860405Y-45957200D01*
X188826957Y-66899794D02*
X188846366Y-66884670D01*
X270124938Y-129599492D02*
X270107829Y-129581514D01*
X102251364Y-58851561D02*
X102268730Y-58868109D01*
X288351960Y-68236590D02*
X288362914Y-68258384D01*
X8303993Y-143719999D02*
X8278966Y-143716817D01*
X166893377Y-144286449D02*
X166903809Y-144264230D01*
X289334537Y-144050670D02*
X289326671Y-144073891D01*
X8148136Y-45352243D02*
X8182867Y-45319130D01*
X212630545Y-58997269D02*
X212655916Y-58995340D01*
X231730873Y-56610910D02*
X231755478Y-56606510D01*
X45040358Y-129655799D02*
X45027360Y-129676080D01*
X212940874Y-58868109D02*
X212958239Y-58851561D01*
X136182385Y-59448482D02*
X136185413Y-59424100D01*
X280024288Y-159957549D02*
X280014271Y-159935404D01*
X279669724Y-134236867D02*
X279647020Y-134227920D01*
X65002169Y-129884223D02*
X64998992Y-129859195D01*
X307061156Y-174766151D02*
X307026432Y-174799265D01*
X231871421Y-56567345D02*
X231892973Y-56556299D01*
X65455077Y-150795444D02*
X65434396Y-150782370D01*
X288212498Y-159555635D02*
X288099169Y-159644692D01*
X179480113Y-66995399D02*
X179504738Y-66997228D01*
X306952120Y-68532573D02*
X306975983Y-68537949D01*
X8000012Y-45540830D02*
X8026023Y-45500253D01*
X231192561Y-129743709D02*
X231183788Y-129766452D01*
X189032058Y-59449197D02*
X189035240Y-59424193D01*
X136466254Y-59045804D02*
X136488543Y-59035930D01*
X82834440Y-54320857D02*
X82854041Y-54334800D01*
X175004817Y-58997919D02*
X178529765Y-58997919D01*
X26935511Y-59326009D02*
X26944457Y-59303313D01*
X83044762Y-54634631D02*
X83049162Y-54659236D01*
X8336723Y-45204119D02*
X8378605Y-45180040D01*
X306825141Y-170176977D02*
X306867658Y-170201025D01*
X46357039Y-54245109D02*
X46381199Y-54240899D01*
X64858388Y-129581825D02*
X64841031Y-129565277D01*
X231183788Y-129766452D02*
X231176131Y-129789610D01*
X136033583Y-66851350D02*
X136050132Y-66833985D01*
X140255910Y-59000502D02*
X140280943Y-59003684D01*
X102504082Y-58987769D02*
X102528688Y-58992163D01*
X289304179Y-157240641D02*
X289300276Y-157395032D01*
X167264186Y-143994928D02*
X174091471Y-142791246D01*
X232336521Y-54349646D02*
X232355403Y-54334800D01*
X8303993Y-68525477D02*
X8329391Y-68523545D01*
X126033374Y-59144320D02*
X126050482Y-59162300D01*
X288450450Y-68376492D02*
X288468426Y-68393600D01*
X8564469Y-50016339D02*
X8518122Y-50000991D01*
X45808749Y-58851515D02*
X45825856Y-58833539D01*
X8329391Y-68523545D02*
X8355128Y-68522894D01*
X174456865Y-142512018D02*
X174465658Y-142492301D01*
X83085283Y-56288583D02*
X83094239Y-56311279D01*
X166855108Y-144549677D02*
X166852603Y-144525117D01*
X148356047Y-144523030D02*
X148353539Y-144548375D01*
X27004461Y-59198803D02*
X27019297Y-59179916D01*
X178721057Y-59035930D02*
X178743345Y-59045804D01*
X65088835Y-150436609D02*
X65075770Y-150415906D01*
X8018959Y-68652828D02*
X8037094Y-68637111D01*
X307310852Y-49350365D02*
X307295536Y-49396702D01*
X170200109Y-161765803D02*
X170176557Y-161759798D01*
X269367268Y-58814826D02*
X269383389Y-58833539D01*
X269418474Y-58868623D02*
X269437199Y-58884748D01*
X279997448Y-159889471D02*
X279990707Y-159865744D01*
X268967804Y-54283316D02*
X268989594Y-54294272D01*
X26844819Y-68261349D02*
X26855865Y-68239793D01*
X213165032Y-56878376D02*
X213177064Y-56857443D01*
X306354228Y-50059610D02*
X300953929Y-50059610D01*
X102366580Y-58937615D02*
X102388133Y-58948650D01*
X232144509Y-56217474D02*
X232148909Y-56192868D01*
X270263904Y-133795716D02*
X270259693Y-133771558D01*
X270418622Y-134068304D02*
X270400645Y-134051195D01*
X46286483Y-54264668D02*
X46309641Y-54257010D01*
X45668733Y-58950033D02*
X45690547Y-58939076D01*
X174668959Y-59127211D02*
X174687683Y-59111087D01*
X26910950Y-59421724D02*
X26915344Y-59397119D01*
X225172235Y-151861019D02*
X225164282Y-151881167D01*
X289309944Y-144146386D02*
X289306762Y-144171390D01*
X307293710Y-143460876D02*
X307281678Y-143481809D01*
X188981578Y-66711536D02*
X188991454Y-66689248D01*
X306954919Y-143712417D02*
X306930295Y-143716817D01*
X46026012Y-54478753D02*
X46039085Y-54458049D01*
X7900198Y-174356364D02*
X7886723Y-174308901D01*
X213455895Y-56639166D02*
X213479621Y-56632425D01*
X189211469Y-59114604D02*
X189230356Y-59099758D01*
X189230356Y-59099758D02*
X189249956Y-59085815D01*
X289243234Y-157845285D02*
X289209737Y-157990433D01*
X307277987Y-170676502D02*
X307295536Y-170722022D01*
X44884161Y-133954622D02*
X44871088Y-133975331D01*
X232105344Y-56333419D02*
X232115361Y-56311279D01*
X289728226Y-143728346D02*
X289703595Y-143732746D01*
X44871088Y-133975331D02*
X44856981Y-133995420D01*
X82998860Y-150871255D02*
X82998891Y-150871252D01*
X307353401Y-68998040D02*
X307354014Y-69022779D01*
X82969499Y-54455916D02*
X82982508Y-54476199D01*
X45504586Y-58995477D02*
X45528969Y-58992450D01*
X101729853Y-56632425D02*
X101753566Y-56639166D01*
X232115361Y-56311279D02*
X232124317Y-56288583D01*
X126164726Y-59376100D02*
X126170102Y-59399958D01*
X279972376Y-134646355D02*
X279969200Y-134621328D01*
X7855243Y-171059259D02*
X7856544Y-171007785D01*
X279969200Y-134621328D02*
X279964807Y-134596703D01*
X25855742Y-143439323D02*
X25844696Y-143460876D01*
X279935696Y-134502850D02*
X279925691Y-134480705D01*
X169830784Y-161415200D02*
X169824472Y-161390527D01*
X225386300Y-131929524D02*
X225367584Y-131945648D01*
X288362914Y-68258384D02*
X288374934Y-68279642D01*
X26643493Y-68462590D02*
X26664426Y-68450558D01*
X307343075Y-170911561D02*
X307349130Y-170960402D01*
X213005360Y-58797186D02*
X213019304Y-58777588D01*
X44896184Y-133933334D02*
X44884161Y-133954622D01*
X82872928Y-54349646D02*
X82891070Y-54365364D01*
X213153998Y-56899929D02*
X213165032Y-56878376D01*
X27035004Y-59161774D02*
X27051553Y-59144409D01*
X83024570Y-54563521D02*
X83032435Y-54586742D01*
X45925911Y-58666585D02*
X45933569Y-58643427D01*
X300953929Y-143722582D02*
X300953929Y-170059137D01*
X145055147Y-161752442D02*
X145031997Y-161759578D01*
X179029030Y-59473065D02*
X179029643Y-59497805D01*
X101799483Y-56655987D02*
X101821623Y-56666004D01*
X289679397Y-143738332D02*
X289655661Y-143745073D01*
X111254855Y-50059610D02*
X20954907Y-50059610D01*
X179127693Y-66795337D02*
X179142817Y-66814747D01*
X231024613Y-131652644D02*
X231008055Y-131670002D01*
X288321350Y-159461347D02*
X288212498Y-159555635D01*
X140707024Y-142343834D02*
X140709509Y-142365997D01*
X148064569Y-144031782D02*
X148086748Y-144042537D01*
X65151149Y-150512827D02*
X65134099Y-150494846D01*
X307110744Y-68593759D02*
X307131425Y-68606832D01*
X65662290Y-150863870D02*
X65637877Y-150860842D01*
X231357043Y-129533158D02*
X231337629Y-129548281D01*
X7860405Y-170956988D02*
X7866764Y-170906929D01*
X212884243Y-58912585D02*
X212903844Y-58898652D01*
X65118018Y-150476121D02*
X65102924Y-150456695D01*
X8115023Y-170386763D02*
X8148136Y-170352032D01*
X140689261Y-59372944D02*
X140694848Y-59397119D01*
X189453264Y-59006152D02*
X189478266Y-59002970D01*
X102110634Y-58574196D02*
X102115033Y-58598821D01*
X136177363Y-66549031D02*
X136179292Y-66523661D01*
X82555041Y-54235430D02*
X82580747Y-54236081D01*
X83529106Y-56616023D02*
X83554812Y-56616674D01*
X126441481Y-66937466D02*
X126463033Y-66948511D01*
X213604594Y-56616674D02*
X231654795Y-56616674D01*
X225332496Y-131980736D02*
X225316371Y-131999461D01*
X306952384Y-45258011D02*
X306990154Y-45287699D01*
X288122218Y-59112135D02*
X288140355Y-59127852D01*
X8427992Y-49963630D02*
X8384374Y-49941685D01*
X231849281Y-56577362D02*
X231871421Y-56567345D01*
X7931399Y-49442206D02*
X7913832Y-49396702D01*
X213190061Y-56837160D02*
X213203993Y-56817559D01*
X44623688Y-134168607D02*
X44600531Y-134176286D01*
X83478733Y-56610910D02*
X83503736Y-56614091D01*
X225155489Y-151900894D02*
X225145875Y-151920177D01*
X145288370Y-161589163D02*
X145272878Y-161607688D01*
X306645110Y-50016339D02*
X306598023Y-50029418D01*
X179000404Y-59329400D02*
X179008062Y-59352567D01*
X82679901Y-54251180D02*
X82703615Y-54257921D01*
X140704361Y-59472099D02*
X140705012Y-59497805D01*
X7875558Y-170857673D02*
X7886723Y-170809283D01*
X280074332Y-160039915D02*
X280060388Y-160020318D01*
X280121455Y-160094290D02*
X280104897Y-160076932D01*
X26944457Y-59303313D02*
X26954463Y-59281173D01*
X232157252Y-54684240D02*
X232160429Y-54659236D01*
X26790978Y-68341043D02*
X26805824Y-68322161D01*
X287998818Y-59037231D02*
X288020963Y-59047248D01*
X140808472Y-142603459D02*
X140821877Y-142620152D01*
X140712953Y-142387881D02*
X140717337Y-142409464D01*
X167146840Y-144031055D02*
X167169405Y-144021600D01*
X231154551Y-131316469D02*
X231153900Y-131342207D01*
X64699499Y-129474728D02*
X64676795Y-129465782D01*
X44771932Y-134084685D02*
X44752521Y-134099779D01*
X306867658Y-170201025D02*
X306909016Y-170227164D01*
X231680500Y-56616023D02*
X231705870Y-56614091D01*
X126170102Y-59399958D02*
X126174312Y-59424100D01*
X178827140Y-59095963D02*
X178846549Y-59111087D01*
X188970620Y-66733330D02*
X188981578Y-66711536D01*
X270608723Y-134176022D02*
X270585568Y-134168364D01*
X307258239Y-170631891D02*
X307277987Y-170676502D01*
X306403828Y-170060368D02*
X306453090Y-170064036D01*
X8803891Y-175057745D02*
X8753093Y-175053883D01*
X25975937Y-134441210D02*
X25963914Y-134462468D01*
X126293996Y-66815843D02*
X126309713Y-66833985D01*
X289486229Y-143836796D02*
X289468078Y-143852513D01*
X306645110Y-170102391D02*
X306691447Y-170117728D01*
X26899429Y-68099170D02*
X26902611Y-68074143D01*
X289804393Y-143722582D02*
X289778656Y-143723233D01*
X45136876Y-129549569D02*
X45118741Y-129565277D01*
X289343495Y-144027974D02*
X289334537Y-144050670D01*
X170248271Y-161774366D02*
X170224025Y-161770667D01*
X306905269Y-143719999D02*
X306879872Y-143721931D01*
X174218281Y-142750877D02*
X174237788Y-142741124D01*
X306781545Y-49963630D02*
X306736953Y-49983410D01*
X148292494Y-144240764D02*
X148303831Y-144261944D01*
X225124268Y-151957315D02*
X225112314Y-151975122D01*
X169952008Y-161625731D02*
X169935677Y-161608021D01*
X270216216Y-129743709D02*
X270206343Y-129721420D01*
X174502557Y-142343834D02*
X174504065Y-142321417D01*
X7885559Y-143394487D02*
X7877704Y-143371267D01*
X26621940Y-68473625D02*
X26643493Y-68462590D01*
X82771672Y-54284759D02*
X82793224Y-54295805D01*
X8182867Y-45319130D02*
X8219155Y-45287699D01*
X8206423Y-143700090D02*
X8183192Y-143692225D01*
X8378605Y-170179828D02*
X8421729Y-170157744D01*
X306999512Y-68544474D02*
X307022668Y-68552131D01*
X167192460Y-144013238D02*
X167215967Y-144005990D01*
X270254222Y-129934999D02*
X270253609Y-129910203D01*
X44752521Y-134099779D02*
X44732455Y-134113868D01*
X45772043Y-58884748D02*
X45790768Y-58868623D01*
X178579188Y-59000361D02*
X178603601Y-59003388D01*
X231440850Y-129483000D02*
X231419056Y-129493956D01*
X280005314Y-159912701D02*
X279997448Y-159889471D01*
X140916328Y-142707153D02*
X140934220Y-142719238D01*
X231629631Y-129435735D02*
X231605006Y-129437563D01*
X64982286Y-129786651D02*
X64974431Y-129763419D01*
X125957210Y-59081857D02*
X125977276Y-59095963D01*
X279964807Y-134596703D02*
X279959228Y-134572512D01*
X224991737Y-152096116D02*
X224973847Y-152108199D01*
X26127640Y-134281898D02*
X26107574Y-134296005D01*
X288099169Y-159644692D02*
X287981550Y-159728329D01*
X270224989Y-129766452D02*
X270216216Y-129743709D01*
X126120937Y-59262521D02*
X126131894Y-59284335D01*
X8378605Y-174938355D02*
X8336723Y-174914276D01*
X8115023Y-45386975D02*
X8148136Y-45352243D01*
X46084441Y-54399813D02*
X46101550Y-54381833D01*
X288730227Y-68517425D02*
X288754611Y-68520452D01*
X64743200Y-129495770D02*
X64721645Y-129484735D01*
X7866764Y-174211254D02*
X7860405Y-174161196D01*
X140991187Y-142750877D02*
X141011206Y-142759806D01*
X166941752Y-144200586D02*
X166956437Y-144180627D01*
X231953790Y-56517304D02*
X231972676Y-56502458D01*
X83057510Y-56167865D02*
X83060691Y-56192868D01*
X8023269Y-49614268D02*
X7997130Y-49572910D01*
X136080675Y-66796955D02*
X136094607Y-66777355D01*
X44970752Y-129810378D02*
X44965174Y-129834570D01*
X225605103Y-131826041D02*
X225581239Y-131831416D01*
X288708214Y-159035650D02*
X288619156Y-159148979D01*
X8254342Y-143712417D02*
X8230150Y-143706831D01*
X8219155Y-45287699D02*
X8256935Y-45258011D01*
X169819361Y-161365297D02*
X166858851Y-144574190D01*
X279974305Y-134671752D02*
X279972376Y-134646355D01*
X231138800Y-131441449D02*
X231132058Y-131465177D01*
X293754466Y-170059137D02*
X293754466Y-143722582D01*
X213479621Y-56632425D02*
X213503812Y-56626839D01*
X126180433Y-66523661D02*
X126182365Y-66549031D01*
X44939970Y-133819662D02*
X44933445Y-133843223D01*
X279647020Y-134227920D02*
X279623789Y-134220065D01*
X174091471Y-142791246D02*
X174113669Y-142786798D01*
X140632583Y-59238686D02*
X140644629Y-59259620D01*
X306598023Y-50029418D02*
X306550269Y-50040197D01*
X125893477Y-59045804D02*
X125915270Y-59056760D01*
X25553759Y-143700090D02*
X25530046Y-143706831D01*
X270071138Y-129548281D02*
X270051729Y-129533158D01*
X307334655Y-170863221D02*
X307343075Y-170911561D01*
X179035113Y-66571790D02*
X179039323Y-66595949D01*
X307022668Y-68552131D02*
X307045409Y-68560905D01*
X269754344Y-129435122D02*
X231654429Y-129435122D01*
X179384143Y-66976261D02*
X179407675Y-66982786D01*
X288301508Y-59446728D02*
X288303437Y-59472099D01*
X225212876Y-132218393D02*
X225208666Y-132242535D01*
X45940094Y-58619895D02*
X45945470Y-58596030D01*
X82999350Y-150870941D02*
X82999372Y-150870930D01*
X136179942Y-59497805D02*
X136180555Y-59473065D01*
X45054291Y-129636201D02*
X45040358Y-129655799D01*
X307026067Y-143692225D02*
X307002836Y-143700090D01*
X307183247Y-174618142D02*
X307155370Y-174657352D01*
X46039085Y-54458049D02*
X46053192Y-54437963D01*
X20954907Y-143722582D02*
X20954907Y-170059137D01*
X307268680Y-143502092D02*
X307254747Y-143521693D01*
X269518704Y-58939076D02*
X269540521Y-58950033D01*
X270254835Y-133722522D02*
X270254222Y-133697725D01*
X25952957Y-134484262D02*
X25943083Y-134506551D01*
X268945517Y-54273442D02*
X268967804Y-54283316D01*
X232082255Y-56375905D02*
X232094298Y-56354972D01*
X136195001Y-59376100D02*
X136201527Y-59352567D01*
X178554563Y-58998532D02*
X178579188Y-59000361D01*
X8421729Y-170157744D02*
X8466032Y-170137719D01*
X126628590Y-66995258D02*
X126653961Y-66997190D01*
X25456262Y-143719999D02*
X25430892Y-143721931D01*
X179142817Y-66814747D02*
X179158942Y-66833460D01*
X126531091Y-66975349D02*
X126554805Y-66982090D01*
X225287139Y-132038973D02*
X225274065Y-132059677D01*
X300953929Y-68522894D02*
X306854136Y-68522894D01*
X27019297Y-59179916D02*
X27035004Y-59161774D01*
X126343635Y-66867907D02*
X126361777Y-66883624D01*
X136201527Y-59352567D02*
X136209186Y-59329400D01*
X307061198Y-49766452D02*
X307025304Y-49800673D01*
X231803365Y-56594183D02*
X231826586Y-56586318D01*
X27051553Y-59144409D02*
X27068910Y-59127852D01*
X8148136Y-170352032D02*
X8182867Y-170318919D01*
X231419056Y-129493956D02*
X231397797Y-129505978D01*
X269283342Y-58666585D02*
X269292117Y-58689328D01*
X7857822Y-68971703D02*
X7860999Y-68946700D01*
X268922776Y-54264668D02*
X268945517Y-54273442D01*
X126177340Y-59448482D02*
X126179168Y-59473065D01*
X102074514Y-56944765D02*
X102082378Y-56967986D01*
X136382452Y-59095963D02*
X136402519Y-59081857D01*
X231156993Y-129885578D02*
X231155165Y-129910203D01*
X82908436Y-54381921D02*
X82924993Y-54399286D01*
X269989724Y-129493956D02*
X269967931Y-129483000D01*
X269251658Y-54685994D02*
X269253487Y-54710576D01*
X212705525Y-58987769D02*
X212729701Y-58982190D01*
X307092470Y-143662205D02*
X307070915Y-143673251D01*
X306903554Y-68525336D02*
X306927964Y-68528363D01*
X64965485Y-129740715D02*
X64955478Y-129718570D01*
X7915919Y-170715347D02*
X7933824Y-170669928D01*
X148252662Y-144180874D02*
X148266885Y-144200193D01*
X225489518Y-131864244D02*
X225467724Y-131875200D01*
X179029643Y-66497955D02*
X179030256Y-66522753D01*
X45175355Y-129520800D02*
X45155758Y-129534733D01*
X45690547Y-58939076D02*
X45711827Y-58927053D01*
X232253937Y-54436315D02*
X232268772Y-54417428D01*
X231069120Y-131596029D02*
X231055177Y-131615626D01*
X45528969Y-58992450D02*
X45553111Y-58988240D01*
X111254855Y-58997919D02*
X111254855Y-50059610D01*
X8518122Y-50000991D02*
X8472602Y-49983410D01*
X145183572Y-161687657D02*
X145163596Y-161700943D01*
X45238126Y-129484735D02*
X45216571Y-129495770D01*
X45955149Y-54735316D02*
X45955763Y-54710576D01*
X7898496Y-49350365D02*
X7885424Y-49303280D01*
X25920127Y-134575985D02*
X25914751Y-134599851D01*
X27068910Y-59127852D02*
X27087046Y-59112135D01*
X270540540Y-134149716D02*
X270518749Y-134138759D01*
X288303437Y-59472099D02*
X288304087Y-59497805D01*
X306979110Y-143706831D02*
X306954919Y-143712417D01*
X280215738Y-160168312D02*
X280195454Y-160155314D01*
X7875558Y-174260510D02*
X7866764Y-174211254D01*
X7975933Y-174535682D02*
X7953849Y-174492558D01*
X307270072Y-68745513D02*
X307283147Y-68766217D01*
X306506468Y-45070872D02*
X306555699Y-45079665D01*
X141074073Y-142781406D02*
X141095900Y-142786798D01*
X26895030Y-68123795D02*
X26899429Y-68099170D01*
X288402107Y-68320391D02*
X288417227Y-68339801D01*
X136065839Y-66815843D02*
X136080675Y-66796955D01*
X102044497Y-56878376D02*
X102055542Y-56899929D01*
X8511451Y-170119814D02*
X8557924Y-170104093D01*
X136444460Y-59056760D02*
X136466254Y-59045804D01*
X307351573Y-68973457D02*
X307353401Y-68998040D01*
X135918397Y-66937466D02*
X135939331Y-66925422D01*
X8653778Y-45079665D02*
X8703034Y-45070872D01*
X45857104Y-58795416D02*
X45871210Y-58775350D01*
X306781545Y-170155055D02*
X306825141Y-170176977D01*
X145377775Y-161414851D02*
X145370297Y-161438942D01*
X65498128Y-150818425D02*
X65476335Y-150807467D01*
X307332436Y-68877542D02*
X307338961Y-68901075D01*
X288779194Y-68522281D02*
X288803935Y-68522894D01*
X231972676Y-56502458D02*
X231990818Y-56486740D01*
X8511451Y-174998369D02*
X8466032Y-174980464D01*
X65026421Y-150304582D02*
X65019874Y-150281050D01*
X65010248Y-150233051D02*
X65007204Y-150208670D01*
X83503736Y-56614091D02*
X83529106Y-56616023D01*
X213251082Y-56763165D02*
X213268439Y-56746608D01*
X148353539Y-144548375D02*
X148349711Y-144573832D01*
X26069451Y-134327253D02*
X26051474Y-134344362D01*
X179158942Y-66833460D02*
X179176051Y-66851437D01*
X26018241Y-134381051D02*
X26003117Y-134400461D01*
X82924993Y-54399286D02*
X82940710Y-54417428D01*
X45195637Y-129507802D02*
X45175355Y-129520800D01*
X307275436Y-174448255D02*
X307255412Y-174492558D01*
X13755083Y-170059137D02*
X13755083Y-143722582D01*
X82580747Y-54236081D02*
X82606117Y-54238013D01*
X126050482Y-59162300D02*
X126066607Y-59181025D01*
X82994551Y-54497132D02*
X83005597Y-54518685D01*
X189000230Y-66666505D02*
X189007889Y-66643347D01*
X148323439Y-144305907D02*
X148331660Y-144328619D01*
X189027032Y-66547378D02*
X189028862Y-66522753D01*
X65004098Y-129909621D02*
X65002169Y-129884223D01*
X8081684Y-49693173D02*
X8051465Y-49654383D01*
X45646426Y-58959907D02*
X45668733Y-58950033D01*
X288140355Y-59127852D02*
X288157714Y-59144409D01*
X288304700Y-68047806D02*
X288306529Y-68072432D01*
X270632253Y-134182547D02*
X270608723Y-134176022D01*
X306550269Y-170078546D02*
X306598023Y-170089319D01*
X269729268Y-58997306D02*
X269754008Y-58997919D01*
X279551243Y-134203360D02*
X279526215Y-134200182D01*
X83060691Y-56192868D02*
X83065091Y-56217474D01*
X46263740Y-54273442D02*
X46286483Y-54264668D01*
X307183247Y-45500253D02*
X307209255Y-45540830D01*
X279980720Y-159816929D02*
X279977539Y-159791903D01*
X307172163Y-143608363D02*
X307153281Y-143623209D01*
X196254679Y-58999681D02*
X196254679Y-50059610D01*
X102528688Y-58992163D02*
X102553692Y-58995340D01*
X270325102Y-133954350D02*
X270313077Y-133933092D01*
X169879101Y-161529328D02*
X169867325Y-161507818D01*
X232505854Y-54257921D02*
X232529581Y-54251180D01*
X169987037Y-161658620D02*
X169969140Y-161642606D01*
X83429952Y-56600924D02*
X83454128Y-56606510D01*
X270156186Y-129637617D02*
X270141062Y-129618206D01*
X44646432Y-134159814D02*
X44623688Y-134168607D01*
X145370297Y-161438942D02*
X145361689Y-161462427D01*
X287880338Y-59003684D02*
X287904963Y-59008083D01*
X289314343Y-144121781D02*
X289309944Y-144146386D01*
X145389201Y-161364946D02*
X145384089Y-161390177D01*
X174882878Y-59012974D02*
X174906771Y-59007598D01*
X7913832Y-49396702D02*
X7898496Y-49350365D01*
X178883235Y-59144320D02*
X178900344Y-59162300D01*
X306990154Y-45287699D02*
X307026432Y-45319130D01*
X45970203Y-54613612D02*
X45976728Y-54590078D01*
X8083591Y-174695133D02*
X8053903Y-174657352D01*
X231160021Y-129861166D02*
X231156993Y-129885578D01*
X269232522Y-54590078D02*
X269239046Y-54613612D01*
X179232152Y-66899794D02*
X179252219Y-66913901D01*
X126361777Y-66883624D02*
X126380664Y-66898470D01*
X307233331Y-174535682D02*
X307209255Y-174577564D01*
X145163596Y-161700943D02*
X145143001Y-161713268D01*
X64998992Y-129859195D02*
X64994598Y-129834570D01*
X7855893Y-143248401D02*
X7855243Y-143222696D01*
X286610928Y-160225161D02*
X286458567Y-160236745D01*
X280156964Y-160126546D02*
X280138821Y-160110838D01*
X25530046Y-143706831D02*
X25505871Y-143712417D01*
X279974955Y-134697489D02*
X279974305Y-134671752D01*
X46381199Y-54240899D02*
X46405611Y-54237872D01*
X288658688Y-68501314D02*
X288682223Y-68507839D01*
X7885559Y-68850985D02*
X7894506Y-68828289D01*
X8605387Y-175027565D02*
X8557924Y-175014090D01*
X306651506Y-175014090D02*
X306604066Y-175027565D01*
X45790768Y-58868623D02*
X45808749Y-58851515D01*
X269051590Y-54333476D02*
X269070996Y-54348600D01*
X65005365Y-150184088D02*
X65004748Y-150159349D01*
X25899307Y-143298774D02*
X25894907Y-143323379D01*
X170398616Y-161770655D02*
X170373160Y-161774484D01*
X46405611Y-54237872D02*
X46430237Y-54236043D01*
X231318911Y-129564406D02*
X231300929Y-129581514D01*
X231377112Y-129519051D02*
X231357043Y-129533158D01*
X178807075Y-59081857D02*
X178827140Y-59095963D01*
X125871189Y-59035930D02*
X125893477Y-59045804D01*
X178916469Y-59181025D02*
X178931593Y-59200451D01*
X189404487Y-59016138D02*
X189428661Y-59010552D01*
X83255812Y-56517304D02*
X83275413Y-56531247D01*
X148331660Y-144328619D02*
X148338791Y-144351769D01*
X64605645Y-129445615D02*
X64581020Y-129441221D01*
X126185546Y-66574035D02*
X126189946Y-66598640D01*
X230972548Y-131702258D02*
X230953661Y-131717094D01*
X83338182Y-56567345D02*
X83360322Y-56577362D01*
X232318385Y-54365364D02*
X232336521Y-54349646D01*
X101990658Y-56798672D02*
X102005503Y-56817559D01*
X288568638Y-68464052D02*
X288590453Y-68475009D01*
X225557708Y-131837941D02*
X225534550Y-131845598D01*
X307275436Y-45670140D02*
X307293339Y-45715559D01*
X270206343Y-129721420D02*
X270195387Y-129699626D01*
X178945700Y-59220537D02*
X178958774Y-59241241D01*
X287335719Y-160058623D02*
X287196323Y-160105785D01*
X307323903Y-170815463D02*
X307334655Y-170863221D01*
X148349711Y-144573832D02*
X145389201Y-161364946D01*
X83070677Y-56241649D02*
X83077418Y-56265362D01*
X83201418Y-56470183D02*
X83218783Y-56486740D01*
X8703034Y-175047524D02*
X8653778Y-175038731D01*
X25989010Y-134420527D02*
X25975937Y-134441210D01*
X25621816Y-143673251D02*
X25599676Y-143683268D01*
X7875558Y-45857886D02*
X7886723Y-45809495D01*
X26904543Y-68048745D02*
X26905194Y-68023008D01*
X82703615Y-54257921D02*
X82726835Y-54265786D01*
X7973082Y-49530393D02*
X7951160Y-49486798D01*
X25599676Y-143683268D02*
X25576980Y-143692225D01*
X166858851Y-144574190D02*
X166855108Y-144549677D01*
X44576999Y-134182834D02*
X44553133Y-134188232D01*
X13755083Y-50059610D02*
X8855365Y-50059610D01*
X179455700Y-66992371D02*
X179480113Y-66995399D01*
X231124193Y-131488408D02*
X231115237Y-131511112D01*
X179014587Y-59376100D02*
X179019963Y-59399958D01*
X46177717Y-54319369D02*
X46198399Y-54306296D01*
X213203993Y-56817559D02*
X213218828Y-56798672D01*
X140305575Y-59008083D02*
X140329776Y-59013669D01*
X64974431Y-129763419D02*
X64965485Y-129740715D01*
X231654795Y-56616674D02*
X231680500Y-56616023D01*
X27379343Y-58998570D02*
X27405080Y-58997919D01*
X8557924Y-170104093D02*
X8605387Y-170090618D01*
X179338242Y-66959829D02*
X179360986Y-66968603D01*
X288254812Y-59281173D02*
X288264819Y-59303313D01*
X126189946Y-66598640D02*
X126195532Y-66622815D01*
X126252198Y-66757072D02*
X126265207Y-66777355D01*
X232301028Y-54381921D02*
X232318385Y-54365364D01*
X7860999Y-68946700D02*
X7865393Y-68922095D01*
X269275684Y-58643427D02*
X269283342Y-58666585D01*
X188651442Y-66982786D02*
X188674974Y-66976261D01*
X270031663Y-129519051D02*
X270010981Y-129505978D01*
X136557979Y-59012974D02*
X136581846Y-59007598D01*
X269899743Y-129456698D02*
X269876211Y-129450174D01*
X45069127Y-129617319D02*
X45054291Y-129636201D01*
X288218743Y-59218404D02*
X288231743Y-59238686D01*
X270456745Y-134099553D02*
X270437335Y-134084429D01*
X306913186Y-45230130D02*
X306952384Y-45258011D01*
X225232435Y-132147836D02*
X225224777Y-132171002D01*
X65589851Y-150851256D02*
X65566318Y-150844731D01*
X7927579Y-68763663D02*
X7940577Y-68743380D01*
X82749531Y-54274742D02*
X82771672Y-54284759D01*
X287976113Y-59028275D02*
X287998818Y-59037231D01*
X8466032Y-170137719D02*
X8511451Y-170119814D01*
X44668720Y-134149925D02*
X44646432Y-134159814D01*
X44504561Y-134195505D02*
X44479936Y-134197345D01*
X213094567Y-58598821D02*
X213098967Y-58574196D01*
X126603586Y-66992076D02*
X126628590Y-66995258D01*
X213107310Y-57065484D02*
X213110487Y-57040480D01*
X26213663Y-134235971D02*
X26191374Y-134245845D01*
X288189972Y-59179916D02*
X288204809Y-59198803D01*
X166851325Y-144500553D02*
X166851265Y-144476028D01*
X189007889Y-66643347D02*
X189014416Y-66619815D01*
X45015328Y-129697014D02*
X45004293Y-129718570D01*
X307127666Y-49693173D02*
X307095416Y-49730557D01*
X65102924Y-150456695D02*
X65088835Y-150436609D01*
X269292117Y-58689328D02*
X269301991Y-58711616D01*
X288803935Y-68522894D02*
X293754466Y-68522894D01*
X65052780Y-150372811D02*
X65042892Y-150350505D01*
X45841980Y-58814826D02*
X45857104Y-58795416D01*
X83406239Y-56594183D02*
X83429952Y-56600924D01*
X230779525Y-131800633D02*
X230755351Y-131806212D01*
X102286873Y-58883816D02*
X102305761Y-58898652D01*
X83275413Y-56531247D02*
X83295696Y-56544256D01*
X140835983Y-142636259D02*
X140850770Y-142651754D01*
X174373470Y-142636259D02*
X174387583Y-142620152D01*
X225025758Y-152069779D02*
X225009047Y-152083302D01*
X225678294Y-131816976D02*
X225653671Y-131818804D01*
X289753256Y-143725165D02*
X289728226Y-143728346D01*
X174533930Y-59329400D02*
X174542723Y-59306643D01*
X306550269Y-50040197D02*
X306501931Y-50048639D01*
X280280367Y-160201385D02*
X280258226Y-160191379D01*
X8256935Y-174860384D02*
X8219155Y-174830696D01*
X307295536Y-170722022D02*
X307310852Y-170768370D01*
X102165246Y-58736374D02*
X102177290Y-58757307D01*
X8296145Y-174888265D02*
X8256935Y-174860384D01*
X170130696Y-161744468D02*
X170108459Y-161735193D01*
X166868867Y-144355511D02*
X166875895Y-144332133D01*
X140421630Y-59047248D02*
X140443200Y-59058294D01*
X102268730Y-58868109D02*
X102286873Y-58883816D01*
X102190299Y-58777588D02*
X102204243Y-58797186D01*
X26905844Y-59472099D02*
X26907773Y-59446728D01*
X306604066Y-175027565D02*
X306555699Y-175038731D01*
X231213389Y-129699626D02*
X231202433Y-129721420D01*
X166903809Y-144264230D02*
X166915357Y-144242485D01*
X225112314Y-151975122D02*
X225099620Y-151992388D01*
X232155323Y-54709610D02*
X232157252Y-54684240D01*
X20954907Y-170059137D02*
X98754901Y-170059137D01*
X27166740Y-59058294D02*
X27188295Y-59047248D01*
X25874716Y-143394487D02*
X25865759Y-143417183D01*
X213032313Y-58757307D02*
X213044356Y-58736374D01*
X7915919Y-174402836D02*
X7900198Y-174356364D01*
X174177792Y-142767886D02*
X174198276Y-142759806D01*
X225301246Y-132018887D02*
X225287139Y-132038973D01*
X224936411Y-152130072D02*
X224916905Y-152139816D01*
X148221511Y-144144350D02*
X148237529Y-144162248D01*
X64822895Y-129549569D02*
X64804013Y-129534733D01*
X174496618Y-142387881D02*
X174500068Y-142365997D01*
X101705677Y-56626839D02*
X101729853Y-56632425D01*
X45949680Y-58571870D02*
X45952707Y-58547458D01*
X8182867Y-170318919D02*
X8219155Y-170287487D01*
X189193328Y-59130321D02*
X189211469Y-59114604D01*
X101843175Y-56677049D02*
X101864109Y-56689092D01*
X212990514Y-58816068D02*
X213005360Y-58797186D01*
X287604846Y-159944837D02*
X287471956Y-160004911D01*
X307113403Y-143650162D02*
X307092470Y-143662205D01*
X7933824Y-170669928D02*
X7953849Y-170625625D01*
X232284480Y-54399286D02*
X232301028Y-54381921D01*
X307255412Y-45625837D02*
X307275436Y-45670140D01*
X141031706Y-142767886D02*
X141052669Y-142775094D01*
X179194028Y-66868545D02*
X179212742Y-66884670D01*
X7886723Y-45809495D02*
X7900198Y-45762031D01*
X288374934Y-68279642D02*
X288388004Y-68300324D01*
X232024740Y-56452818D02*
X232040457Y-56434676D01*
X65476335Y-150807467D02*
X65455077Y-150795444D01*
X288468426Y-68393600D02*
X288487146Y-68409724D01*
X27405080Y-58997919D02*
X45455264Y-58997919D01*
X213088981Y-58623012D02*
X213094567Y-58598821D01*
X82998947Y-150871240D02*
X82998972Y-150871232D01*
X8183192Y-68553250D02*
X8206423Y-68545386D01*
X167082461Y-144065740D02*
X167103330Y-144053147D01*
X136363041Y-59111087D02*
X136382452Y-59095963D01*
X270141062Y-129618206D02*
X270124938Y-129599492D01*
X44841857Y-134014848D02*
X44825732Y-134033573D01*
X288020963Y-59047248D02*
X288042519Y-59058294D01*
X307131425Y-68606832D02*
X307151491Y-68620939D01*
X8260281Y-49863198D02*
X8221443Y-49832933D01*
X125996685Y-59111087D02*
X126015398Y-59127211D01*
X145384089Y-161390177D02*
X145377775Y-161414851D01*
X269400492Y-58851515D02*
X269418474Y-58868623D01*
X232227007Y-54476199D02*
X232240005Y-54455916D01*
X279977539Y-159791903D02*
X279975606Y-159766506D01*
X25934309Y-134529295D02*
X25926652Y-134552453D01*
X136227836Y-59284335D02*
X136238793Y-59262521D01*
X102099104Y-57040480D02*
X102102286Y-57065484D01*
X45004293Y-129718570D02*
X44994287Y-129740715D01*
X126420547Y-66925422D02*
X126441481Y-66937466D01*
X307354014Y-49059488D02*
X307352788Y-49109088D01*
X268852223Y-54245109D02*
X268876088Y-54250485D01*
X140376756Y-59028275D02*
X140399472Y-59037231D01*
X82631121Y-54241194D02*
X82655726Y-54245594D01*
X136130672Y-66714586D02*
X136140679Y-66692446D01*
X306949131Y-49863198D02*
X306909016Y-49891435D01*
X307354014Y-174058924D02*
X307352713Y-174110398D01*
X82998891Y-150871252D02*
X82998920Y-150871247D01*
X102154200Y-58714818D02*
X102165246Y-58736374D01*
X26907773Y-59446728D02*
X26910950Y-59421724D01*
X288526654Y-68438956D02*
X288547358Y-68452029D01*
X26905194Y-59497805D02*
X26905844Y-59472099D01*
X213120459Y-56991700D02*
X213127191Y-56967986D01*
X306453090Y-50054711D02*
X306403828Y-50058380D01*
X231300929Y-129581514D02*
X231283825Y-129599492D01*
X145361689Y-161462427D02*
X145351988Y-161485279D01*
X232553774Y-54245594D02*
X232578400Y-54241194D01*
X289565981Y-143782956D02*
X289545034Y-143794999D01*
X231040330Y-131634508D02*
X231024613Y-131652644D01*
X306354228Y-170059137D02*
X306403828Y-170060368D01*
X306952384Y-174860384D02*
X306913186Y-174888265D01*
X26882703Y-68171714D02*
X26889444Y-68147987D01*
X306743359Y-45137932D02*
X306787645Y-45157957D01*
X7940577Y-68743380D02*
X7954509Y-68723779D01*
X26306961Y-134207640D02*
X26283096Y-134213016D01*
X307323903Y-49303280D02*
X307310852Y-49350365D01*
X141118129Y-142791246D02*
X147944361Y-143994577D01*
X44528974Y-134192461D02*
X44504561Y-134195505D01*
X25882580Y-143371267D02*
X25874716Y-143394487D01*
X7953849Y-174492558D02*
X7933824Y-174448255D01*
X307354014Y-143222696D02*
X307353364Y-143248401D01*
X65543160Y-150837073D02*
X65520417Y-150828299D01*
X170086733Y-161724880D02*
X170065554Y-161713554D01*
X307233331Y-45582713D02*
X307255412Y-45625837D01*
X269803771Y-129437563D02*
X269779144Y-129435735D01*
X212799333Y-58958656D02*
X212821473Y-58948650D01*
X306354228Y-45059350D02*
X306405670Y-45060652D01*
X8466032Y-45137932D02*
X8511451Y-45120027D01*
X307255412Y-174492558D02*
X307233331Y-174535682D01*
X64890644Y-129617319D02*
X64874937Y-129599183D01*
X136180555Y-59473065D02*
X136182385Y-59448482D01*
X307153281Y-143623209D02*
X307133684Y-143637152D01*
X26405310Y-68522894D02*
X26431016Y-68522244D01*
X288304087Y-59497805D02*
X288304087Y-68023008D01*
X306949131Y-170255359D02*
X306987921Y-170285577D01*
X307125688Y-174695133D02*
X307094262Y-174731420D01*
X7870972Y-68897920D02*
X7877704Y-68874206D01*
X270313077Y-133933092D02*
X270302118Y-133911299D01*
X44955674Y-129909621D02*
X44955024Y-129935358D01*
X174813348Y-59035930D02*
X174836125Y-59027156D01*
X306872621Y-45204119D02*
X306913186Y-45230130D01*
X8160489Y-143683268D02*
X8138343Y-143673251D01*
X82999152Y-150871110D02*
X82999185Y-150871077D01*
X102234807Y-58834203D02*
X102251364Y-58851561D01*
X8138343Y-143673251D02*
X8116788Y-143662205D01*
X135959612Y-66912413D02*
X135979209Y-66898470D01*
X140443200Y-59058294D02*
X140464148Y-59070337D01*
X26577104Y-68492577D02*
X26599800Y-68483631D01*
X289300276Y-157395032D02*
X289288691Y-157547396D01*
X7860405Y-174161196D02*
X7856544Y-174110398D01*
X26236406Y-134227198D02*
X26213663Y-134235971D01*
X188764954Y-66938998D02*
X188786211Y-66926974D01*
X26741339Y-68393084D02*
X26758704Y-68376536D01*
X148355906Y-144448022D02*
X148357204Y-144472817D01*
X136149625Y-66669749D02*
X136157480Y-66646529D01*
X148237529Y-144162248D02*
X148252662Y-144180874D01*
X307239911Y-143540580D02*
X307224204Y-143558723D01*
X126066607Y-59181025D02*
X126081732Y-59200451D01*
X288706084Y-68513215D02*
X288730227Y-68517425D01*
X307045409Y-68560905D02*
X307067696Y-68570779D01*
X8182867Y-174799265D02*
X8148136Y-174766151D01*
X287734200Y-159878590D02*
X287604846Y-159944837D01*
X179407675Y-66982786D02*
X179431541Y-66988161D01*
X279959228Y-134572512D02*
X279952496Y-134548785D01*
X8230150Y-143706831D02*
X8206423Y-143700090D01*
X82606117Y-54238013D02*
X82631121Y-54241194D01*
X231153900Y-131342207D02*
X231151968Y-131367604D01*
X307316005Y-68831618D02*
X307324779Y-68854376D01*
X7866212Y-49207189D02*
X7860141Y-49158349D01*
X231556436Y-129444799D02*
X231532571Y-129450174D01*
X126485174Y-66958528D02*
X126507870Y-66967485D01*
X189019793Y-66595949D02*
X189024004Y-66571790D01*
X45917137Y-58689328D02*
X45925911Y-58666585D01*
X189014416Y-66619815D02*
X189019793Y-66595949D01*
X26965498Y-59259620D02*
X26977530Y-59238686D01*
X188786211Y-66926974D02*
X188806892Y-66913901D01*
X26331121Y-134203431D02*
X26306961Y-134207640D01*
X26259564Y-134219540D02*
X26236406Y-134227198D01*
X269239046Y-54613612D02*
X269244422Y-54637470D01*
X279860862Y-134379456D02*
X279845156Y-134361320D01*
X25790855Y-143540580D02*
X25775137Y-143558723D01*
X8001601Y-143576088D02*
X7985053Y-143558723D01*
X166884068Y-144309098D02*
X166893377Y-144286449D01*
X102432970Y-58967602D02*
X102456192Y-58975458D01*
X144960282Y-161774204D02*
X144935743Y-161776734D01*
X26684709Y-68437560D02*
X26704310Y-68423628D01*
X102055542Y-56899929D02*
X102065558Y-56922069D01*
X269170157Y-54458049D02*
X269183233Y-54478753D01*
X231705870Y-56614091D02*
X231730873Y-56610910D01*
X64989019Y-129810378D02*
X64982286Y-129786651D01*
X288342089Y-68214302D02*
X288351960Y-68236590D01*
X288524868Y-159257830D02*
X288425536Y-159362016D01*
X307281678Y-143481809D02*
X307268680Y-143502092D01*
X287952882Y-59020410D02*
X287976113Y-59028275D01*
X140575046Y-59161774D02*
X140590770Y-59179916D01*
X26865882Y-68217648D02*
X26874838Y-68194945D01*
X306867658Y-49917608D02*
X306825141Y-49941685D01*
X125915270Y-59056760D02*
X125936528Y-59068783D01*
X268754222Y-54235430D02*
X268779022Y-54236043D01*
X140522956Y-59112135D02*
X140541108Y-59127852D01*
X170044959Y-161701239D02*
X170024983Y-161687962D01*
X46119526Y-54364725D02*
X46138240Y-54348600D01*
X44957603Y-129884223D02*
X44955674Y-129909621D01*
X174293113Y-142707153D02*
X174310423Y-142694338D01*
X170005664Y-161673747D02*
X169987037Y-161658620D01*
X225262041Y-132080957D02*
X225251084Y-132102771D01*
X148204634Y-144127218D02*
X148221511Y-144144350D01*
X286908812Y-160179704D02*
X286761072Y-160206085D01*
X82999372Y-150870930D02*
X82999396Y-150870921D01*
X307352713Y-174110398D02*
X307348852Y-174161196D01*
X307002836Y-143700090D02*
X306979110Y-143706831D01*
X65004748Y-150159349D02*
X65004748Y-129935358D01*
X26599800Y-68483631D02*
X26621940Y-68473625D01*
X82999271Y-150870995D02*
X82999289Y-150870980D01*
X307314751Y-143417183D02*
X307304745Y-143439323D01*
X140795787Y-142586202D02*
X140808472Y-142603459D01*
X178981755Y-59284335D02*
X178991629Y-59306643D01*
X45354124Y-129445615D02*
X45329932Y-129451194D01*
X46003032Y-54521847D02*
X46013989Y-54500033D01*
X279600061Y-134213332D02*
X279575869Y-134207753D01*
X178529765Y-58997919D02*
X178554563Y-58998532D01*
X27304294Y-59008083D02*
X27328918Y-59003684D01*
X147944361Y-143994577D02*
X147969560Y-143999687D01*
X25775137Y-143558723D02*
X25758580Y-143576088D01*
X174327134Y-142680818D02*
X174343226Y-142666615D01*
X178958774Y-59241241D02*
X178970798Y-59262521D01*
X307352788Y-171009662D02*
X307354014Y-171059259D01*
X44790646Y-134068603D02*
X44771932Y-134084685D01*
X170224025Y-161770667D02*
X170200109Y-161765803D01*
X7855243Y-49059488D02*
X7855243Y-46059473D01*
X306691447Y-50000991D02*
X306645110Y-50016339D01*
X101884391Y-56702101D02*
X101903991Y-56716045D01*
X307155370Y-45461042D02*
X307183247Y-45500253D01*
X269585591Y-58968681D02*
X269608760Y-58976339D01*
X170024983Y-161687962D02*
X170005664Y-161673747D01*
X65358233Y-150719904D02*
X65151149Y-150512827D01*
X269437199Y-58884748D02*
X269456627Y-58899872D01*
X170322617Y-161778213D02*
X170297603Y-161778165D01*
X270183365Y-129678367D02*
X270170292Y-129657684D01*
X279691869Y-134246873D02*
X279669724Y-134236867D01*
X101776787Y-56647030D02*
X101799483Y-56655987D01*
X7985053Y-68686750D02*
X8001601Y-68669385D01*
X7900198Y-170761819D02*
X7915919Y-170715347D01*
X65376208Y-150737013D02*
X65358233Y-150719904D01*
X224916905Y-152139816D02*
X224896900Y-152148731D01*
X82999253Y-150871011D02*
X82999271Y-150870995D01*
X44954410Y-133722526D02*
X44952582Y-133747161D01*
X307212277Y-170545725D02*
X307236325Y-170588272D01*
X306825141Y-49941685D02*
X306781545Y-49963630D01*
X27210440Y-59037231D02*
X27233144Y-59028275D01*
X82999329Y-150870953D02*
X82999350Y-150870941D01*
X82814158Y-54307848D02*
X82834440Y-54320857D01*
X174727200Y-59081857D02*
X174747909Y-59068783D01*
X289778656Y-143723233D02*
X289753256Y-143725165D01*
X174413690Y-142586202D02*
X174425644Y-142568406D01*
X213432665Y-56647030D02*
X213455895Y-56639166D01*
X288313764Y-68121003D02*
X288319139Y-68144869D01*
X270497492Y-134126735D02*
X270476811Y-134113661D01*
X232164823Y-54634631D02*
X232170401Y-54610456D01*
X26855865Y-68239793D02*
X26865882Y-68217648D01*
X288042519Y-59058294D02*
X288063454Y-59070337D01*
X26902611Y-68074143D02*
X26904543Y-68048745D01*
X8083591Y-45423262D02*
X8115023Y-45386975D01*
X189478266Y-59002970D02*
X189503634Y-59001038D01*
X289304830Y-144196761D02*
X289304179Y-144222467D01*
X174836125Y-59027156D02*
X174859316Y-59019499D01*
X307089487Y-68581736D02*
X307110744Y-68593759D01*
X65042892Y-150350505D02*
X65034100Y-150327748D01*
X45964828Y-54637470D02*
X45970203Y-54613612D01*
X82940710Y-54417428D02*
X82955556Y-54436315D01*
X126507870Y-66967485D02*
X126531091Y-66975349D01*
X98754901Y-153649370D02*
X82998828Y-150871256D01*
X224834092Y-152170273D02*
X224812293Y-152175638D01*
X145272878Y-161607688D02*
X145256547Y-161625402D01*
X232240005Y-54455916D02*
X232253937Y-54436315D01*
X27353945Y-59000502D02*
X27379343Y-58998570D01*
X102105520Y-58523772D02*
X102107452Y-58549169D01*
X230705746Y-131813783D02*
X230680377Y-131815712D01*
X230990690Y-131686550D02*
X230972548Y-131702258D01*
X232355403Y-54334800D02*
X232375000Y-54320857D01*
X307352788Y-49109088D02*
X307349130Y-49158349D01*
X8206423Y-68545386D02*
X8230150Y-68538644D01*
X232154022Y-56142495D02*
X232154673Y-56116789D01*
X232094298Y-56354972D02*
X232105344Y-56333419D01*
X25643369Y-143662205D02*
X25621816Y-143673251D01*
X307349130Y-170960402D02*
X307352788Y-171009662D01*
X307342493Y-174211254D02*
X307333699Y-174260510D01*
X45155758Y-129534733D02*
X45136876Y-129549569D01*
X26889444Y-68147987D02*
X26895030Y-68123795D01*
X174650981Y-59144320D02*
X174668959Y-59127211D01*
X169905567Y-161570194D02*
X169891860Y-161550128D01*
X289353513Y-144005834D02*
X289343495Y-144027974D01*
X26874838Y-68194945D02*
X26882703Y-68171714D01*
X145351988Y-161485279D02*
X145341232Y-161507473D01*
X83094239Y-56311279D02*
X83104256Y-56333419D01*
X140850770Y-142651754D02*
X140866218Y-142666615D01*
X101753566Y-56639166D02*
X101776787Y-56647030D01*
X82793224Y-54295805D02*
X82814158Y-54307848D01*
X179077530Y-66711536D02*
X179088488Y-66733330D01*
X306403828Y-50058380D02*
X306354228Y-50059610D01*
X306354228Y-175059046D02*
X8855365Y-175059046D01*
X307293339Y-45715559D02*
X307309059Y-45762031D01*
X65075770Y-150415906D02*
X65063745Y-150394626D01*
X288506570Y-68424849D02*
X288526654Y-68438956D01*
X135731197Y-66995258D02*
X135756223Y-66992076D01*
X8511451Y-45120027D02*
X8557924Y-45104306D01*
X212863960Y-58925583D02*
X212884243Y-58912585D01*
X82999309Y-150870966D02*
X82999329Y-150870953D01*
X213268439Y-56746608D02*
X213286573Y-56730891D01*
X140752653Y-142512018D02*
X140762256Y-142531290D01*
X64676795Y-129465782D02*
X64653564Y-129457927D01*
X46101550Y-54381833D02*
X46119526Y-54364725D01*
X232203941Y-54518685D02*
X232214975Y-54497132D01*
X136179942Y-66497955D02*
X136179942Y-59497805D01*
X26704310Y-68423628D02*
X26723197Y-68408792D01*
X225086207Y-152009090D02*
X225072094Y-152025205D01*
X307283147Y-68766217D02*
X307295172Y-68787497D01*
X179008062Y-59352567D02*
X179014587Y-59376100D01*
X174198276Y-142759806D02*
X174218281Y-142750877D01*
X174930953Y-59003388D02*
X174955382Y-59000361D01*
X102115033Y-58598821D02*
X102120620Y-58623012D01*
X45732531Y-58913979D02*
X45752617Y-58899872D01*
X140735927Y-142472163D02*
X140743870Y-142492301D01*
X306909016Y-49891435D02*
X306867658Y-49917608D01*
X8753093Y-175053883D02*
X8703034Y-175047524D01*
X7865393Y-68922095D02*
X7870972Y-68897920D01*
X136402519Y-59081857D02*
X136423201Y-59068783D01*
X279811252Y-134327414D02*
X279793117Y-134311707D01*
X102410274Y-58958656D02*
X102432970Y-58967602D01*
X230934060Y-131731027D02*
X230913778Y-131744025D01*
X174256775Y-142730569D02*
X174275224Y-142719238D01*
X102019446Y-56837160D02*
X102032454Y-56857443D01*
X232628828Y-54236081D02*
X232654567Y-54235430D01*
X44711772Y-134126934D02*
X44690514Y-134138960D01*
X170297603Y-161778165D02*
X170272809Y-161776874D01*
X140204768Y-58997919D02*
X140230508Y-58998570D01*
X189128844Y-59201273D02*
X189143690Y-59182385D01*
X82854041Y-54334800D02*
X82872928Y-54349646D01*
X287804179Y-58997919D02*
X287829915Y-58998570D01*
X136630422Y-59000361D02*
X136655050Y-58998532D01*
X288590453Y-68475009D02*
X288612761Y-68484883D01*
X288243776Y-59259620D02*
X288254812Y-59281173D01*
X231169606Y-129813142D02*
X231164231Y-129837008D01*
X268989594Y-54294272D02*
X269010849Y-54306296D01*
X46430237Y-54236043D02*
X46455035Y-54235430D01*
X140665696Y-59303313D02*
X140674654Y-59326009D01*
X212974797Y-58834203D02*
X212990514Y-58816068D01*
X269183233Y-54478753D02*
X269195258Y-54500033D01*
X65686916Y-150865699D02*
X65662290Y-150863870D01*
X307224204Y-143558723D02*
X307207656Y-143576088D01*
X125679896Y-58997919D02*
X125704694Y-58998532D01*
X65394921Y-150753138D02*
X65376208Y-150737013D01*
X125704694Y-58998532D02*
X125729319Y-59000361D01*
X174156850Y-142775094D02*
X174177792Y-142767886D01*
X148266885Y-144200193D02*
X148280170Y-144220169D01*
X148344807Y-144375320D02*
X148349681Y-144399237D01*
X213578858Y-56617325D02*
X213604594Y-56616674D01*
X166862994Y-144379189D02*
X166868867Y-144355511D01*
X26283096Y-134213016D02*
X26259564Y-134219540D01*
X288754611Y-68520452D02*
X288779194Y-68522281D01*
X82999019Y-150871212D02*
X82999040Y-150871200D01*
X44945345Y-133795771D02*
X44939970Y-133819662D01*
X280104897Y-160076932D02*
X280089179Y-160058797D01*
X25684585Y-143637152D02*
X25664302Y-143650162D01*
X136209186Y-59329400D02*
X136217961Y-59306643D01*
X7885424Y-49303280D02*
X7874651Y-49255527D01*
X269254100Y-58498035D02*
X269254713Y-58522833D01*
X269156047Y-54437963D02*
X269170157Y-54458049D01*
X306555699Y-45079665D02*
X306604066Y-45090831D01*
X26191374Y-134245845D02*
X26169581Y-134256801D01*
X307258239Y-49486798D02*
X307236325Y-49530393D01*
X44952582Y-133747161D02*
X44949555Y-133771590D01*
X44553133Y-134188232D02*
X44528974Y-134192461D01*
X145256547Y-161625402D02*
X145239415Y-161642282D01*
X8221443Y-49832933D02*
X8184005Y-49800673D01*
X26148323Y-134268824D02*
X26127640Y-134281898D01*
X179067656Y-66689248D02*
X179077530Y-66711536D01*
X126158201Y-59352567D02*
X126164726Y-59376100D01*
X174237788Y-142741124D02*
X174256775Y-142730569D01*
X148186922Y-144110888D02*
X148204634Y-144127218D01*
X101974941Y-56780530D02*
X101990658Y-56798672D01*
X300953929Y-50059610D02*
X300953929Y-68522894D01*
X25844696Y-143460876D02*
X25832653Y-143481809D01*
X269206216Y-54521847D02*
X269216090Y-54544154D01*
X225703089Y-131816362D02*
X225678294Y-131816976D01*
X82999061Y-150871187D02*
X82999080Y-150871173D01*
X8659321Y-50040197D02*
X8611562Y-50029418D01*
X8278966Y-143716817D02*
X8254342Y-143712417D01*
X8083591Y-170423051D02*
X8115023Y-170386763D01*
X269680300Y-58992450D02*
X269704684Y-58995477D01*
X8855365Y-175059046D02*
X8803891Y-175057745D01*
X126309713Y-66833985D02*
X126326270Y-66851350D01*
X232177134Y-54586742D02*
X232184989Y-54563521D01*
X45933569Y-58643427D02*
X45940094Y-58619895D01*
X179100511Y-66754588D02*
X179113585Y-66775270D01*
X213105381Y-57090854D02*
X213107310Y-57065484D01*
X44907141Y-133911509D02*
X44896184Y-133933334D01*
X280060388Y-160020318D02*
X280047378Y-160000037D01*
X144984528Y-161770484D02*
X144960282Y-161774204D01*
X270704682Y-134195161D02*
X270680272Y-134192134D01*
X126240156Y-66736138D02*
X126252198Y-66757072D01*
X289008363Y-158541325D02*
X288942115Y-158670681D01*
X212958239Y-58851561D02*
X212974797Y-58834203D01*
X140619570Y-59218404D02*
X140632583Y-59238686D01*
X188743161Y-66949955D02*
X188764954Y-66938998D01*
X269254100Y-54735316D02*
X269254100Y-58498035D01*
X232138923Y-56241649D02*
X232144509Y-56217474D01*
X64530596Y-129436115D02*
X64504859Y-129435465D01*
X136094607Y-66777355D02*
X136107605Y-66757072D01*
X46157650Y-54333476D02*
X46177717Y-54319369D01*
X212903844Y-58898652D02*
X212922732Y-58883816D01*
X213345331Y-56689092D02*
X213366264Y-56677049D01*
X196254679Y-50059610D02*
X118454676Y-50059610D01*
X225251084Y-132102771D02*
X225241210Y-132125078D01*
X225653671Y-131818804D02*
X225629261Y-131821831D01*
X225205638Y-132266918D02*
X225203810Y-132291500D01*
X269107676Y-54381833D02*
X269124790Y-54399813D01*
X26954463Y-59281173D02*
X26965498Y-59259620D01*
X26456387Y-68520315D02*
X26481390Y-68517138D01*
X269562831Y-58959907D02*
X269585591Y-58968681D01*
X167023850Y-144109430D02*
X167042683Y-144093904D01*
X44808623Y-134051554D02*
X44790646Y-134068603D01*
X174436838Y-142550094D02*
X174447251Y-142531290D01*
X188958595Y-66754588D02*
X188970620Y-66733330D01*
X231509040Y-129456698D02*
X231485882Y-129464354D01*
X306909016Y-170227164D02*
X306949131Y-170255359D01*
X269338042Y-58775350D02*
X269352147Y-58795416D01*
X125801757Y-59012974D02*
X125825288Y-59019499D01*
X20954907Y-68522894D02*
X26405310Y-68522894D01*
X174552612Y-59284335D02*
X174563578Y-59262521D01*
X140934220Y-142719238D02*
X140952674Y-142730569D01*
X140541108Y-59127852D02*
X140558482Y-59144409D01*
X208754634Y-170059137D02*
X208754634Y-155007555D01*
X232154673Y-54735316D02*
X232155323Y-54709610D01*
X224973847Y-152108199D02*
X224955399Y-152119525D01*
X306987921Y-49832933D02*
X306949131Y-49863198D01*
X140558482Y-59144409D02*
X140575046Y-59161774D01*
X102456192Y-58975458D02*
X102479906Y-58982190D01*
X167124803Y-144041578D02*
X167146840Y-144031055D01*
X126141768Y-59306643D02*
X126150543Y-59329400D01*
X269383389Y-58833539D02*
X269400492Y-58851515D01*
X140230508Y-58998570D02*
X140255910Y-59000502D01*
X288298330Y-59421724D02*
X288301508Y-59446728D01*
X136655050Y-58998532D02*
X136679850Y-58997919D01*
X64581020Y-129441221D02*
X64555993Y-129438044D01*
X232193935Y-54540825D02*
X232203941Y-54518685D01*
X169920185Y-161589500D02*
X169905567Y-161570194D01*
X268876088Y-54250485D02*
X268899619Y-54257010D01*
X174514304Y-59399958D02*
X174519702Y-59376100D01*
X65134099Y-150494846D02*
X65118018Y-150476121D01*
X231654429Y-129435122D02*
X231629631Y-129435735D01*
X232395282Y-54307848D02*
X232416216Y-54295805D01*
X7927579Y-143481809D02*
X7915547Y-143460876D01*
X279500816Y-134198253D02*
X279475077Y-134197603D01*
X225203810Y-132291500D02*
X225203196Y-132316240D01*
X179272902Y-66926974D02*
X179294160Y-66938998D01*
X174859316Y-59019499D02*
X174882878Y-59012974D01*
X101821623Y-56666004D02*
X101843175Y-56677049D01*
X269497421Y-58927053D02*
X269518704Y-58939076D01*
X286458567Y-160236745D02*
X286304179Y-160240648D01*
X26404958Y-134197962D02*
X26380159Y-134198575D01*
X270251780Y-129885578D02*
X270248753Y-129861166D01*
X280258226Y-160191379D02*
X280236672Y-160180344D01*
X174906771Y-59007598D02*
X174930953Y-59003388D01*
X306830753Y-174938355D02*
X306787645Y-174960439D01*
X269089705Y-54364725D02*
X269107676Y-54381833D01*
X140699247Y-59421724D02*
X140702429Y-59446728D01*
X65711715Y-150866312D02*
X65686916Y-150865699D01*
X45907263Y-58711616D02*
X45917137Y-58689328D01*
X140702429Y-59446728D02*
X140704361Y-59472099D01*
X25926652Y-134552453D02*
X25920127Y-134575985D01*
X8421729Y-45157957D02*
X8466032Y-45137932D01*
X136293121Y-59181025D02*
X136309244Y-59162300D01*
X65034100Y-150327748D02*
X65026421Y-150304582D01*
X170065554Y-161713554D02*
X170044959Y-161701239D01*
X145302988Y-161569854D02*
X145288370Y-161589163D01*
X174955382Y-59000361D02*
X174980017Y-58998532D01*
X289632421Y-143752937D02*
X289609706Y-143761893D01*
X140717337Y-142409464D02*
X140722640Y-142430721D01*
X179315954Y-66949955D02*
X179338242Y-66959829D01*
X289376607Y-143963348D02*
X289364561Y-143984281D01*
X225367584Y-131945648D02*
X225349604Y-131962755D01*
X126202273Y-66646529D02*
X126210137Y-66669749D01*
X269195258Y-54500033D02*
X269206216Y-54521847D01*
X188883052Y-66851437D02*
X188900161Y-66833460D01*
X280236672Y-160180344D02*
X280215738Y-160168312D01*
X230730747Y-131810606D02*
X230705746Y-131813783D01*
X102219089Y-58816068D02*
X102234807Y-58834203D01*
X126195532Y-66622815D02*
X126202273Y-66646529D01*
X269010849Y-54306296D02*
X269031528Y-54319369D01*
X166875895Y-144332133D02*
X166884068Y-144309098D01*
X288103335Y-59097289D02*
X288122218Y-59112135D01*
X83127345Y-56375905D02*
X83140354Y-56396188D01*
X225179327Y-151840474D02*
X225172235Y-151861019D01*
M02*
