M48
; DRILL file {KiCad 7.0.6} date Sat Jan 13 20:54:39 2024
; FORMAT={-:-/ absolute / inch / decimal}
; #@! TF.CreationDate,2024-01-13T20:54:39+09:00
; #@! TF.GenerationSoftware,Kicad,Pcbnew,7.0.6
; #@! TF.FileFunction,NonPlated,1,2,NPTH
FMAT,2
INCH
; #@! TA.AperFunction,NonPlated,NPTH,ComponentDrill
T1C0.0177
; #@! TA.AperFunction,NonPlated,NPTH,ComponentDrill
T2C0.0472
; #@! TA.AperFunction,NonPlated,NPTH,ComponentDrill
T3C0.0748
; #@! TA.AperFunction,NonPlated,NPTH,ComponentDrill
T4C0.1169
; #@! TA.AperFunction,NonPlated,NPTH,ComponentDrill
T5C0.1614
; #@! TA.AperFunction,NonPlated,NPTH,ComponentDrill
T6C0.1654
%
G90
G05
T1
X0.5563Y-2.6899
X0.5563Y-5.6663
X0.5878Y-2.6899
X0.5878Y-5.6663
X0.6193Y-2.6899
X0.6193Y-5.6663
X0.6508Y-2.6899
X0.6508Y-5.6663
X0.6823Y-2.6899
X0.6823Y-5.6663
X0.7138Y-2.6899
X0.7138Y-5.6663
X0.7453Y-2.6899
X0.7453Y-5.6663
X0.7768Y-2.6899
X0.7768Y-5.6663
X0.8083Y-2.6899
X0.8083Y-5.6663
X3.9021Y-6.0597
X3.9332Y-6.0652
X3.9642Y-6.0706
X3.9952Y-6.0761
X4.0262Y-6.0816
X4.0572Y-6.087
X4.0882Y-6.0925
X4.1193Y-6.098
X4.1503Y-6.1034
X4.3949Y-2.3149
X4.4264Y-2.3149
X4.4579Y-2.3149
X4.4894Y-2.3149
X4.5209Y-2.3149
X4.5524Y-2.3149
X4.5839Y-2.3149
X4.6154Y-2.3149
X4.6468Y-2.3149
X7.7413Y-2.3149
X7.7728Y-2.3149
X7.8043Y-2.3149
X7.8358Y-2.3149
X7.8673Y-2.3149
X7.8988Y-2.3149
X7.9303Y-2.3149
X7.9618Y-2.3149
X7.9933Y-2.3149
X8.2356Y-6.1077
X8.2666Y-6.1022
X8.2976Y-6.0967
X8.3286Y-6.0913
X8.3596Y-6.0858
X8.3907Y-6.0803
X8.4217Y-6.0749
X8.4527Y-6.0694
X8.4837Y-6.0639
X11.5799Y-2.6899
X11.5799Y-5.6663
X11.6114Y-2.6899
X11.6114Y-5.6663
X11.6429Y-2.6899
X11.6429Y-5.6663
X11.6744Y-2.6899
X11.6744Y-5.6663
X11.7059Y-2.6899
X11.7059Y-5.6663
X11.7374Y-2.6899
X11.7374Y-5.6663
X11.7689Y-2.6899
X11.7689Y-5.6663
X11.8004Y-2.6899
X11.8004Y-5.6663
X11.8319Y-2.6899
X11.8319Y-5.6663
T2
X5.1904Y-4.1488
X5.4659Y-4.1488
X6.9455Y-4.1468
X7.2211Y-4.1468
T3
X0.4636Y-3.0531
X0.4636Y-3.8031
X0.4636Y-4.5531
X0.4636Y-5.3031
X0.8636Y-3.0531
X0.8636Y-3.8031
X0.8636Y-4.5531
X0.8636Y-5.3031
X1.2136Y-2.6781
X1.2136Y-3.4281
X1.2136Y-4.1781
X1.2136Y-4.9281
X1.6136Y-2.6781
X1.6136Y-3.4281
X1.6136Y-4.1781
X1.6136Y-4.9281
X1.9636Y-2.4906
X1.9636Y-3.2406
X1.9636Y-3.9906
X1.9636Y-4.7406
X2.3636Y-2.4906
X2.3636Y-3.2406
X2.3636Y-3.9906
X2.3636Y-4.7406
X2.7136Y-2.4906
X2.7136Y-3.2406
X2.7136Y-3.9906
X2.7136Y-4.7406
X2.8073Y-5.5897
X3.1136Y-2.4906
X3.1136Y-3.2406
X3.1136Y-3.9906
X3.1136Y-4.7406
X3.2073Y-5.5897
X3.4636Y-2.5843
X3.4636Y-3.3343
X3.4636Y-4.0843
X3.4636Y-4.8343
X3.7572Y-5.6656
X3.8636Y-2.5843
X3.8636Y-3.3343
X3.8636Y-4.0843
X3.8636Y-4.8343
X4.1511Y-5.735
X4.2136Y-2.6781
X4.2136Y-3.4281
X4.2136Y-4.1781
X4.2136Y-4.9281
X4.4958Y-5.7958
X4.6136Y-2.6781
X4.6136Y-3.4281
X4.6136Y-4.1781
X4.6136Y-4.9281
X4.8897Y-5.8652
X4.9636Y-5.0022
X5.2344Y-5.926
X5.3636Y-5.0022
X5.6283Y-5.9955
X6.7795Y-5.9955
X7.0443Y-5.0022
X7.1734Y-5.926
X7.4443Y-5.0022
X7.5181Y-5.8653
X7.7943Y-2.6781
X7.7943Y-3.4281
X7.7943Y-4.1781
X7.7943Y-4.9281
X7.9121Y-5.7958
X8.1943Y-2.6781
X8.1943Y-3.4281
X8.1943Y-4.1781
X8.1943Y-4.9281
X8.2567Y-5.735
X8.5443Y-2.5843
X8.5443Y-3.3343
X8.5443Y-4.0843
X8.5443Y-4.8343
X8.6507Y-5.6656
X8.9443Y-2.5843
X8.9443Y-3.3343
X8.9443Y-4.0843
X8.9443Y-4.8343
X9.2943Y-2.4906
X9.2943Y-3.2406
X9.2943Y-3.9906
X9.2943Y-4.7406
X9.6943Y-2.4906
X9.6943Y-3.2406
X9.6943Y-3.9906
X9.6943Y-4.7406
X10.0443Y-2.4906
X10.0443Y-3.2406
X10.0443Y-3.9906
X10.0443Y-4.7406
X10.4443Y-2.4906
X10.4443Y-3.2406
X10.4443Y-3.9906
X10.4443Y-4.7406
X10.7943Y-2.6781
X10.7943Y-3.4281
X10.7943Y-4.1781
X10.7943Y-4.9281
X11.1943Y-2.6781
X11.1943Y-3.4281
X11.1943Y-4.1781
X11.1943Y-4.9281
X11.5443Y-3.0531
X11.5443Y-3.8031
X11.5443Y-4.5531
X11.5443Y-5.3031
X11.9443Y-3.0531
X11.9443Y-3.8031
X11.9443Y-4.5531
X11.9443Y-5.3031
T4
X0.5136Y-2.9531
X0.5136Y-3.7031
X0.5136Y-4.4531
X0.5136Y-5.2031
X0.7636Y-2.8531
X0.7636Y-3.6031
X0.7636Y-4.3531
X0.7636Y-5.1031
X1.2636Y-2.5781
X1.2636Y-3.3281
X1.2636Y-4.0781
X1.2636Y-4.8281
X1.5136Y-2.4781
X1.5136Y-3.2281
X1.5136Y-3.9781
X1.5136Y-4.7281
X2.0136Y-2.3906
X2.0136Y-3.1406
X2.0136Y-3.8906
X2.0136Y-4.6406
X2.2636Y-2.2906
X2.2636Y-3.0406
X2.2636Y-3.7906
X2.2636Y-4.5406
X2.7636Y-2.3906
X2.7636Y-3.1406
X2.7636Y-3.8906
X2.7636Y-4.6406
X2.8573Y-5.4897
X3.0136Y-2.2906
X3.0136Y-3.0406
X3.0136Y-3.7906
X3.0136Y-4.5406
X3.1073Y-5.3897
X3.5136Y-2.4843
X3.5136Y-3.2343
X3.5136Y-3.9843
X3.5136Y-4.7343
X3.7636Y-2.3843
X3.7636Y-3.1343
X3.7636Y-3.8843
X3.7636Y-4.6343
X3.8238Y-5.5758
X4.0874Y-5.5207
X4.2636Y-2.5781
X4.2636Y-3.3281
X4.2636Y-4.0781
X4.2636Y-4.8281
X4.5136Y-2.4781
X4.5136Y-3.2281
X4.5136Y-3.9781
X4.5136Y-4.7281
X4.5624Y-5.706
X4.826Y-5.6509
X5.0136Y-4.9022
X5.2636Y-4.8022
X5.301Y-5.8362
X5.5646Y-5.7812
X6.8114Y-5.8883
X7.0402Y-5.7464
X7.0943Y-4.9022
X7.3443Y-4.8022
X7.55Y-5.7581
X7.7788Y-5.6162
X7.8443Y-2.5781
X7.8443Y-3.3281
X7.8443Y-4.0781
X7.8443Y-4.8281
X8.0943Y-2.4781
X8.0943Y-3.2281
X8.0943Y-3.9781
X8.0943Y-4.7281
X8.2886Y-5.6279
X8.5175Y-5.486
X8.5943Y-2.4843
X8.5943Y-3.2343
X8.5943Y-3.9843
X8.5943Y-4.7343
X8.8443Y-2.3843
X8.8443Y-3.1343
X8.8443Y-3.8843
X8.8443Y-4.6343
X9.3443Y-2.3906
X9.3443Y-3.1406
X9.3443Y-3.8906
X9.3443Y-4.6406
X9.5943Y-2.2906
X9.5943Y-3.0406
X9.5943Y-3.7906
X9.5943Y-4.5406
X10.0943Y-2.3906
X10.0943Y-3.1406
X10.0943Y-3.8906
X10.0943Y-4.6406
X10.3443Y-2.2906
X10.3443Y-3.0406
X10.3443Y-3.7906
X10.3443Y-4.5406
X10.8443Y-2.5781
X10.8443Y-3.3281
X10.8443Y-4.0781
X10.8443Y-4.8281
X11.0943Y-2.4781
X11.0943Y-3.2281
X11.0943Y-3.9781
X11.0943Y-4.7281
X11.5943Y-2.9531
X11.5943Y-3.7031
X11.5943Y-4.4531
X11.5943Y-5.2031
X11.8443Y-2.8531
X11.8443Y-3.6031
X11.8443Y-4.3531
X11.8443Y-5.1031
T5
X0.6636Y-3.0531
X0.6636Y-3.8031
X0.6636Y-4.5531
X0.6636Y-5.3031
X1.4136Y-2.6781
X1.4136Y-3.4281
X1.4136Y-4.1781
X1.4136Y-4.9281
X2.1636Y-2.4906
X2.1636Y-3.2406
X2.1636Y-3.9906
X2.1636Y-4.7406
X2.9136Y-2.4906
X2.9136Y-3.2406
X2.9136Y-3.9906
X2.9136Y-4.7406
X3.0073Y-5.5897
X3.6636Y-2.5843
X3.6636Y-3.3343
X3.6636Y-4.0843
X3.6636Y-4.8343
X3.9542Y-5.7003
X4.4136Y-2.6781
X4.4136Y-3.4281
X4.4136Y-4.1781
X4.4136Y-4.9281
X4.6927Y-5.8305
X5.1636Y-5.0022
X5.4314Y-5.9608
X6.9765Y-5.9608
X7.2443Y-5.0022
X7.7151Y-5.8305
X7.9943Y-2.6781
X7.9943Y-3.4281
X7.9943Y-4.1781
X7.9943Y-4.9281
X8.4537Y-5.7003
X8.7443Y-2.5843
X8.7443Y-3.3343
X8.7443Y-4.0843
X8.7443Y-4.8343
X9.4943Y-2.4906
X9.4943Y-3.2406
X9.4943Y-3.9906
X9.4943Y-4.7406
X10.2443Y-2.4906
X10.2443Y-3.2406
X10.2443Y-3.9906
X10.2443Y-4.7406
X10.9943Y-2.6781
X10.9943Y-3.4281
X10.9943Y-4.1781
X10.9943Y-4.9281
X11.7443Y-3.0531
X11.7443Y-3.8031
X11.7443Y-4.5531
X11.7443Y-5.3031
T6
X0.9636Y-3.4281
X0.9636Y-4.9281
X2.5386Y-2.8656
X2.5386Y-4.3656
X4.0386Y-2.9897
X4.0386Y-4.4897
X4.3087Y-5.3891
X5.2046Y-5.5471
X7.2033Y-5.5471
X7.9145Y-5.3891
X8.3693Y-2.9897
X8.3693Y-4.4897
X9.8693Y-2.8656
X9.8693Y-4.3656
X11.4443Y-3.4281
X11.4443Y-4.9281
T0
M30
