M48
; DRILL file {KiCad 7.0.6} date Sat Jan 13 20:54:39 2024
; FORMAT={-:-/ absolute / inch / decimal}
; #@! TF.CreationDate,2024-01-13T20:54:39+09:00
; #@! TF.GenerationSoftware,Kicad,Pcbnew,7.0.6
; #@! TF.FileFunction,Plated,1,2,PTH
FMAT,2
INCH
; #@! TA.AperFunction,Plated,PTH,ComponentDrill
T1C0.0118
; #@! TA.AperFunction,Plated,PTH,ViaDrill
T2C0.0157
; #@! TA.AperFunction,Plated,PTH,ComponentDrill
T3C0.0315
; #@! TA.AperFunction,Plated,PTH,ComponentDrill
T4C0.0320
; #@! TA.AperFunction,Plated,PTH,ComponentDrill
T5C0.0394
; #@! TA.AperFunction,Plated,PTH,ComponentDrill
T6C0.0512
; #@! TA.AperFunction,Plated,PTH,ComponentDrill
T7C0.0906
%
G90
G05
T1
X0.3148Y-2.894
X0.3148Y-3.0122
X0.3148Y-3.644
X0.3148Y-3.7622
X0.3148Y-4.394
X0.3148Y-4.5122
X0.3148Y-5.144
X0.3148Y-5.2622
X0.9624Y-2.794
X0.9624Y-2.9122
X0.9624Y-3.544
X0.9624Y-3.6622
X0.9624Y-4.294
X0.9624Y-4.4122
X0.9624Y-5.044
X0.9624Y-5.1622
X1.0648Y-2.519
X1.0648Y-2.6372
X1.0648Y-3.269
X1.0648Y-3.3872
X1.0648Y-4.019
X1.0648Y-4.1372
X1.0648Y-4.769
X1.0648Y-4.8872
X1.7124Y-2.419
X1.7124Y-2.5372
X1.7124Y-3.169
X1.7124Y-3.2872
X1.7124Y-3.919
X1.7124Y-4.0372
X1.7124Y-4.669
X1.7124Y-4.7872
X1.8148Y-2.3315
X1.8148Y-2.4497
X1.8148Y-3.0815
X1.8148Y-3.1997
X1.8148Y-3.8315
X1.8148Y-3.9497
X1.8148Y-4.5815
X1.8148Y-4.6997
X2.4624Y-2.2315
X2.4624Y-2.3497
X2.4624Y-2.9815
X2.4624Y-3.0997
X2.4624Y-3.7315
X2.4624Y-3.8497
X2.4624Y-4.4815
X2.4624Y-4.5997
X2.5648Y-2.3315
X2.5648Y-2.4497
X2.5648Y-3.0815
X2.5648Y-3.1997
X2.5648Y-3.8315
X2.5648Y-3.9497
X2.5648Y-4.5815
X2.5648Y-4.6997
X2.6585Y-5.4306
X2.6585Y-5.5487
X3.2124Y-2.2315
X3.2124Y-2.3497
X3.2124Y-2.9815
X3.2124Y-3.0997
X3.2124Y-3.7315
X3.2124Y-3.8497
X3.2124Y-4.4815
X3.2124Y-4.5997
X3.3061Y-5.3306
X3.3061Y-5.4487
X3.3148Y-2.4253
X3.3148Y-2.5434
X3.3148Y-3.1753
X3.3148Y-3.2934
X3.3148Y-3.9253
X3.3148Y-4.0434
X3.3148Y-4.6753
X3.3148Y-4.7934
X3.6177Y-5.5994
X3.6383Y-5.4831
X3.9624Y-2.3253
X3.9624Y-2.4434
X3.9624Y-3.0753
X3.9624Y-3.1934
X3.9624Y-3.8253
X3.9624Y-3.9434
X3.9624Y-4.5753
X3.9624Y-4.6934
X4.0648Y-2.519
X4.0648Y-2.6372
X4.0648Y-3.269
X4.0648Y-3.3872
X4.0648Y-4.019
X4.0648Y-4.1372
X4.0648Y-4.769
X4.0648Y-4.8872
X4.2729Y-5.6134
X4.2934Y-5.4971
X4.3563Y-5.7296
X4.3768Y-5.6133
X4.7124Y-2.419
X4.7124Y-2.5372
X4.7124Y-3.169
X4.7124Y-3.2872
X4.7124Y-3.919
X4.7124Y-4.0372
X4.7124Y-4.669
X4.7124Y-4.7872
X4.8148Y-4.8431
X4.8148Y-4.9612
X5.0115Y-5.7436
X5.032Y-5.6273
X5.095Y-5.8599
X5.1155Y-5.7435
X5.4624Y-4.7431
X5.4624Y-4.8612
X5.7501Y-5.8738
X5.7706Y-5.7575
X6.6053Y-5.8647
X6.6258Y-5.981
X6.8955Y-4.8431
X6.8955Y-4.9612
X7.2258Y-5.6538
X7.2463Y-5.7701
X7.344Y-5.7345
X7.3645Y-5.8508
X7.5431Y-4.7431
X7.5431Y-4.8612
X7.6455Y-2.519
X7.6455Y-2.6372
X7.6455Y-3.269
X7.6455Y-3.3872
X7.6455Y-4.019
X7.6455Y-4.1372
X7.6455Y-4.769
X7.6455Y-4.8872
X7.9644Y-5.5235
X7.9849Y-5.6398
X8.0826Y-5.6042
X8.1031Y-5.7205
X8.2931Y-2.419
X8.2931Y-2.5372
X8.2931Y-3.169
X8.2931Y-3.2872
X8.2931Y-3.919
X8.2931Y-4.0372
X8.2931Y-4.669
X8.2931Y-4.7872
X8.3955Y-2.4253
X8.3955Y-2.5434
X8.3955Y-3.1753
X8.3955Y-3.2934
X8.3955Y-3.9253
X8.3955Y-4.0434
X8.3955Y-4.6753
X8.3955Y-4.7934
X8.703Y-5.3933
X8.7235Y-5.5096
X9.0431Y-2.3253
X9.0431Y-2.4434
X9.0431Y-3.0753
X9.0431Y-3.1934
X9.0431Y-3.8253
X9.0431Y-3.9434
X9.0431Y-4.5753
X9.0431Y-4.6934
X9.1455Y-2.3315
X9.1455Y-2.4497
X9.1455Y-3.0815
X9.1455Y-3.1997
X9.1455Y-3.8315
X9.1455Y-3.9497
X9.1455Y-4.5815
X9.1455Y-4.6997
X9.7931Y-2.2315
X9.7931Y-2.3497
X9.7931Y-2.9815
X9.7931Y-3.0997
X9.7931Y-3.7315
X9.7931Y-3.8497
X9.7931Y-4.4815
X9.7931Y-4.5997
X9.8955Y-2.3315
X9.8955Y-2.4497
X9.8955Y-3.0815
X9.8955Y-3.1997
X9.8955Y-3.8315
X9.8955Y-3.9497
X9.8955Y-4.5815
X9.8955Y-4.6997
X10.5431Y-2.2315
X10.5431Y-2.3497
X10.5431Y-2.9815
X10.5431Y-3.0997
X10.5431Y-3.7315
X10.5431Y-3.8497
X10.5431Y-4.4815
X10.5431Y-4.5997
X10.6455Y-2.519
X10.6455Y-2.6372
X10.6455Y-3.269
X10.6455Y-3.3872
X10.6455Y-4.019
X10.6455Y-4.1372
X10.6455Y-4.769
X10.6455Y-4.8872
X11.2931Y-2.419
X11.2931Y-2.5372
X11.2931Y-3.169
X11.2931Y-3.2872
X11.2931Y-3.919
X11.2931Y-4.0372
X11.2931Y-4.669
X11.2931Y-4.7872
X11.3955Y-2.894
X11.3955Y-3.0122
X11.3955Y-3.644
X11.3955Y-3.7622
X11.3955Y-4.394
X11.3955Y-4.5122
X11.3955Y-5.144
X11.3955Y-5.2622
X12.0431Y-2.794
X12.0431Y-2.9122
X12.0431Y-3.544
X12.0431Y-3.6622
X12.0431Y-4.294
X12.0431Y-4.4122
X12.0431Y-5.044
X12.0431Y-5.1622
T2
X0.3286Y-5.5881
X0.3386Y-2.8281
X0.3686Y-5.6381
X0.3886Y-4.1781
X0.3886Y-4.9281
X0.4136Y-3.4281
X0.8386Y-3.4281
X0.8386Y-4.9281
X0.9261Y-5.4906
X0.9386Y-4.1781
X1.0086Y-2.7281
X1.0286Y-2.9981
X1.0699Y-4.9784
X1.0811Y-5.2606
X1.0984Y-2.7583
X1.0986Y-2.9481
X1.1199Y-5.0284
X1.1386Y-3.0531
X1.1386Y-3.8031
X1.1386Y-4.5531
X1.6886Y-3.0531
X1.6886Y-3.8031
X1.7136Y-4.5531
X1.8586Y-2.7481
X1.8886Y-2.8656
X1.8886Y-3.6156
X1.8886Y-4.3656
X2.3886Y-4.3656
X2.4136Y-2.8656
X2.4136Y-3.6156
X2.4186Y-2.6581
X2.5486Y-2.6581
X2.5805Y-5.1616
X2.5886Y-2.2343
X2.5886Y-5.8381
X2.6196Y-5.6471
X2.6386Y-3.6156
X2.6586Y-5.9081
X2.6886Y-4.3656
X2.7136Y-2.8656
X2.9886Y-5.1843
X3.1786Y-2.6581
X3.1886Y-2.8656
X3.1886Y-3.6156
X3.1886Y-4.3656
X3.1886Y-5.1156
X3.3136Y-2.3343
X3.3486Y-2.7381
X3.3886Y-2.9593
X3.3886Y-3.7093
X3.3886Y-4.4593
X3.4983Y-5.9434
X3.6386Y-5.1593
X3.7386Y-5.8093
X3.9136Y-2.9593
X3.9136Y-4.4593
X3.9286Y-2.7481
X3.9386Y-3.7093
X4.0486Y-2.7981
X4.1386Y-3.8031
X4.1886Y-3.0531
X4.2683Y-6.0834
X4.6386Y-5.3843
X4.6636Y-3.0531
X4.6786Y-2.8381
X4.6886Y-3.8031
X4.6886Y-4.5531
X4.9286Y-2.6681
X4.9686Y-2.6981
X4.9786Y-3.2881
X4.9886Y-3.3881
X4.9886Y-3.4781
X5.0083Y-6.2134
X5.1336Y-3.2672
X5.3908Y-3.2903
X5.391Y-3.3905
X5.396Y-3.4855
X5.4886Y-5.3093
X5.6583Y-6.3334
X5.7083Y-6.3034
X6.7443Y-5.7272
X6.9312Y-3.6581
X6.9312Y-4.1781
X6.9443Y-4.4272
X6.9443Y-4.7772
X6.9443Y-5.0772
X6.9443Y-5.3772
X6.9812Y-3.6581
X6.9943Y-2.4272
X6.9943Y-2.5272
X6.9943Y-2.6272
X6.9943Y-3.8772
X7.0012Y-3.0281
X7.0012Y-3.1281
X7.0012Y-3.2281
X7.0112Y-3.3881
X7.0112Y-3.4881
X7.0443Y-4.3272
X7.0693Y-6.2281
X7.2193Y-3.9531
X7.2693Y-6.0531
X7.3612Y-3.1281
X7.3943Y-4.7031
X7.3943Y-4.9031
X7.4112Y-3.0281
X7.4612Y-3.1581
X7.5012Y-3.7781
X7.5112Y-4.2647
X7.5112Y-4.3947
X7.5112Y-3.8881
X7.5112Y-3.9981
X7.5443Y-4.3031
X7.5443Y-4.4272
X7.5912Y-2.8281
X7.6012Y-2.6081
X7.6943Y-2.9031
X7.7062Y-3.0281
X7.7062Y-3.1281
X7.7193Y-3.8031
X7.7193Y-4.5531
X7.7943Y-5.9531
X8.0062Y-3.1281
X8.0312Y-3.0281
X8.1583Y-5.8834
X8.2193Y-4.5531
X8.2315Y-5.2101
X8.2367Y-5.1432
X8.2693Y-3.0531
X8.2693Y-3.8031
X8.3862Y-5.1097
X8.4062Y-2.8281
X8.4362Y-5.1097
X8.4962Y-5.1097
X8.5193Y-2.9593
X8.5193Y-3.7093
X8.5193Y-4.4593
X8.5436Y-5.11
X8.5848Y-5.1091
X8.6193Y-5.9531
X8.6943Y-5.2281
X8.9312Y-5.1081
X8.9812Y-2.8031
X9.0193Y-2.9593
X9.0193Y-3.7093
X9.0193Y-4.4593
X9.1812Y-2.7281
X9.2193Y-2.8656
X9.2193Y-3.6156
X9.2193Y-4.3656
X9.7193Y-2.8656
X9.7193Y-4.3656
X9.7562Y-2.7031
X9.7693Y-3.6156
X9.9062Y-2.6531
X9.9693Y-3.6156
X10.0193Y-2.8656
X10.0193Y-4.3656
X10.1443Y-2.5531
X10.3443Y-2.5531
X10.4753Y-2.631
X10.5193Y-2.8656
X10.5193Y-3.6156
X10.5193Y-4.3656
X10.6612Y-5.1581
X10.7112Y-2.3681
X10.7193Y-3.0531
X10.7193Y-3.8031
X10.7193Y-4.5531
X10.7612Y-5.2581
X10.7712Y-2.8481
X10.8512Y-5.1681
X10.8512Y-5.2181
X11.2512Y-2.8481
X11.2612Y-2.3581
X11.2693Y-3.0531
X11.2693Y-3.8031
X11.2693Y-4.5531
X11.4712Y-2.7781
X11.5943Y-3.4272
X11.5943Y-4.1772
X11.6443Y-4.9272
X12.0212Y-2.7381
X12.0212Y-5.6281
X12.0443Y-3.4272
X12.0443Y-4.1772
X12.0443Y-4.9272
X12.0712Y-5.5881
T4
X4.8632Y-2.9772
X4.8632Y-3.1772
X4.8632Y-3.2772
X4.8632Y-3.3772
X4.8632Y-3.4772
X4.8636Y-2.3772
X4.8636Y-2.4772
X4.8636Y-2.5772
X4.8636Y-2.6772
X4.8636Y-2.7772
X4.8636Y-2.8772
X4.8636Y-3.0772
X4.8636Y-3.5772
X4.9565Y-4.074
X4.9565Y-4.2236
X5.4636Y-2.3772
X5.4636Y-2.4772
X5.4636Y-2.5772
X5.4636Y-2.6772
X5.4636Y-2.7772
X5.4636Y-2.8772
X5.4636Y-3.0772
X5.4636Y-3.1772
X5.4636Y-3.5772
X5.464Y-2.9772
X5.464Y-3.2772
X5.464Y-3.3772
X5.464Y-3.4772
X6.9439Y-2.9772
X6.9439Y-3.1772
X6.9439Y-3.2772
X6.9439Y-3.3772
X6.9439Y-3.4772
X6.9443Y-2.3772
X6.9443Y-2.4772
X6.9443Y-2.5772
X6.9443Y-2.6772
X6.9443Y-2.7772
X6.9443Y-2.8772
X6.9443Y-3.0772
X6.9443Y-3.5772
X7.455Y-4.072
X7.455Y-4.2216
X7.5443Y-2.3772
X7.5443Y-2.4772
X7.5443Y-2.5772
X7.5443Y-2.6772
X7.5443Y-2.7772
X7.5443Y-2.8772
X7.5443Y-3.0772
X7.5443Y-3.1772
X7.5443Y-3.5772
X7.5447Y-2.9772
X7.5447Y-3.2772
X7.5447Y-3.3772
X7.5447Y-3.4772
T5
X11.1266Y-5.5872
X11.1266Y-5.6872
X11.1266Y-5.7872
X11.1266Y-5.8872
X11.1266Y-5.9872
X11.1266Y-6.0872
X11.1266Y-6.1872
T6
X5.4502Y-3.7098
X5.4502Y-3.9657
X6.9573Y-3.7098
X6.9573Y-3.9657
T7
X4.9067Y-4.5091
X5.4205Y-4.5091
X6.9874Y-4.5091
X7.5012Y-4.5091
T3
G00X5.0742Y-4.0661
M15
G01X5.0467Y-4.0661
M16
G05
G00X5.1333Y-4.2315
M15
G01X5.1057Y-4.2315
M16
G05
G00X5.2907Y-4.2315
M15
G01X5.2632Y-4.2315
M16
G05
G00X5.4089Y-4.2315
M15
G01X5.3813Y-4.2315
M16
G05
G00X7.0026Y-4.0642
M15
G01X7.0302Y-4.0642
M16
G05
G00X7.1207Y-4.0642
M15
G01X7.1483Y-4.0642
M16
G05
G00X7.2782Y-4.0642
M15
G01X7.3057Y-4.0642
M16
G05
G00X7.3372Y-4.2295
M15
G01X7.3648Y-4.2295
M16
G05
T0
M30
