M48
METRIC,TZ
T1C0.300
T2C0.400
T3C0.800
T4C0.813
T5C1.000
T6C1.300
%
G90
G05
T1
X7995Y-73509
X7995Y-76509
X7995Y-92559
X7995Y-95559
X7995Y-111609
X7995Y-114609
X7995Y-130659
X7995Y-133659
X24445Y-70969
X24445Y-73969
X24445Y-90019
X24445Y-93019
X24445Y-109069
X24445Y-112069
X24445Y-128119
X24445Y-131119
X27045Y-63984
X27045Y-66984
X27045Y-83034
X27045Y-86034
X27045Y-102084
X27045Y-105084
X27045Y-121134
X27045Y-124134
X43495Y-61444
X43495Y-64444
X43495Y-80494
X43495Y-83494
X43495Y-99544
X43495Y-102544
X43495Y-118594
X43495Y-121594
X46095Y-59221
X46095Y-62221
X46095Y-78271
X46095Y-81271
X46095Y-97321
X46095Y-100321
X46095Y-116371
X46095Y-119371
X62545Y-56681
X62545Y-59681
X62545Y-75731
X62545Y-78731
X62545Y-94781
X62545Y-97781
X62545Y-113831
X62545Y-116831
X65145Y-59221
X65145Y-62221
X65145Y-78271
X65145Y-81271
X65145Y-97321
X65145Y-100321
X65145Y-116371
X65145Y-119371
X67526Y-137938
X67526Y-140938
X81595Y-56681
X81595Y-59681
X81595Y-75731
X81595Y-78731
X81595Y-94781
X81595Y-97781
X81595Y-113831
X81595Y-116831
X83976Y-135398
X83976Y-138398
X84195Y-61602
X84195Y-64602
X84195Y-80652
X84195Y-83652
X84195Y-99702
X84195Y-102702
X84195Y-118752
X84195Y-121752
X93720Y-143018
X93720Y-146018
X100645Y-59062
X100645Y-62062
X100645Y-78112
X100645Y-81112
X100645Y-97162
X100645Y-100162
X100645Y-116212
X100645Y-119212
X103245Y-63984
X103245Y-66984
X103245Y-83034
X103245Y-86034
X103245Y-102084
X103245Y-105084
X103245Y-121134
X103245Y-124134
X110170Y-140478
X110170Y-143478
X115341Y-146359
X115862Y-143405
X119695Y-61444
X119695Y-64444
X119695Y-80494
X119695Y-83494
X119695Y-99544
X119695Y-102544
X119695Y-118594
X119695Y-121594
X122295Y-123015
X122295Y-126015
X131982Y-146714
X132503Y-143760
X136575Y-150450
X137601Y-147630
X138745Y-120475
X138745Y-123475
X152902Y-153689
X153928Y-150870
X160907Y-153691
X161933Y-156510
X175145Y-123015
X175145Y-126015
X175496Y-145678
X176522Y-148497
X181846Y-146482
X182367Y-149437
X191595Y-120475
X191595Y-123475
X194195Y-63984
X194195Y-66984
X194195Y-83034
X194195Y-86034
X194195Y-102084
X194195Y-105084
X194195Y-121134
X194195Y-124134
X197605Y-141124
X198126Y-144079
X203720Y-143018
X203720Y-146018
X210645Y-61444
X210645Y-64444
X210645Y-80494
X210645Y-83494
X210645Y-99544
X210645Y-102544
X210645Y-118594
X210645Y-121594
X213245Y-61602
X213245Y-64602
X213245Y-80652
X213245Y-83652
X213245Y-99702
X213245Y-102702
X213245Y-118752
X213245Y-121752
X220170Y-140478
X220170Y-143478
X229695Y-59062
X229695Y-62062
X229695Y-78112
X229695Y-81112
X229695Y-97162
X229695Y-100162
X229695Y-116212
X229695Y-119212
X232295Y-59221
X232295Y-62221
X232295Y-78271
X232295Y-81271
X232295Y-97321
X232295Y-100321
X232295Y-116371
X232295Y-119371
X248745Y-56681
X248745Y-59681
X248745Y-75731
X248745Y-78731
X248745Y-94781
X248745Y-97781
X248745Y-113831
X248745Y-116831
X251345Y-59221
X251345Y-62221
X251345Y-78271
X251345Y-81271
X251345Y-97321
X251345Y-100321
X251345Y-116371
X251345Y-119371
X267795Y-56681
X267795Y-59681
X267795Y-75731
X267795Y-78731
X267795Y-94781
X267795Y-97781
X267795Y-113831
X267795Y-116831
X270395Y-63984
X270395Y-66984
X270395Y-83034
X270395Y-86034
X270395Y-102084
X270395Y-105084
X270395Y-121134
X270395Y-124134
X286845Y-61444
X286845Y-64444
X286845Y-80494
X286845Y-83494
X286845Y-99544
X286845Y-102544
X286845Y-118594
X286845Y-121594
X289445Y-73509
X289445Y-76509
X289445Y-92559
X289445Y-95559
X289445Y-111609
X289445Y-114609
X289445Y-130659
X289445Y-133659
X305895Y-70969
X305895Y-73969
X305895Y-90019
X305895Y-93019
X305895Y-109069
X305895Y-112069
X305895Y-128119
X305895Y-131119
T2
X8346Y-141938
X8600Y-71834
X9362Y-143208
X9870Y-106124
X9870Y-125174
X10505Y-87074
X21300Y-87074
X21300Y-125174
X23522Y-139461
X23840Y-106124
X25618Y-69294
X26126Y-76152
X27176Y-126451
X27459Y-133619
X27900Y-70060
X27904Y-74882
X28446Y-127721
X28920Y-77549
X28920Y-96599
X28920Y-115649
X42890Y-77549
X42890Y-96599
X43525Y-115649
X47208Y-69802
X47970Y-72786
X47970Y-91836
X47970Y-110886
X60670Y-110886
X61305Y-72786
X61305Y-91836
X61432Y-67516
X64734Y-67516
X65544Y-131105
X65750Y-56752
X65750Y-148288
X66537Y-143436
X67020Y-91836
X67528Y-150066
X68290Y-110886
X68925Y-72786
X75910Y-131682
X80736Y-67516
X80990Y-72786
X80990Y-91836
X80990Y-110886
X80990Y-129936
X84165Y-59292
X85054Y-69548
X86070Y-75167
X86070Y-94217
X86070Y-113267
X92420Y-131047
X94452Y-154130
X94960Y-147557
X95722Y-155146
X99405Y-75167
X99405Y-113267
X99786Y-69802
X100040Y-94217
X102834Y-71072
X105120Y-96599
X106390Y-77549
X110200Y-136762
X117820Y-136762
X118455Y-77549
X118836Y-72088
X119090Y-96599
X119090Y-115649
X125186Y-67770
X126202Y-68532
X126456Y-83518
X126710Y-86058
X126710Y-88344
X136870Y-83518
X136870Y-86058
X136870Y-88344
X139410Y-134857
X148808Y-164290
X149316Y-163020
X154650Y-150097
X161145Y-149280
X166225Y-162639
X171305Y-145470
X176053Y-92916
X176053Y-106124
X176385Y-112450
X176385Y-121340
X176385Y-128960
X176385Y-136580
X177323Y-92916
X177655Y-61650
X177655Y-64190
X177655Y-66730
X177655Y-98480
X177831Y-76914
X177831Y-79454
X177831Y-81994
X178085Y-86058
X178085Y-88598
X178925Y-109910
X179560Y-158194
X183370Y-100409
X184640Y-153749
X186975Y-79454
X187815Y-119459
X187815Y-124539
X188245Y-76914
X189515Y-80216
X190531Y-95964
X190785Y-108323
X190785Y-111625
X190785Y-98758
X190785Y-101552
X191625Y-109299
X191625Y-113109
X192817Y-71834
X193071Y-66246
X194976Y-129913
X195435Y-73739
X195738Y-76914
X195738Y-79454
X196070Y-96599
X196070Y-115649
X197975Y-151209
X203358Y-79454
X203993Y-76914
X206230Y-151209
X208770Y-115649
X209073Y-132286
X209327Y-130254
X210040Y-77549
X210040Y-96599
X213010Y-129786
X213518Y-71834
X214280Y-129786
X215804Y-129786
X216390Y-75167
X216390Y-94217
X216390Y-113267
X217709Y-129746
X218930Y-151209
X220835Y-132794
X226853Y-129746
X228123Y-71199
X229090Y-75167
X229090Y-94217
X229090Y-113267
X233203Y-69294
X234170Y-72786
X234170Y-91836
X234170Y-110886
X246870Y-72786
X246870Y-110886
X247808Y-68659
X248140Y-91836
X251618Y-67389
X253220Y-91836
X254490Y-72786
X254490Y-110886
X257665Y-64849
X262745Y-64849
X266223Y-67389
X267190Y-72786
X267190Y-91836
X267190Y-110886
X270795Y-131016
X272065Y-60150
X272270Y-77549
X272270Y-96599
X272270Y-115649
X273335Y-133556
X273589Y-72342
X275621Y-131270
X275621Y-132540
X285781Y-72342
X286035Y-59896
X286240Y-77549
X286240Y-96599
X286240Y-115649
X291369Y-70564
X294495Y-87050
X294495Y-106100
X295765Y-125150
X305339Y-69548
X305339Y-142954
X305925Y-87050
X305925Y-106100
X305925Y-125150
X306609Y-141938
T4
X123525Y-75620
X123525Y-80700
X123525Y-83240
X123525Y-85780
X123525Y-88320
X123535Y-60380
X123535Y-62920
X123535Y-65460
X123535Y-68000
X123535Y-70540
X123535Y-73080
X123535Y-78160
X123535Y-90860
X125895Y-106480
X125895Y-110280
X138775Y-60380
X138775Y-62920
X138775Y-65460
X138775Y-68000
X138775Y-70540
X138775Y-73080
X138775Y-78160
X138775Y-80700
X138775Y-90860
X138785Y-75620
X138785Y-83240
X138785Y-85780
X138785Y-88320
X176375Y-75620
X176375Y-80700
X176375Y-83240
X176375Y-85780
X176375Y-88320
X176385Y-60380
X176385Y-62920
X176385Y-65460
X176385Y-68000
X176385Y-70540
X176385Y-73080
X176385Y-78160
X176385Y-90860
X189356Y-106430
X189356Y-110230
X191625Y-60380
X191625Y-62920
X191625Y-65460
X191625Y-68000
X191625Y-70540
X191625Y-73080
X191625Y-78160
X191625Y-80700
X191625Y-90860
X191635Y-75620
X191635Y-83240
X191635Y-85780
X191635Y-88320
T5
X282616Y-141914
X282616Y-144454
X282616Y-146994
X282616Y-149534
X282616Y-152074
X282616Y-154614
X282616Y-157154
T6
X138435Y-95230
X138435Y-101730
X176716Y-95230
X176716Y-101730
T3
G00X128885Y-106280
M15
G01X128185Y-106280
M16
G05
G00X130385Y-110480
M15
G01X129685Y-110480
M16
G05
G00X134385Y-110480
M15
G01X133685Y-110480
M16
G05
G00X137385Y-110480
M15
G01X136685Y-110480
M16
G05
G00X177866Y-106230
M15
G01X178566Y-106230
M16
G05
G00X180866Y-106230
M15
G01X181566Y-106230
M16
G05
G00X184866Y-106230
M15
G01X185566Y-106230
M16
G05
G00X186366Y-110430
M15
G01X187066Y-110430
M16
G05
T0
M30
