G04 #@! TF.GenerationSoftware,KiCad,Pcbnew,7.0.2*
G04 #@! TF.CreationDate,2023-10-10T22:26:24+09:00*
G04 #@! TF.ProjectId,SumNight57,53756d4e-6967-4687-9435-372e6b696361,rev?*
G04 #@! TF.SameCoordinates,Original*
G04 #@! TF.FileFunction,Paste,Top*
G04 #@! TF.FilePolarity,Positive*
%FSLAX46Y46*%
G04 Gerber Fmt 4.6, Leading zero omitted, Abs format (unit mm)*
G04 Created by KiCad (PCBNEW 7.0.2) date 2023-10-10 22:26:24*
%MOMM*%
%LPD*%
G01*
G04 APERTURE LIST*
G04 #@! TA.AperFunction,Profile*
%ADD10C,0.074083*%
G04 #@! TD*
G04 APERTURE END LIST*
D10*
X179035249Y-66670373D02*
X179044201Y-66693083D01*
X306573329Y-50029916D02*
X306525502Y-50040696D01*
X125728919Y-59004012D02*
X125753069Y-59008226D01*
X306381064Y-175058653D02*
X306329542Y-175059954D01*
X65077850Y-150664696D02*
X65063758Y-150644619D01*
X270191759Y-129744645D02*
X270181920Y-129722345D01*
X136463680Y-59036570D02*
X136486423Y-59027795D01*
X279576058Y-134214145D02*
X279551790Y-134208562D01*
X26698126Y-68409360D02*
X26716270Y-68393644D01*
X126395658Y-66926093D02*
X126416599Y-66938132D01*
X126375369Y-66913087D02*
X126395658Y-66926093D01*
X8000851Y-45500829D02*
X8028728Y-45461619D01*
X270267828Y-133889834D02*
X270259070Y-133867092D01*
X188556125Y-66995895D02*
X188581134Y-66992716D01*
X288319114Y-68218138D02*
X288329158Y-68240290D01*
X64979168Y-129910492D02*
X64977237Y-129885094D01*
X8193950Y-170288349D02*
X8231722Y-170258665D01*
X93757272Y-155984351D02*
X93737851Y-155969234D01*
X165421601Y-165874328D02*
X165398092Y-165869044D01*
X83060296Y-56289181D02*
X83069249Y-56311891D01*
X306481996Y-45071447D02*
X306531283Y-45080241D01*
X179104240Y-66797631D02*
X179119084Y-66816522D01*
X232119906Y-56218018D02*
X232124303Y-56193390D01*
X64778970Y-129535505D02*
X64759365Y-129521565D01*
X44959238Y-129767663D02*
X44951570Y-129790833D01*
X44929342Y-133723653D02*
X44927511Y-133748266D01*
X212859613Y-58913146D02*
X212879218Y-58899205D01*
X159516493Y-148892306D02*
X174650923Y-143383685D01*
X230730676Y-131806999D02*
X230706048Y-131811396D01*
X306963294Y-170286488D02*
X307000420Y-170318732D01*
X159448972Y-148922646D02*
X159470884Y-148911465D01*
X126603844Y-66995895D02*
X126629244Y-66997826D01*
X178626837Y-59013606D02*
X178650386Y-59020134D01*
X132083103Y-159531626D02*
X132072325Y-159529620D01*
X45968116Y-54544639D02*
X45977988Y-54522339D01*
X8208165Y-68538605D02*
X8232049Y-68533225D01*
X307184156Y-143577090D02*
X307165932Y-143594167D01*
X135973157Y-66884303D02*
X135991301Y-66868587D01*
X93684053Y-155918097D02*
X93667952Y-155899403D01*
X126070978Y-59221071D02*
X126084041Y-59241765D01*
X83176403Y-56470839D02*
X83193769Y-56487395D01*
X287904245Y-59014276D02*
X287927936Y-59021014D01*
X174609248Y-59162843D02*
X174626326Y-59144850D01*
X307184156Y-68669852D02*
X307201049Y-68687844D01*
X150067328Y-165643462D02*
X150054099Y-165664046D01*
X125952462Y-59096567D02*
X125971884Y-59111672D01*
X221557036Y-155796343D02*
X221546082Y-155818140D01*
X150079565Y-165622204D02*
X150067328Y-165643462D01*
X280081408Y-160077300D02*
X280065055Y-160058572D01*
X269943239Y-129483861D02*
X269920889Y-129473975D01*
X140405311Y-117530619D02*
X140393116Y-117532141D01*
X213408045Y-56647621D02*
X213431266Y-56639761D01*
X64985295Y-150441013D02*
X64982264Y-150416578D01*
X44882051Y-133912391D02*
X44871098Y-133934187D01*
X306477117Y-170070971D02*
X306525502Y-170079402D01*
X8193950Y-174831628D02*
X8157670Y-174800201D01*
X231145682Y-129810980D02*
X231140099Y-129835176D01*
X270117117Y-129619133D02*
X270101170Y-129600439D01*
X159234175Y-149150805D02*
X159245222Y-149128560D01*
X98730063Y-170060015D02*
X98730063Y-156082621D01*
X7890759Y-45716136D02*
X7908662Y-45670717D01*
X44746924Y-134085535D02*
X44727502Y-134100640D01*
X8440764Y-174981377D02*
X8396474Y-174961353D01*
X82990668Y-54541431D02*
X82999620Y-54564141D01*
X26380018Y-134198672D02*
X26355233Y-134199286D01*
X83019801Y-54635304D02*
X83024198Y-54659932D01*
X7830699Y-143248388D02*
X7830085Y-143223605D01*
X7830085Y-49059992D02*
X7830085Y-46060051D01*
X149564587Y-165877789D02*
X149540448Y-165873486D01*
X280116525Y-160112371D02*
X280098768Y-160095294D01*
X232391653Y-54296382D02*
X232413203Y-54285340D01*
X288207041Y-59239277D02*
X288219114Y-59260218D01*
X232145803Y-54611109D02*
X232152539Y-54587377D01*
X221318637Y-156034715D02*
X221296337Y-156044588D01*
X140181470Y-142953156D02*
X140185981Y-142991603D01*
X46405318Y-54236651D02*
X46430147Y-54236037D01*
X174744502Y-59057395D02*
X174766307Y-59046442D01*
X93332132Y-150951207D02*
X93311448Y-150938118D01*
X288279023Y-59472861D02*
X288279677Y-59498599D01*
X7928116Y-143520950D02*
X7914024Y-143500874D01*
X213064321Y-58623464D02*
X213069904Y-58599268D01*
X26895824Y-59373609D02*
X26902561Y-59349878D01*
X280237607Y-160193701D02*
X280215908Y-160182748D01*
X165493665Y-165883321D02*
X165469428Y-165881485D01*
X125704517Y-59000981D02*
X125728919Y-59004012D01*
X231553836Y-129441669D02*
X231529208Y-129446065D01*
X64982264Y-150416578D02*
X64980433Y-150391926D01*
X136082732Y-66757738D02*
X136094772Y-66736796D01*
X307245958Y-68746071D02*
X307258940Y-68766765D01*
X188699553Y-66959186D02*
X188721691Y-66949174D01*
X7900961Y-68766765D02*
X7914024Y-68746071D01*
X136509577Y-59020134D02*
X136533104Y-59013606D01*
X136486423Y-59027795D02*
X136509577Y-59020134D01*
X174785734Y-143309480D02*
X174800537Y-143297590D01*
X8094583Y-143664544D02*
X8073314Y-143652527D01*
X8116388Y-143675497D02*
X8094583Y-143664544D01*
X26596838Y-68474232D02*
X26618400Y-68463190D01*
X93200151Y-150888766D02*
X93176607Y-150882231D01*
X174866879Y-143230611D02*
X174878530Y-143215829D01*
X7831386Y-174111556D02*
X7830085Y-174060107D01*
X45846034Y-58775852D02*
X45859122Y-58755168D01*
X270084272Y-129582491D02*
X270066048Y-129565366D01*
X270473103Y-134127529D02*
X270452291Y-134114466D01*
X8778494Y-45061227D02*
X8829945Y-45059926D01*
X26880083Y-68023470D02*
X26880083Y-59498599D01*
X101818272Y-56677623D02*
X101839214Y-56689659D01*
X64979818Y-146712931D02*
X64979818Y-129936228D01*
X26306201Y-134204150D02*
X26282037Y-134208366D01*
X231190286Y-129697590D02*
X231179244Y-129719152D01*
X307270895Y-68788034D02*
X307281804Y-68809839D01*
X93613675Y-155817992D02*
X93602721Y-155796188D01*
X179266590Y-66938132D02*
X179288152Y-66949174D01*
X149710512Y-165878603D02*
X149686279Y-165881438D01*
X65126135Y-150720835D02*
X65109056Y-150702845D01*
X306951273Y-143708335D02*
X306927420Y-143713715D01*
X102194126Y-58816580D02*
X102209842Y-58834723D01*
X45503838Y-58993058D02*
X45528002Y-58988841D01*
X288078368Y-59097867D02*
X288097273Y-59112711D01*
X136008667Y-66852031D02*
X136025224Y-66834665D01*
X25657423Y-143639464D02*
X25636729Y-143652527D01*
X25918025Y-134507408D02*
X25909239Y-134530164D01*
X231169232Y-129741303D02*
X231160280Y-129764013D01*
X126204223Y-66715234D02*
X126215264Y-66736796D01*
X306712530Y-170136124D02*
X306757194Y-170155885D01*
X8232049Y-143713715D02*
X8208165Y-143708335D01*
X140281279Y-117578526D02*
X140271574Y-117586085D01*
X8727718Y-50054953D02*
X8677681Y-50048591D01*
X289166131Y-160059696D02*
X289150458Y-160077833D01*
X307310218Y-170863968D02*
X307318687Y-170912282D01*
X307043123Y-68571441D02*
X307065000Y-68582395D01*
X307070087Y-174732369D02*
X307036985Y-174767094D01*
X268851291Y-54251107D02*
X268874824Y-54257635D01*
X174495069Y-59376616D02*
X174501599Y-59353068D01*
X269230306Y-58523260D02*
X269232147Y-58547880D01*
X287995964Y-59047839D02*
X288017518Y-59058881D01*
X44527994Y-134188982D02*
X44503814Y-134193196D01*
X136284343Y-59162843D02*
X136301420Y-59144850D01*
X280282485Y-160212349D02*
X280259813Y-160203574D01*
X155902372Y-149108079D02*
X155914051Y-149129048D01*
X178875673Y-59162843D02*
X178891772Y-59181570D01*
X232370724Y-54308421D02*
X232391653Y-54296382D01*
X140236653Y-117621007D02*
X140229094Y-117630713D01*
X64797860Y-129550349D02*
X64778970Y-129535505D01*
X159387195Y-148962237D02*
X159407094Y-148948061D01*
X178957002Y-59284839D02*
X178966875Y-59307140D01*
X268943129Y-54283943D02*
X268965003Y-54294896D01*
X126025682Y-59162843D02*
X126041781Y-59181570D01*
X269084150Y-54382351D02*
X269101043Y-54400343D01*
X82848001Y-54350211D02*
X82866145Y-54365927D01*
X183076194Y-159531874D02*
X183065526Y-159534097D01*
X159193184Y-149437707D02*
X159190091Y-149413427D01*
X83144131Y-56435329D02*
X83159847Y-56453473D01*
X306763415Y-45158533D02*
X306806544Y-45180616D01*
X64739076Y-129508559D02*
X64718134Y-129496520D01*
X140569785Y-117486710D02*
X140559641Y-117493210D01*
X25841924Y-143414836D02*
X25832052Y-143437125D01*
X269851389Y-129450986D02*
X269827536Y-129445602D01*
X288905235Y-160225870D02*
X288880964Y-160231453D01*
X82915783Y-54417993D02*
X82930627Y-54436883D01*
X159192442Y-149291704D02*
X159196461Y-149267606D01*
X178802457Y-59096567D02*
X178821878Y-59111672D01*
X174825649Y-117548474D02*
X174814265Y-117544074D01*
X174621630Y-117504746D02*
X174610848Y-117499227D01*
X189169372Y-59127772D02*
X189188064Y-59111672D01*
X269145952Y-54458571D02*
X269158934Y-54479265D01*
X8311491Y-174915196D02*
X8270923Y-174889188D01*
X132104449Y-159536359D02*
X132093810Y-159533874D01*
X136124780Y-66670373D02*
X136132640Y-66647137D01*
X112479139Y-156082621D02*
X105929907Y-156082621D01*
X269473834Y-58927574D02*
X269494984Y-58939612D01*
X306719104Y-174981377D02*
X306673672Y-174999280D01*
X132156736Y-159552111D02*
X132146389Y-159548538D01*
X25715652Y-143594167D02*
X25696924Y-143610267D01*
X27026531Y-59144983D02*
X27043897Y-59128427D01*
X174626326Y-59144850D02*
X174644316Y-59127772D01*
X83027378Y-54684962D02*
X83029308Y-54710361D01*
X213194217Y-56799195D02*
X213209928Y-56781059D01*
X179044201Y-66693083D02*
X179054214Y-66715234D01*
X232215438Y-54456488D02*
X232229374Y-54436883D01*
X64849927Y-129599987D02*
X64833370Y-129582621D01*
X93584074Y-155751130D02*
X93576414Y-155727959D01*
X7831386Y-49111444D02*
X7830085Y-49059992D01*
X174897807Y-117594139D02*
X174888455Y-117586085D01*
X26965474Y-59218988D02*
X26979414Y-59199383D01*
X8778494Y-50058816D02*
X8727718Y-50054953D01*
X102320692Y-58926151D02*
X102341633Y-58938191D01*
X136581111Y-59004012D02*
X136605512Y-59000981D01*
X289703943Y-143729167D02*
X289679375Y-143733564D01*
X112490042Y-156082733D02*
X112479139Y-156082621D01*
X202658267Y-156083113D02*
X202647374Y-156083724D01*
X280098768Y-160095294D02*
X280081408Y-160077300D01*
X136176715Y-59353068D02*
X136184374Y-59329896D01*
X136094772Y-66736796D02*
X136105814Y-66715234D01*
X213090218Y-57016378D02*
X213095801Y-56992201D01*
X64604741Y-129451915D02*
X64580545Y-129446332D01*
X136105814Y-66715234D02*
X136115827Y-66693083D01*
X46261442Y-54265295D02*
X46284615Y-54257635D01*
X307319975Y-68925500D02*
X307324198Y-68949681D01*
X102455024Y-58982795D02*
X102479220Y-58988378D01*
X65357812Y-150852082D02*
X65334284Y-150845553D01*
X300929396Y-68523535D02*
X306829603Y-68523535D01*
X126269093Y-66816522D02*
X126284809Y-66834665D01*
X269232147Y-58547880D02*
X269235197Y-58572292D01*
X306719104Y-45138507D02*
X306763415Y-45158533D01*
X293730085Y-170060015D02*
X293730085Y-143723406D01*
X231099604Y-131489052D02*
X231090652Y-131511761D01*
X221583347Y-155728155D02*
X221575686Y-155751310D01*
X232069717Y-56355604D02*
X232080759Y-56334042D01*
X126301365Y-66852031D02*
X126318731Y-66868587D01*
X140680006Y-59498599D02*
X140680006Y-117279620D01*
X8532625Y-175015000D02*
X8486168Y-174999280D01*
X174499642Y-117376804D02*
X174495165Y-117365464D01*
X289018807Y-160181271D02*
X288997232Y-160192311D01*
X288017518Y-59058881D02*
X288038458Y-59070921D01*
X45951681Y-54590568D02*
X45959341Y-54567395D01*
X126284809Y-66834665D02*
X126301365Y-66852031D01*
X101994564Y-56837673D02*
X102007569Y-56857952D01*
X140598104Y-117464474D02*
X140589033Y-117472326D01*
X288219114Y-59260218D02*
X288230189Y-59281780D01*
X231948104Y-56503111D02*
X231966248Y-56487395D01*
X232152539Y-54587377D02*
X232160399Y-54564141D01*
X8532625Y-50015140D02*
X8486168Y-49999412D01*
X179007493Y-66549552D02*
X179010672Y-66574581D01*
X269131964Y-54438493D02*
X269145952Y-54458571D01*
X165136491Y-165706045D02*
X165121161Y-165686911D01*
X307324538Y-45957779D02*
X307328395Y-46008577D01*
X26505008Y-68507795D02*
X26528740Y-68501057D01*
X232458035Y-54266375D02*
X232481255Y-54258514D01*
X279501940Y-134200986D02*
X279476420Y-134199055D01*
X44951570Y-129790833D02*
X44945035Y-129814376D01*
X102102431Y-58647195D02*
X102110292Y-58670432D01*
X188890685Y-66816522D02*
X188905524Y-66797631D01*
X269278016Y-58712101D02*
X269289095Y-58733904D01*
X136419594Y-59057395D02*
X136441391Y-59046442D01*
X307000420Y-49801383D02*
X306963294Y-49833592D01*
X288310132Y-68195429D02*
X288319114Y-68218138D01*
X288631389Y-68501057D02*
X288655080Y-68507795D01*
X307035963Y-170352938D02*
X307070221Y-170388877D01*
X7851684Y-68878068D02*
X7859344Y-68854895D01*
X26794693Y-68303083D02*
X26807698Y-68282794D01*
X222104475Y-131817156D02*
X222078762Y-131817806D01*
X231706166Y-56611525D02*
X231730794Y-56607128D01*
X174561910Y-117464474D02*
X174553227Y-117456201D01*
X269395583Y-58869081D02*
X269414108Y-58885222D01*
X140457444Y-59082475D02*
X140477537Y-59096567D01*
X65001417Y-150512624D02*
X64994888Y-150489077D01*
X8028728Y-170461664D02*
X8058411Y-170423891D01*
X179151356Y-66852031D02*
X179168721Y-66868587D01*
X213077480Y-58549611D02*
X213079411Y-58524212D01*
X213079411Y-58524212D02*
X213080061Y-58498475D01*
X149991852Y-165738995D02*
X149974105Y-165755724D01*
X221273582Y-156053363D02*
X221250411Y-156061023D01*
X125846350Y-59036570D02*
X125868639Y-59046442D01*
X7877991Y-68809839D02*
X7888944Y-68788034D01*
X140643816Y-117409096D02*
X140637314Y-117419230D01*
X307318185Y-174212367D02*
X307309400Y-174261602D01*
X174980070Y-142913783D02*
X174980070Y-117779421D01*
X213579863Y-56617285D02*
X231630003Y-56617285D01*
X178554334Y-59000981D02*
X178578772Y-59004012D01*
X307161115Y-49614861D02*
X307132832Y-49655016D01*
X83504282Y-56616635D02*
X83530020Y-56617285D01*
X93425364Y-151031684D02*
X93408239Y-151013735D01*
X269986481Y-129506871D02*
X269965116Y-129494832D01*
X174979762Y-117767050D02*
X174978842Y-117754757D01*
X102152337Y-58757796D02*
X102165343Y-58778085D01*
X269827536Y-129445602D02*
X269803403Y-129441386D01*
X25993272Y-134381892D02*
X25978132Y-134401292D01*
X287830574Y-59001117D02*
X287855532Y-59004296D01*
X189004185Y-66524153D02*
X189004835Y-66498416D01*
X270235277Y-133772401D02*
X270232236Y-133747999D01*
X140429976Y-117529391D02*
X140417605Y-117529699D01*
X27120825Y-59070921D02*
X27141766Y-59058881D01*
X232350446Y-54321427D02*
X232370724Y-54308421D01*
X212774669Y-58959245D02*
X212796821Y-58949232D01*
X213102538Y-56968486D02*
X213110398Y-56945266D01*
X232140221Y-54635304D02*
X232145803Y-54611109D01*
X8829945Y-170060015D02*
X13730028Y-170060015D01*
X45930082Y-58498475D02*
X45930082Y-54736098D01*
X126154921Y-66498416D02*
X126155571Y-66524153D01*
X288230189Y-59281780D02*
X288240234Y-59303932D01*
X8122945Y-49767125D02*
X8089838Y-49732388D01*
X288608185Y-68493197D02*
X288631389Y-68501057D01*
X8089838Y-174732369D02*
X8058411Y-174696090D01*
X188676857Y-66968139D02*
X188699553Y-66959186D01*
X231080640Y-131533913D02*
X231069598Y-131555475D01*
X270229780Y-133698603D02*
X270229780Y-129935969D01*
X270146082Y-129658594D02*
X270132094Y-129638532D01*
X269965116Y-129494832D02*
X269943239Y-129483861D01*
X140660362Y-117376804D02*
X140655356Y-117387867D01*
X7914024Y-143500874D02*
X7900961Y-143480185D01*
X202669171Y-156082745D02*
X202658267Y-156083113D01*
X65266097Y-150819246D02*
X65244300Y-150808293D01*
X189455502Y-59000981D02*
X189480124Y-58999150D01*
X189151426Y-59144850D02*
X189169372Y-59127772D01*
X196230070Y-58998536D02*
X196230070Y-50060118D01*
X140650751Y-59329896D02*
X140658411Y-59353068D01*
X45707400Y-58914485D02*
X45727463Y-58900363D01*
X83478883Y-56614704D02*
X83504282Y-56616635D01*
X189207461Y-59096567D02*
X189227522Y-59082475D01*
X165069103Y-165602087D02*
X165058604Y-165578903D01*
X7974843Y-174578550D02*
X7950767Y-174536680D01*
X64979818Y-150367098D02*
X64979818Y-146712931D01*
X174881968Y-59008226D02*
X174906149Y-59004012D01*
X268965003Y-54294896D02*
X268986366Y-54306912D01*
X7908662Y-45670717D02*
X7928686Y-45626414D01*
X82606057Y-54241798D02*
X82630686Y-54246194D01*
X221534064Y-155839403D02*
X221520999Y-155860092D01*
X7959321Y-143559098D02*
X7943221Y-143540371D01*
X83090303Y-56355604D02*
X83102342Y-56376545D01*
X8353362Y-174939272D02*
X8311491Y-174915196D01*
X307211460Y-170589153D02*
X307233453Y-170632752D01*
X174632706Y-117509750D02*
X174621630Y-117504746D01*
X270632030Y-134188715D02*
X270608178Y-134183335D01*
X269219969Y-54638000D02*
X269224192Y-54662180D01*
X178602953Y-59008226D02*
X178626837Y-59013606D01*
X189004835Y-66498416D02*
X189004835Y-59498599D01*
X288779707Y-160241610D02*
X280450636Y-160241610D01*
X44816822Y-134015637D02*
X44800722Y-134034363D01*
X82581027Y-54238618D02*
X82606057Y-54241798D01*
X45094485Y-129565626D02*
X45076536Y-129582751D01*
X136605512Y-59000981D02*
X136630123Y-58999150D01*
X25858359Y-143368938D02*
X25850699Y-143392093D01*
X231140099Y-129835176D02*
X231135703Y-129859804D01*
X213226479Y-56763700D02*
X213243838Y-56747149D01*
X82746712Y-54285340D02*
X82768275Y-54296382D01*
X189313572Y-59036570D02*
X189336329Y-59027795D01*
X101631029Y-56619866D02*
X101656058Y-56623046D01*
X26807698Y-68282794D02*
X26819738Y-68261852D01*
X179356250Y-66975999D02*
X179379982Y-66982736D01*
X289302369Y-144074752D02*
X289295605Y-144098484D01*
X213129360Y-56900432D02*
X213140400Y-56878882D01*
X307216994Y-143540371D02*
X307201049Y-143559098D01*
X26952468Y-59239277D02*
X26965474Y-59218988D01*
X306927420Y-143713715D02*
X306903287Y-143717929D01*
X8028728Y-49658312D02*
X8000851Y-49619099D01*
X83029959Y-56117224D02*
X83030609Y-56142962D01*
X64979818Y-129936228D02*
X64979168Y-129910492D01*
X230629881Y-131817156D02*
X222104475Y-131817156D01*
X306848428Y-45204695D02*
X306889005Y-45230706D01*
X155942902Y-149194938D02*
X155950395Y-149217761D01*
X213528774Y-56619866D02*
X213554150Y-56617936D01*
X179288152Y-66949174D02*
X179310304Y-66959186D01*
X165080648Y-165624499D02*
X165069103Y-165602087D01*
X44831927Y-133996215D02*
X44816822Y-134015637D01*
X179004911Y-59498599D02*
X179004911Y-66498416D01*
X8058411Y-170423891D02*
X8089838Y-170387611D01*
X93557261Y-155631960D02*
X93555430Y-155607339D01*
X306974809Y-68545134D02*
X306997989Y-68552794D01*
X232124303Y-56193390D02*
X232127483Y-56168361D01*
X45882130Y-58712101D02*
X45892016Y-58689801D01*
X13730028Y-170060015D02*
X13730028Y-143723406D01*
X159349642Y-148993377D02*
X159368034Y-148977352D01*
X65311129Y-150837893D02*
X65288386Y-150829118D01*
X102074193Y-57040987D02*
X102077373Y-57065995D01*
X26733636Y-68377088D02*
X26750192Y-68359722D01*
X126215264Y-66736796D02*
X126227304Y-66757738D01*
X307328395Y-46008577D02*
X307329695Y-46060051D01*
X289541957Y-143783752D02*
X289521017Y-143795791D01*
X8157670Y-174800201D02*
X8122945Y-174767094D01*
X93841097Y-156034558D02*
X93819300Y-156023581D01*
X230868264Y-131756811D02*
X230846702Y-131767853D01*
X102040663Y-56922570D02*
X102049616Y-56945266D01*
X64628473Y-129458653D02*
X64604741Y-129451915D01*
X93128567Y-150872630D02*
X93104154Y-150869598D01*
X132146389Y-159548538D02*
X132135990Y-159545170D01*
X25874481Y-143297402D02*
X25870267Y-143321553D01*
X155950395Y-149217761D02*
X155956795Y-149240947D01*
X269046997Y-54349173D02*
X269065926Y-54365273D01*
X179077295Y-66757738D02*
X179090300Y-66778026D01*
X232481255Y-54258514D02*
X232504969Y-54251777D01*
X179168721Y-66868587D02*
X179186865Y-66884303D01*
X140325367Y-59020134D02*
X140348546Y-59027795D01*
X7875039Y-170762572D02*
X7890759Y-170716115D01*
X8396474Y-45158533D02*
X8440764Y-45138507D01*
X174778970Y-117534257D02*
X174766895Y-117532141D01*
X140187514Y-117718552D02*
X140184813Y-117730486D01*
X102069797Y-57016378D02*
X102074193Y-57040987D01*
X288975057Y-160202322D02*
X288952312Y-160211274D01*
X45430018Y-129436175D02*
X45405233Y-129436789D01*
X82555628Y-54236687D02*
X82581027Y-54238618D01*
X215929884Y-156082621D02*
X215929884Y-170060015D01*
X307070087Y-45387551D02*
X307101505Y-45423839D01*
X269181798Y-54522339D02*
X269191641Y-54544639D01*
X126554187Y-66988319D02*
X126578815Y-66992716D01*
X93667952Y-155899403D02*
X93652847Y-155880004D01*
X93246079Y-150905222D02*
X93223322Y-150896435D01*
X188919460Y-66778026D02*
X188932463Y-66757738D01*
X306806544Y-45180616D02*
X306848428Y-45204695D01*
X13730028Y-50060118D02*
X8829945Y-50060118D01*
X94029834Y-156082004D02*
X94005221Y-156080164D01*
X213363212Y-56666583D02*
X213385350Y-56656572D01*
X135827004Y-66968139D02*
X135849714Y-66959186D01*
X159368034Y-148977352D02*
X159387195Y-148962237D01*
X221402478Y-155984589D02*
X221382401Y-155998682D01*
X26877502Y-68074607D02*
X26879433Y-68049208D01*
X126154306Y-59473770D02*
X126154921Y-59498599D01*
X307131179Y-174658318D02*
X307101505Y-174696090D01*
X140515958Y-117514225D02*
X140504340Y-117518154D01*
X174980070Y-117779421D02*
X174979762Y-117767050D01*
X307253279Y-49442680D02*
X307233453Y-49487294D01*
X174919344Y-143152646D02*
X174928040Y-143135922D01*
X8052620Y-68607475D02*
X8073314Y-68594411D01*
X136225987Y-59241765D02*
X136239049Y-59221071D01*
X45816772Y-58815313D02*
X45831911Y-58795914D01*
X25870267Y-143321553D02*
X25864888Y-143345411D01*
X83250407Y-56531895D02*
X83270696Y-56544901D01*
X188505034Y-66998477D02*
X188530748Y-66997826D01*
X202593306Y-156090296D02*
X183086897Y-159529879D01*
X280065055Y-160058572D02*
X280049724Y-160039150D01*
X102080605Y-58524212D02*
X102082535Y-58549611D01*
X208730055Y-156082621D02*
X202680082Y-156082621D01*
X44643656Y-134150766D02*
X44621355Y-134160638D01*
X44551878Y-134183602D02*
X44527994Y-134188982D01*
X126165078Y-66599210D02*
X126170661Y-66623405D01*
X83029959Y-54736098D02*
X83029959Y-56117224D01*
X307209105Y-174536680D02*
X307185041Y-174578550D01*
X189034203Y-59329896D02*
X189043003Y-59307140D01*
X288541812Y-68463190D02*
X288563365Y-68474232D01*
X174960987Y-117683809D02*
X174956039Y-117672652D01*
X136055785Y-66797631D02*
X136069726Y-66778026D01*
X179002466Y-59449117D02*
X179004297Y-59473770D01*
X213119349Y-56922570D02*
X213129360Y-56900432D01*
X174900119Y-143185014D02*
X174910033Y-143169016D01*
X232130064Y-54736098D02*
X232130715Y-54710361D01*
X26902561Y-59349878D02*
X26910422Y-59326641D01*
X45920388Y-58596457D02*
X45924604Y-58572292D01*
X45173325Y-129507135D02*
X45152641Y-129520224D01*
X64833370Y-129582621D02*
X64816004Y-129566065D01*
X231350391Y-129521298D02*
X231330785Y-129535239D01*
X8013119Y-68636672D02*
X8032542Y-68621567D01*
X8232049Y-68533225D02*
X8256229Y-68529012D01*
X126008604Y-59144850D02*
X126025682Y-59162843D01*
X289277235Y-159792897D02*
X289274076Y-159817905D01*
X221887871Y-131866403D02*
X221866331Y-131877432D01*
X102179283Y-58797690D02*
X102194126Y-58816580D01*
X232293833Y-54365927D02*
X232311969Y-54350211D01*
X45892016Y-58689801D02*
X45900802Y-58667045D01*
X306889005Y-45230706D02*
X306928211Y-45258587D01*
X231391620Y-129496253D02*
X231370679Y-129508293D01*
X93223322Y-150896435D02*
X93200151Y-150888766D01*
X26330614Y-134201118D02*
X26306201Y-134204150D01*
X307065000Y-68582395D02*
X307086365Y-68594411D01*
X288280330Y-68049208D02*
X288282269Y-68074607D01*
X27080931Y-59097867D02*
X27100536Y-59083926D01*
X136253140Y-59200993D02*
X136268244Y-59181570D01*
X93819300Y-156023581D02*
X93798037Y-156011543D01*
X306620505Y-50016837D02*
X306573329Y-50029916D01*
X213082642Y-57065995D02*
X213085822Y-57040987D01*
X45686716Y-58927574D02*
X45707400Y-58914485D01*
X307159045Y-45500829D02*
X307185041Y-45541407D01*
X188605743Y-66988319D02*
X188629921Y-66982736D01*
X7861564Y-49309884D02*
X7850399Y-49261505D01*
X102085715Y-58574640D02*
X102090111Y-58599268D01*
X288329158Y-68240290D02*
X288340231Y-68261852D01*
X140199036Y-117683809D02*
X140194635Y-117695192D01*
X288132826Y-59144983D02*
X288149409Y-59162349D01*
X213479157Y-56627442D02*
X213503766Y-56623046D01*
X26885844Y-59422433D02*
X26890241Y-59397805D01*
X102503848Y-58992775D02*
X102528878Y-58995954D01*
X306924680Y-170256240D02*
X306963294Y-170286488D01*
X8122945Y-174767094D02*
X8089838Y-174732369D01*
X83102342Y-56376545D02*
X83115347Y-56396834D01*
X159257303Y-149106990D02*
X159270384Y-149086123D01*
X140216476Y-143101620D02*
X140231975Y-143136058D01*
X25796020Y-143500874D02*
X25781927Y-143520950D01*
X155971731Y-149360917D02*
X155971174Y-149385437D01*
X93863386Y-156044455D02*
X93841097Y-156034558D01*
X307127405Y-143625372D02*
X307107180Y-143639464D01*
X221825146Y-131902449D02*
X221805562Y-131916373D01*
X279965762Y-159863610D02*
X279960336Y-159839752D01*
X45528002Y-58988841D02*
X45551877Y-58983458D01*
X140291316Y-117571472D02*
X140281279Y-117578526D01*
X125776928Y-59013606D02*
X125800454Y-59020134D01*
X174965387Y-117695192D02*
X174960987Y-117683809D01*
X288679224Y-68513378D02*
X288703791Y-68517775D01*
X26750192Y-68359722D02*
X26765908Y-68341578D01*
X212839324Y-58926151D02*
X212859613Y-58913146D01*
X213454980Y-56633025D02*
X213479157Y-56627442D01*
X307299408Y-170816235D02*
X307310218Y-170863968D01*
X149661953Y-165883086D02*
X149637577Y-165883546D01*
X26188694Y-134236738D02*
X26166393Y-134246624D01*
X26639341Y-68451150D02*
X26659630Y-68438145D01*
X222078762Y-131817806D02*
X222053387Y-131819735D01*
X279950575Y-134698474D02*
X279949929Y-134672736D01*
X45765557Y-58869081D02*
X45783506Y-58851956D01*
X213019717Y-58736855D02*
X213030759Y-58715293D01*
X125890435Y-59057395D02*
X125911697Y-59069412D01*
X179090300Y-66778026D02*
X179104240Y-66797631D01*
X174704713Y-143360472D02*
X174721812Y-143351458D01*
X45831911Y-58795914D02*
X45846034Y-58775852D01*
X7868119Y-68832139D02*
X7877991Y-68809839D01*
X125868639Y-59046442D02*
X125890435Y-59057395D01*
X212704991Y-58982795D02*
X212728723Y-58976058D01*
X155971081Y-149336518D02*
X155971731Y-149360917D01*
X44727502Y-134100640D02*
X44707424Y-134114733D01*
X306329542Y-45059926D02*
X306381064Y-45061227D01*
X232311969Y-54350211D02*
X232330850Y-54335367D01*
X279851719Y-134399253D02*
X279836923Y-134380363D01*
X140677561Y-59449117D02*
X140679392Y-59473770D01*
X174790904Y-117536957D02*
X174778970Y-117534257D01*
X221955898Y-131839608D02*
X221932685Y-131847459D01*
X174485073Y-117329932D02*
X174482875Y-117317637D01*
X64989509Y-150465193D02*
X64985295Y-150441013D01*
X189431087Y-59004012D02*
X189455502Y-59000981D01*
X102079954Y-57117085D02*
X102079954Y-58498475D01*
X7908662Y-170670709D02*
X7928686Y-170626419D01*
X231114202Y-131442084D02*
X231107465Y-131465815D01*
X8256229Y-68529012D02*
X8280665Y-68525981D01*
X140181174Y-117754757D02*
X140180254Y-117767050D01*
X288394186Y-68341578D02*
X288409930Y-68359722D01*
X7832530Y-68974117D02*
X7835561Y-68949681D01*
X102528878Y-58995954D02*
X102554277Y-58997885D01*
X45132579Y-129534346D02*
X45113179Y-129549486D01*
X270342481Y-134015370D02*
X270327505Y-133995948D01*
X159284432Y-149065990D02*
X159299415Y-149046619D01*
X27255158Y-59014276D02*
X27279354Y-59008693D01*
X44977911Y-129722607D02*
X44968024Y-129744907D01*
X174518038Y-59307140D02*
X174527912Y-59284839D01*
X288289877Y-68124265D02*
X288295481Y-68148460D01*
X26819738Y-68261852D02*
X26830779Y-68240290D01*
X269453276Y-58914485D02*
X269473834Y-58927574D01*
X26910422Y-59326641D02*
X26919374Y-59303932D01*
X188874974Y-66834665D02*
X188890685Y-66816522D01*
X26929387Y-59281780D02*
X26940429Y-59260218D01*
X7831386Y-46008577D02*
X7835247Y-45957779D01*
X93371595Y-150980470D02*
X93352195Y-150965330D01*
X307258940Y-143480185D02*
X307245958Y-143500874D01*
X221421900Y-155969484D02*
X221402478Y-155984589D01*
X221627398Y-132168116D02*
X221620669Y-132191824D01*
X26857605Y-68172192D02*
X26864343Y-68148460D01*
X231889320Y-56544901D02*
X231909609Y-56531895D01*
X7830085Y-69023600D02*
X7830699Y-68998771D01*
X269328782Y-58795914D02*
X269344110Y-58815313D01*
X307324779Y-170961095D02*
X307328460Y-171010326D01*
X140301817Y-59013606D02*
X140325367Y-59020134D01*
X135934660Y-66913087D02*
X135954266Y-66899147D01*
X174504649Y-117387867D02*
X174499642Y-117376804D01*
X288097273Y-59112711D02*
X288115437Y-59128427D01*
X174955240Y-58999150D02*
X174980070Y-58998536D01*
X231824666Y-56577995D02*
X231846817Y-56567982D01*
X140672137Y-117342012D02*
X140668768Y-117353861D01*
X7950767Y-45583290D02*
X7974843Y-45541407D01*
X289410066Y-143887220D02*
X289394321Y-143905364D01*
X288805586Y-160240960D02*
X288779707Y-160241610D01*
X102064214Y-56992201D02*
X102069797Y-57016378D01*
X13730028Y-68523535D02*
X13730028Y-50060118D01*
X83230802Y-56517955D02*
X83250407Y-56531895D01*
X140357337Y-117540232D02*
X140345750Y-117544074D01*
X8073314Y-68594411D02*
X8094583Y-68582395D01*
X270584645Y-134176806D02*
X270561468Y-134169146D01*
X26102642Y-134282721D02*
X26082580Y-134296843D01*
X174682464Y-59096567D02*
X174702541Y-59082475D01*
X45454804Y-58997921D02*
X45479424Y-58996090D01*
X289219770Y-159980009D02*
X289207780Y-160000939D01*
X270229164Y-129911184D02*
X270227327Y-129886565D01*
X25501878Y-143708335D02*
X25477994Y-143713715D01*
X307102523Y-170426297D02*
X307132832Y-170465116D01*
X8486168Y-45120602D02*
X8532625Y-45104881D01*
X269680415Y-58996090D02*
X269704983Y-58997921D01*
X174937990Y-117640752D02*
X174930935Y-117630713D01*
X221979606Y-131832878D02*
X221955898Y-131839608D01*
X179015069Y-66599210D02*
X179020651Y-66623405D01*
X44891924Y-133890101D02*
X44882051Y-133912391D01*
X306379044Y-170061244D02*
X306428266Y-170064907D01*
X188858423Y-66852031D02*
X188874974Y-66834665D01*
X64865643Y-129618130D02*
X64849927Y-129599987D01*
X307281804Y-143437125D02*
X307270895Y-143458922D01*
X155889693Y-149087674D02*
X155902372Y-149108079D01*
X202680082Y-156082621D02*
X202669171Y-156082745D01*
X136155733Y-59473770D02*
X136157564Y-59449117D01*
X280135045Y-160128471D02*
X280116525Y-160112371D01*
X8058411Y-49696096D02*
X8028728Y-49658312D01*
X136155119Y-59498599D02*
X136155733Y-59473770D01*
X26716270Y-68393644D02*
X26733636Y-68377088D01*
X232259924Y-54399849D02*
X232276474Y-54382483D01*
X140271574Y-117586085D02*
X140262224Y-117594139D01*
X232099725Y-56289181D02*
X232107586Y-56265945D01*
X188905524Y-66797631D02*
X188919460Y-66778026D01*
X174814844Y-143285175D02*
X174828643Y-143272252D01*
X212818383Y-58938191D02*
X212839324Y-58926151D01*
X288149409Y-59162349D02*
X288165154Y-59180493D01*
X231311895Y-129550083D02*
X231293752Y-129565799D01*
X83270696Y-56544901D02*
X83291637Y-56556940D01*
X174978842Y-117754757D02*
X174977320Y-117742561D01*
X27380148Y-58998536D02*
X45430018Y-58998536D01*
X44932402Y-129886826D02*
X44930571Y-129911445D01*
X221491799Y-155899588D02*
X221475697Y-155918314D01*
X306329542Y-50060118D02*
X300929396Y-50060118D01*
X140664938Y-59376616D02*
X140670317Y-59400501D01*
X174814265Y-117544074D02*
X174802676Y-117540232D01*
X7850399Y-49261505D02*
X7841606Y-49212263D01*
X64718134Y-129496520D02*
X64696572Y-129485478D01*
X174527912Y-59284839D02*
X174538867Y-59263034D01*
X179245649Y-66926093D02*
X179266590Y-66938132D01*
X140179945Y-58998536D02*
X140204733Y-58999150D01*
X44929957Y-133698870D02*
X44929342Y-133723653D01*
X307314589Y-143345411D02*
X307308059Y-143368938D01*
X221615093Y-132215995D02*
X221610702Y-132240599D01*
X45977988Y-54522339D02*
X45988942Y-54500534D01*
X232057678Y-56376545D02*
X232069717Y-56355604D01*
X232129414Y-56142962D02*
X232130064Y-56117224D01*
X174655680Y-117518154D02*
X174644061Y-117514225D01*
X174669256Y-143376602D02*
X174687191Y-143368858D01*
X174828643Y-143272252D02*
X174841924Y-143258840D01*
X269898105Y-129465189D02*
X269874925Y-129457520D01*
X7850399Y-170858392D02*
X7861564Y-170810019D01*
X306924680Y-49863814D02*
X306884669Y-49892016D01*
X306806544Y-174939272D02*
X306763415Y-174961353D01*
X174770449Y-143320829D02*
X174785734Y-143309480D01*
X231132523Y-129884833D02*
X231130593Y-129910232D01*
X270494466Y-134139546D02*
X270473103Y-134127529D01*
X44988882Y-129700803D02*
X44977911Y-129722607D01*
X221718987Y-131998908D02*
X221704160Y-132017778D01*
X8305318Y-143722792D02*
X8280665Y-143720961D01*
X102057476Y-56968486D02*
X102064214Y-56992201D01*
X26780752Y-68322688D02*
X26794693Y-68303083D01*
X112533462Y-156085478D02*
X112522629Y-156084441D01*
X25877512Y-143273001D02*
X25874481Y-143297402D01*
X231127361Y-131368231D02*
X231124181Y-131393260D01*
X8330147Y-143723406D02*
X8305318Y-143722792D01*
X270375319Y-134052088D02*
X270358426Y-134034096D01*
X306763415Y-174961353D02*
X306719104Y-174981377D01*
X140455545Y-117528100D02*
X140442845Y-117529066D01*
X126240309Y-66778026D02*
X126254249Y-66797631D01*
X44859082Y-133955450D02*
X44846019Y-133976140D01*
X83069249Y-56311891D02*
X83079261Y-56334042D01*
X174930586Y-59000981D02*
X174955240Y-58999150D01*
X8580072Y-45091406D02*
X8628444Y-45080241D01*
X221768569Y-131946899D02*
X221751223Y-131963438D01*
X232130715Y-54710361D02*
X232132645Y-54684962D01*
X101656058Y-56623046D02*
X101680686Y-56627442D01*
X279551790Y-134208562D02*
X279527073Y-134204166D01*
X300929396Y-170060015D02*
X306329542Y-170060015D01*
X7851684Y-143368938D02*
X7845155Y-143345411D01*
X279710558Y-134270790D02*
X279689616Y-134258750D01*
X102079954Y-58498475D02*
X102080605Y-58524212D01*
X268754364Y-54236651D02*
X268778937Y-54238482D01*
X213007678Y-58757796D02*
X213019717Y-58736855D01*
X306884669Y-49892016D02*
X306843356Y-49918162D01*
X45800631Y-58834008D02*
X45816772Y-58815313D01*
X288655080Y-68507795D02*
X288679224Y-68513378D01*
X307308059Y-68878068D02*
X307314589Y-68901616D01*
X307329695Y-69023600D02*
X307329695Y-143223605D01*
X307329695Y-49059992D02*
X307328460Y-49109563D01*
X8305318Y-68524149D02*
X8330147Y-68523535D01*
X289608334Y-143753745D02*
X289585648Y-143762697D01*
X279836923Y-134380363D02*
X279821251Y-134362219D01*
X307299408Y-49303716D02*
X307286291Y-49350808D01*
X269631949Y-58988841D02*
X269656056Y-58993058D01*
X64759365Y-129521565D02*
X64739076Y-129508559D01*
X280174205Y-160157668D02*
X280154286Y-160143575D01*
X7841606Y-170907629D02*
X7850399Y-170858392D01*
X307187336Y-170546626D02*
X307211460Y-170589153D01*
X8486168Y-170120691D02*
X8532625Y-170104971D01*
X140369108Y-117536957D02*
X140357337Y-117540232D01*
X64949480Y-129764276D02*
X64940528Y-129741567D01*
X189359500Y-59020134D02*
X189383045Y-59013606D01*
X174854673Y-143244953D02*
X174866879Y-143230611D01*
X105929907Y-156082621D02*
X105929907Y-170060015D01*
X306757194Y-49964148D02*
X306712530Y-49983918D01*
X45479424Y-58996090D02*
X45503838Y-58993058D01*
X65109056Y-150702845D02*
X65092956Y-150684118D01*
X174956435Y-143065823D02*
X174961877Y-143047582D01*
X46043219Y-54419071D02*
X46059320Y-54400343D01*
X307328460Y-171010326D02*
X307329695Y-171059893D01*
X98730063Y-156082621D02*
X94054617Y-156082621D01*
X232629850Y-54236037D02*
X268729628Y-54236037D01*
X232413203Y-54285340D02*
X232435340Y-54275327D01*
X307258940Y-68766765D02*
X307270895Y-68788034D01*
X140581985Y-59200993D02*
X140596077Y-59221071D01*
X221154366Y-156080176D02*
X221129715Y-156082007D01*
X102580015Y-58998536D02*
X111230040Y-58998536D01*
X101796710Y-56666583D02*
X101818272Y-56677623D01*
X221382401Y-155998682D02*
X221361709Y-156011745D01*
X26258163Y-134213750D02*
X26234620Y-134220284D01*
X93909283Y-156060939D02*
X93886129Y-156053255D01*
X289585648Y-143762697D02*
X289563511Y-143772710D01*
X140596077Y-59221071D02*
X140609138Y-59241765D01*
X188784450Y-66913087D02*
X188804046Y-66899147D01*
X307324198Y-143297402D02*
X307319975Y-143321553D01*
X221595257Y-155680768D02*
X221589876Y-155704628D01*
X221610702Y-132240599D02*
X221607526Y-132265604D01*
X82957574Y-54476777D02*
X82969613Y-54497718D01*
X136025224Y-66834665D02*
X136040941Y-66816522D01*
X306800833Y-49942218D02*
X306757194Y-49964148D01*
X178995220Y-59400501D02*
X178999435Y-59424681D01*
X188974500Y-66670373D02*
X188982360Y-66647137D01*
X136630123Y-58999150D02*
X136654905Y-58998536D01*
X189291271Y-59046442D02*
X189313572Y-59036570D01*
X189089003Y-59221071D02*
X189103114Y-59200993D01*
X149492713Y-165861299D02*
X149469206Y-165853411D01*
X231293752Y-129565799D02*
X231276386Y-129582355D01*
X46000958Y-54479265D02*
X46014022Y-54458571D01*
X279920417Y-134526513D02*
X279911511Y-134503803D01*
X150039908Y-165683924D02*
X150024783Y-165703063D01*
X279911511Y-134503803D02*
X279901547Y-134481651D01*
X159190091Y-149413427D02*
X159188188Y-149389066D01*
X165152666Y-165724311D02*
X165136491Y-165706045D01*
X149734609Y-165874584D02*
X149710512Y-165878603D01*
X150110029Y-165554705D02*
X150100945Y-165577793D01*
X45152641Y-129520224D02*
X45132579Y-129534346D01*
X140348546Y-59027795D02*
X140371313Y-59036570D01*
X221605598Y-132290978D02*
X221604948Y-132316691D01*
X232130064Y-56117224D02*
X232130064Y-54736098D01*
X7835247Y-174162330D02*
X7831386Y-174111556D01*
X178906877Y-59200993D02*
X178920969Y-59221071D01*
X270244886Y-133820410D02*
X270239500Y-133796551D01*
X269656056Y-58993058D02*
X269680415Y-58996090D01*
X140649836Y-117398636D02*
X140643816Y-117409096D01*
X174878530Y-143215829D02*
X174889614Y-143200624D01*
X126416599Y-66938132D02*
X126438161Y-66949174D01*
X45746862Y-58885222D02*
X45765557Y-58869081D01*
X93777347Y-155998460D02*
X93757272Y-155984351D01*
X270066048Y-129565366D02*
X270047118Y-129549224D01*
X126149444Y-59424681D02*
X126152475Y-59449117D01*
X280154286Y-160143575D02*
X280135045Y-160128471D01*
X93569885Y-155704415D02*
X93564506Y-155680539D01*
X44621355Y-134160638D02*
X44598599Y-134169413D01*
X83358061Y-56586947D02*
X83381297Y-56594808D01*
X231276386Y-129582355D02*
X231259830Y-129599721D01*
X25750723Y-143559098D02*
X25733645Y-143577090D01*
X289264156Y-159866691D02*
X289257456Y-159890405D01*
X82900067Y-54399849D02*
X82915783Y-54417993D01*
X307308059Y-143368938D02*
X307300405Y-143392093D01*
X65144126Y-150737914D02*
X65126135Y-150720835D01*
X212751959Y-58968198D02*
X212774669Y-58959245D01*
X102110292Y-58670432D02*
X102119244Y-58693141D01*
X230778604Y-131794679D02*
X230754872Y-131801416D01*
X159224290Y-149173526D02*
X159234175Y-149150805D01*
X8311491Y-170204778D02*
X8353362Y-170180702D01*
X179453835Y-66995895D02*
X179479235Y-66997826D01*
X212680795Y-58988378D02*
X212704991Y-58982795D01*
X174482875Y-117317637D02*
X174481285Y-117305143D01*
X270227327Y-129886565D02*
X270224289Y-129862152D01*
X8138688Y-143685370D02*
X8116388Y-143675497D01*
X149851530Y-165836749D02*
X149828766Y-165846677D01*
X289039751Y-160169234D02*
X289018807Y-160181271D01*
X20929871Y-170060015D02*
X98730063Y-170060015D01*
X102479220Y-58988378D02*
X102503848Y-58992775D01*
X140180254Y-117767050D02*
X140179945Y-117779421D01*
X46238686Y-54274070D02*
X46261442Y-54265295D01*
X307319975Y-143321553D02*
X307314589Y-143345411D01*
X155829360Y-149012499D02*
X155845849Y-149030246D01*
X269414108Y-58885222D02*
X269433353Y-58900363D01*
X136301420Y-59144850D02*
X136319414Y-59127772D01*
X126629244Y-66997826D02*
X126654982Y-66998477D01*
X293730085Y-143723406D02*
X289779860Y-143723406D01*
X140182697Y-117742561D02*
X140181174Y-117754757D01*
X26919374Y-59303932D02*
X26929387Y-59281780D01*
X231259830Y-129599721D02*
X231244114Y-129617865D01*
X269214583Y-54614116D02*
X269219969Y-54638000D01*
X126529991Y-66982736D02*
X126554187Y-66988319D01*
X289352434Y-143964149D02*
X289340361Y-143985091D01*
X307035963Y-49767224D02*
X307000420Y-49801383D01*
X189188064Y-59111672D02*
X189207461Y-59096567D01*
X269344110Y-58815313D02*
X269360461Y-58834008D01*
X269224192Y-54662180D02*
X269227233Y-54686616D01*
X25525426Y-143701806D02*
X25501878Y-143708335D01*
X7900961Y-143480185D02*
X7888944Y-143458922D01*
X165469428Y-165881485D02*
X165445393Y-165878481D01*
X165058604Y-165578903D02*
X165049193Y-165554965D01*
X93408239Y-151013735D02*
X93390290Y-150996611D01*
X140253770Y-59004012D02*
X140277938Y-59008226D01*
X289444039Y-143853298D02*
X289426649Y-143869855D01*
X279960336Y-159839752D02*
X279956089Y-159815602D01*
X26123326Y-134269632D02*
X26102642Y-134282721D01*
X126157502Y-66549552D02*
X126160681Y-66574581D01*
X289500723Y-143808797D02*
X289481108Y-143822738D01*
X270171015Y-129700542D02*
X270159062Y-129679278D01*
X306627183Y-45104881D02*
X306673672Y-45120602D01*
X221129715Y-156082007D02*
X221104887Y-156082621D01*
X231179244Y-129719152D02*
X231169232Y-129741303D01*
X140229094Y-117630713D02*
X140222039Y-117640752D01*
X279998939Y-159955323D02*
X279988955Y-159933034D01*
X270412472Y-134085268D02*
X270393543Y-134069167D01*
X221296337Y-156044588D02*
X221273582Y-156053363D01*
X93602721Y-155796188D02*
X93592849Y-155773887D01*
X140559641Y-117493210D02*
X140549170Y-117499227D01*
X270561468Y-134169146D02*
X270538687Y-134160371D01*
X279944853Y-134622307D02*
X279940483Y-134597678D01*
X203429915Y-50060118D02*
X203429915Y-58998536D01*
X269268038Y-58689801D02*
X269278016Y-58712101D01*
X174501599Y-59353068D02*
X174509261Y-59329896D01*
X189002254Y-66549552D02*
X189004185Y-66524153D01*
X136239049Y-59221071D02*
X136253140Y-59200993D01*
X178718614Y-59046442D02*
X178740418Y-59057395D01*
X269065926Y-54365273D02*
X269084150Y-54382351D01*
X174721812Y-143351458D02*
X174738476Y-143341835D01*
X307270895Y-143458922D02*
X307258940Y-143480185D01*
X64651710Y-129466513D02*
X64628473Y-129458653D01*
X179020651Y-66623405D02*
X179027389Y-66647137D01*
X44479377Y-134196227D02*
X44454724Y-134198058D01*
X8157670Y-170319777D02*
X8193950Y-170288349D01*
X188982360Y-66647137D02*
X188989096Y-66623405D01*
X155642469Y-148892039D02*
X155666431Y-148901451D01*
X307086365Y-143652527D02*
X307065000Y-143664544D01*
X140184813Y-117730486D02*
X140182697Y-117742561D01*
X288340231Y-68261852D02*
X288352303Y-68282794D01*
X174943539Y-143101479D02*
X174950319Y-143083794D01*
X8628444Y-170080331D02*
X8677681Y-170071537D01*
X149613196Y-165882817D02*
X149588851Y-165880899D01*
X307328460Y-49109563D02*
X307324779Y-49158804D01*
X270452291Y-134114466D02*
X270432067Y-134100373D01*
X174644316Y-59127772D02*
X174663042Y-59111672D01*
X7950767Y-170583306D02*
X7974843Y-170541434D01*
X208730055Y-170060015D02*
X208730055Y-156082621D01*
X279645872Y-134237696D02*
X279623130Y-134228743D01*
X26009412Y-134363197D02*
X25993272Y-134381892D01*
X101774559Y-56656572D02*
X101796710Y-56666583D01*
X306848428Y-174915196D02*
X306806544Y-174939272D01*
X165286193Y-165826325D02*
X165265224Y-165814654D01*
X45284619Y-129457787D02*
X45261449Y-129465455D01*
X102226399Y-58852089D02*
X102243764Y-58868646D01*
X26659630Y-68438145D02*
X26679236Y-68424204D01*
X25901571Y-134553334D02*
X25895036Y-134576877D01*
X8000851Y-49619099D02*
X7974843Y-49578520D01*
X231846817Y-56567982D02*
X231868379Y-56556940D01*
X213049723Y-58670432D02*
X213057584Y-58647195D01*
X45945152Y-54614116D02*
X45951681Y-54590568D01*
X306431902Y-175054792D02*
X306381064Y-175058653D01*
X179065255Y-66736796D02*
X179077295Y-66757738D01*
X8193950Y-49831684D02*
X8157670Y-49800245D01*
X213280857Y-56716599D02*
X213300453Y-56702662D01*
X8000851Y-174619118D02*
X7974843Y-174578550D01*
X102030651Y-56900432D02*
X102040663Y-56922570D01*
X288352303Y-68282794D02*
X288365341Y-68303083D01*
X213080712Y-57091372D02*
X213082642Y-57065995D01*
X189118233Y-59181570D02*
X189134343Y-59162843D01*
X279865611Y-134418859D02*
X279851719Y-134399253D01*
X126460313Y-66959186D02*
X126483022Y-66968139D01*
X65063758Y-150644619D02*
X65050694Y-150623926D01*
X174480608Y-59473770D02*
X174482440Y-59449117D01*
X289319241Y-144028805D02*
X289310258Y-144051515D01*
X27062040Y-59112711D02*
X27080931Y-59097867D01*
X140393628Y-59046442D02*
X140415448Y-59057395D01*
X269229689Y-54736098D02*
X269229689Y-58498475D01*
X288282269Y-68074607D02*
X288285462Y-68099636D01*
X174730040Y-117529391D02*
X174717171Y-117529066D01*
X26874322Y-68099636D02*
X26877502Y-68074607D01*
X280352866Y-160231919D02*
X280329054Y-160226539D01*
X83029308Y-54710361D02*
X83029959Y-54736098D01*
X231655740Y-56616635D02*
X231681138Y-56614704D01*
X149469206Y-165853411D02*
X132156736Y-159552111D01*
X232504969Y-54251777D02*
X232529146Y-54246194D01*
X25950920Y-134442039D02*
X25938882Y-134463304D01*
X306525502Y-170079402D02*
X306573329Y-170090167D01*
X159215574Y-149196610D02*
X159224290Y-149173526D01*
X111230040Y-58998536D02*
X111230040Y-50060118D01*
X126107011Y-59284839D02*
X126116884Y-59307140D01*
X307070221Y-49731280D02*
X307035963Y-49767224D01*
X7976399Y-68669852D02*
X7994392Y-68652773D01*
X8032542Y-143625372D02*
X8013119Y-143610267D01*
X93079533Y-150867766D02*
X93054747Y-150867152D01*
X159315300Y-149028040D02*
X159332053Y-149010283D01*
X27303982Y-59004296D02*
X27329011Y-59001117D01*
X174516191Y-117409096D02*
X174510171Y-117398636D01*
X288257107Y-59349878D02*
X288263870Y-59373609D01*
X93625691Y-155839257D02*
X93613675Y-155817992D01*
X179134799Y-66834665D02*
X179151356Y-66852031D01*
X44707424Y-134114733D02*
X44686730Y-134127796D01*
X102049616Y-56945266D02*
X102057476Y-56968486D01*
X289269706Y-159842514D02*
X289264156Y-159866691D01*
X45332037Y-129445869D02*
X45308162Y-129451253D01*
X188944499Y-66736796D02*
X188955539Y-66715234D01*
X307269074Y-174403876D02*
X307251184Y-174449280D01*
X213385350Y-56656572D02*
X213408045Y-56647621D01*
X25821099Y-143458922D02*
X25809083Y-143480185D01*
X140515709Y-59127772D02*
X140533705Y-59144850D01*
X64674420Y-129475466D02*
X64651710Y-129466513D01*
X279901547Y-134481651D02*
X279890555Y-134460089D01*
X46113118Y-54349173D02*
X46132541Y-54334068D01*
X269259176Y-58667045D02*
X269268038Y-58689801D01*
X149805648Y-165855425D02*
X149782220Y-165862993D01*
X269779030Y-129438354D02*
X269754456Y-129436522D01*
X174802676Y-117540232D02*
X174790904Y-117536957D01*
X26063180Y-134311983D02*
X26044486Y-134328123D01*
X140249982Y-143169150D02*
X140270401Y-143200758D01*
X270393543Y-134069167D02*
X270375319Y-134052088D01*
X7830085Y-174060107D02*
X7830085Y-171059893D01*
X221361709Y-156011745D02*
X221340441Y-156023762D01*
X8677681Y-170071537D02*
X8727718Y-170065178D01*
X174975204Y-117730486D02*
X174972504Y-117718552D01*
X102243764Y-58868646D02*
X102261908Y-58884362D01*
X136213971Y-59263034D02*
X136225987Y-59241765D01*
X140193383Y-143029255D02*
X140203580Y-143065973D01*
X136144961Y-66599210D02*
X136149358Y-66574581D01*
X231135703Y-129859804D02*
X231132523Y-129884833D01*
X8727718Y-175054792D02*
X8677681Y-175048433D01*
X178989840Y-59376616D02*
X178995220Y-59400501D01*
X231458044Y-129466246D02*
X231435334Y-129475199D01*
X93554815Y-151367220D02*
X93554201Y-151342434D01*
X150090780Y-165600303D02*
X150079565Y-165622204D01*
X45871160Y-58733904D02*
X45882130Y-58712101D01*
X7845155Y-68901616D02*
X7851684Y-68878068D01*
X188764171Y-66926093D02*
X188784450Y-66913087D01*
X269289095Y-58733904D02*
X269301260Y-58755168D01*
X150054099Y-165664046D02*
X150039908Y-165683924D01*
X231681138Y-56614704D02*
X231706166Y-56611525D01*
X289133940Y-160095192D02*
X289116608Y-160111744D01*
X279953036Y-159791202D02*
X279951193Y-159766590D01*
X101897998Y-56731438D02*
X101916141Y-56747149D01*
X8628444Y-175039640D02*
X8580072Y-175028474D01*
X155956509Y-149483930D02*
X155949639Y-149508456D01*
X126096058Y-59263034D02*
X126107011Y-59284839D01*
X269239441Y-58596457D02*
X269244862Y-58620331D01*
X231244114Y-129617865D02*
X231229271Y-129636755D01*
X174800537Y-143297590D02*
X174814844Y-143285175D01*
X232015887Y-56435329D02*
X232030731Y-56416439D01*
X307036985Y-174767094D02*
X307002264Y-174800201D01*
X270007296Y-129519960D02*
X269986481Y-129506871D01*
X222053387Y-131819735D02*
X222028381Y-131822910D01*
X140538389Y-117504746D02*
X140527313Y-117509750D01*
X307102523Y-49693850D02*
X307070221Y-49731280D01*
X212950173Y-58834723D02*
X212965889Y-58816580D01*
X140334368Y-117548474D02*
X140323212Y-117553422D01*
X8000851Y-170500866D02*
X8028728Y-170461664D01*
X140209475Y-117661743D02*
X140203986Y-117672652D01*
X136556962Y-59008226D02*
X136581111Y-59004012D01*
X288058752Y-59083926D02*
X288078368Y-59097867D01*
X188581134Y-66992716D02*
X188605743Y-66988319D01*
X8270923Y-170230787D02*
X8311491Y-170204778D01*
X307324779Y-49158804D02*
X307318687Y-49207631D01*
X178934032Y-59241765D02*
X178946049Y-59263034D01*
X178821878Y-59111672D02*
X178840604Y-59127772D01*
X44920266Y-133796818D02*
X44914887Y-133820677D01*
X279599848Y-134220883D02*
X279576058Y-134214145D01*
X279878566Y-134439148D02*
X279865611Y-134418859D01*
X7974843Y-49578520D02*
X7950767Y-49536638D01*
X212980732Y-58797690D02*
X212994673Y-58778085D01*
X269538893Y-58960469D02*
X269561566Y-58969255D01*
X270232236Y-133747999D02*
X270230398Y-133723386D01*
X140679681Y-117292465D02*
X140678716Y-117305143D01*
X125753069Y-59008226D02*
X125776928Y-59013606D01*
X231129942Y-131317095D02*
X231129291Y-131342832D01*
X230983498Y-131670709D02*
X230966132Y-131687266D01*
X102079304Y-57091372D02*
X102079954Y-57117085D01*
X65288386Y-150829118D02*
X65266097Y-150819246D01*
X132093810Y-159533874D02*
X132083103Y-159531626D01*
X183065526Y-159534097D02*
X183054902Y-159536550D01*
X221226863Y-156067551D02*
X221202980Y-156072931D01*
X27354411Y-58999186D02*
X27380148Y-58998536D01*
X221604948Y-155582820D02*
X221604334Y-155607603D01*
X307329695Y-171059893D02*
X307329695Y-174060107D01*
X288279677Y-68023470D02*
X288280330Y-68049208D01*
X26480813Y-68513378D02*
X26505008Y-68507795D01*
X8231722Y-174861311D02*
X8193950Y-174831628D01*
X140480375Y-117524313D02*
X140468061Y-117526511D01*
X174923376Y-117621007D02*
X174915323Y-117611655D01*
X213080061Y-58498475D02*
X213080061Y-57117085D01*
X46380665Y-54238482D02*
X46405318Y-54236651D01*
X268729628Y-54236037D02*
X268754364Y-54236651D01*
X7830699Y-68998771D02*
X7832530Y-68974117D01*
X44935435Y-129862414D02*
X44932402Y-129886826D01*
X140504340Y-117518154D02*
X140492474Y-117521522D01*
X126154921Y-59498599D02*
X126154921Y-66498416D01*
X93054747Y-150867152D02*
X65479620Y-150867152D01*
X64880487Y-129637020D02*
X64865643Y-129618130D01*
X232330850Y-54335367D02*
X232350446Y-54321427D01*
X102090111Y-58599268D02*
X102095694Y-58623464D01*
X174970688Y-143010360D02*
X174974034Y-142991413D01*
X231107465Y-131465815D02*
X231099604Y-131489052D01*
X132115023Y-159539074D02*
X132104449Y-159536359D01*
X155962079Y-149459325D02*
X155956509Y-149483930D01*
X189007292Y-59449117D02*
X189010336Y-59424681D01*
X83159847Y-56453473D02*
X83176403Y-56470839D01*
X202614830Y-156086976D02*
X202604046Y-156088523D01*
X155924711Y-149150541D02*
X155934335Y-149172517D01*
X289655230Y-143739147D02*
X289631539Y-143745884D01*
X189480124Y-58999150D02*
X189504911Y-58998536D01*
X221677246Y-132057630D02*
X221665220Y-132078549D01*
X140371313Y-59036570D02*
X140393628Y-59046442D01*
X45308162Y-129451253D02*
X45284619Y-129457787D01*
X136398330Y-59069412D02*
X136419594Y-59057395D01*
X165244820Y-165801983D02*
X165225020Y-165788333D01*
X8440764Y-45138507D02*
X8486168Y-45120602D01*
X8396474Y-174961353D02*
X8353362Y-174939272D01*
X306329542Y-170060015D02*
X306379044Y-170061244D01*
X306712530Y-49983918D02*
X306666936Y-50001492D01*
X44908358Y-133844204D02*
X44900698Y-133867359D01*
X307309400Y-174261602D02*
X307298245Y-174309974D01*
X93352195Y-150965330D02*
X93332132Y-150951207D01*
X65430224Y-150864707D02*
X65405822Y-150861676D01*
X174563949Y-59221071D02*
X174578043Y-59200993D01*
X270358426Y-134034096D02*
X270342481Y-134015370D01*
X306531283Y-45080241D02*
X306579699Y-45091406D01*
X231202325Y-129676649D02*
X231190286Y-129697590D01*
X174878749Y-117578526D02*
X174868710Y-117571472D01*
X7841606Y-45907720D02*
X7850399Y-45858464D01*
X45665451Y-58939612D02*
X45686716Y-58927574D01*
X213261975Y-56731438D02*
X213280857Y-56716599D01*
X288563365Y-68474232D02*
X288585500Y-68484244D01*
X306878914Y-143720961D02*
X306854340Y-143722792D01*
X102119244Y-58693141D02*
X102129256Y-58715293D01*
X231015770Y-131635200D02*
X231000054Y-131653343D01*
X8829945Y-50060118D02*
X8778494Y-50058816D01*
X270181920Y-129722345D02*
X270171015Y-129700542D01*
X45194590Y-129495097D02*
X45173325Y-129507135D01*
X46059320Y-54400343D02*
X46076399Y-54382351D01*
X136184374Y-59329896D02*
X136193148Y-59307140D01*
X8677681Y-45071447D02*
X8727718Y-45065088D01*
X93652847Y-155880004D02*
X93638755Y-155859941D01*
X280329054Y-160226539D02*
X280305579Y-160220010D01*
X8231722Y-170258665D02*
X8270923Y-170230787D01*
X135706180Y-66995895D02*
X135731210Y-66992716D01*
X279689616Y-134258750D02*
X279668044Y-134247709D01*
X231481280Y-129458386D02*
X231458044Y-129466246D01*
X288952312Y-160211274D02*
X288929028Y-160219133D01*
X140468061Y-117526511D02*
X140455545Y-117528100D01*
X174972504Y-117718552D02*
X174969229Y-117706780D01*
X270327505Y-133995948D02*
X270313517Y-133975873D01*
X45014008Y-129658855D02*
X45000920Y-129679539D01*
X307201049Y-68687844D02*
X307216994Y-68706571D01*
X25864888Y-143345411D02*
X25858359Y-143368938D01*
X8193950Y-45288275D02*
X8231722Y-45258587D01*
X25404725Y-143722792D02*
X25379896Y-143723406D01*
X307043123Y-143675497D02*
X307020773Y-143685370D01*
X221866331Y-131877432D02*
X221845413Y-131889458D01*
X269561566Y-58969255D02*
X269584661Y-58976923D01*
X83129287Y-56416439D02*
X83144131Y-56435329D01*
X83193769Y-56487395D02*
X83211912Y-56503111D01*
X289481108Y-143822738D02*
X289462202Y-143837582D01*
X306381064Y-45061227D02*
X306431902Y-45065088D01*
X183044331Y-159539237D02*
X183033822Y-159542159D01*
X270259070Y-133867092D02*
X270251416Y-133843937D01*
X165106717Y-165666930D02*
X165093200Y-165646120D01*
X140442845Y-117529066D02*
X140429976Y-117529391D01*
X231129291Y-131342832D02*
X231127361Y-131368231D01*
X25677501Y-143625372D02*
X25657423Y-143639464D01*
X93441505Y-151050380D02*
X93425364Y-151031684D01*
X213503766Y-56623046D02*
X213528774Y-56619866D01*
X307324538Y-174162330D02*
X307318185Y-174212367D01*
X45028131Y-129638792D02*
X45014008Y-129658855D01*
X288263870Y-59373609D02*
X288269475Y-59397805D01*
X140589033Y-117472326D02*
X140579588Y-117479744D01*
X149974105Y-165755724D02*
X149955543Y-165771585D01*
X307327239Y-143273001D02*
X307324198Y-143297402D01*
X178504850Y-58998536D02*
X178529681Y-58999150D01*
X174754700Y-117530619D02*
X174742408Y-117529699D01*
X232160399Y-54564141D02*
X232169350Y-54541431D01*
X140621154Y-59263034D02*
X140632106Y-59284839D01*
X140229355Y-59000981D02*
X140253770Y-59004012D01*
X140374281Y-143309597D02*
X140405323Y-143331721D01*
X159299415Y-149046619D02*
X159315300Y-149028040D01*
X26879433Y-68049208D02*
X26880083Y-68023470D01*
X83335351Y-56577995D02*
X83358061Y-56586947D01*
X8280665Y-143720961D02*
X8256229Y-143717929D01*
X307107180Y-68607475D02*
X307127405Y-68621567D01*
X174841924Y-143258840D02*
X174854673Y-143244953D01*
X165518063Y-165883969D02*
X165493665Y-165883321D01*
X7950767Y-174536680D02*
X7928686Y-174493569D01*
X93470767Y-151089841D02*
X93456644Y-151069779D01*
X307165932Y-68652773D02*
X307184156Y-68669852D01*
X306477117Y-50049141D02*
X306428266Y-50055216D01*
X25548598Y-143694145D02*
X25525426Y-143701806D01*
X213030759Y-58715293D02*
X213040771Y-58693141D01*
X25733645Y-143577090D02*
X25715652Y-143594167D01*
X102363195Y-58949232D02*
X102385346Y-58959245D01*
X189103114Y-59200993D02*
X189118233Y-59181570D01*
X221458616Y-155936305D02*
X221440626Y-155953384D01*
X140270401Y-143200758D02*
X140293136Y-143230744D01*
X231578866Y-129438489D02*
X231553836Y-129441669D01*
X149873728Y-165825709D02*
X149851530Y-165836749D01*
X8396474Y-49961466D02*
X8353362Y-49939375D01*
X174529666Y-117429023D02*
X174522695Y-117419230D01*
X8256229Y-143717929D02*
X8232049Y-143713715D01*
X174522695Y-117419230D02*
X174516191Y-117409096D01*
X155971174Y-149385437D02*
X155969393Y-149410038D01*
X83040116Y-56218018D02*
X83045699Y-56242213D01*
X188965550Y-66693083D02*
X188974500Y-66670373D01*
X174811363Y-59027795D02*
X174834535Y-59020134D01*
X165616475Y-165874315D02*
X165591830Y-165878603D01*
X45076536Y-129582751D02*
X45059412Y-129600699D01*
X8032542Y-68621567D02*
X8052620Y-68607475D01*
X213165440Y-56837673D02*
X213179377Y-56818077D01*
X65092956Y-150684118D02*
X65077850Y-150664696D01*
X149895257Y-165813641D02*
X149873728Y-165825709D01*
X221475697Y-155918314D02*
X221458616Y-155936305D01*
X46194581Y-54294896D02*
X46216386Y-54283943D01*
X135991301Y-66868587D02*
X136008667Y-66852031D01*
X93956669Y-156072889D02*
X93932810Y-156067490D01*
X159196461Y-149267606D02*
X159201657Y-149243695D01*
X126133320Y-59353068D02*
X126139849Y-59376616D01*
X269433353Y-58900363D02*
X269453276Y-58914485D01*
X140549170Y-117499227D02*
X140538389Y-117504746D01*
X7928116Y-68725994D02*
X7943221Y-68706571D01*
X232132645Y-54684962D02*
X232135824Y-54659932D01*
X231413182Y-129485211D02*
X231391620Y-129496253D01*
X307070221Y-170388877D02*
X307102523Y-170426297D01*
X279950575Y-159741808D02*
X279950575Y-134698474D01*
X102209842Y-58834723D02*
X102226399Y-58852089D01*
X174950550Y-117661743D02*
X174944531Y-117651102D01*
X44429895Y-134198672D02*
X26380018Y-134198672D01*
X82529890Y-54236037D02*
X82555628Y-54236687D01*
X140277938Y-59008226D02*
X140301817Y-59013606D01*
X174723234Y-59069412D02*
X174744502Y-59057395D01*
X232135824Y-54659932D02*
X232140221Y-54635304D01*
X221909999Y-131856401D02*
X221887871Y-131866403D01*
X232044672Y-56396834D02*
X232057678Y-56376545D01*
X7859344Y-143392093D02*
X7851684Y-143368938D01*
X212580000Y-58998536D02*
X212605738Y-58997885D01*
X165398092Y-165869044D02*
X165374906Y-165862648D01*
X288115437Y-59128427D02*
X288132826Y-59144983D01*
X230706048Y-131811396D02*
X230681018Y-131814575D01*
X93495893Y-151131790D02*
X93483855Y-151110525D01*
X306673672Y-45120602D02*
X306719104Y-45138507D01*
X126170661Y-66623405D02*
X126177398Y-66647137D01*
X307300405Y-68854895D02*
X307308059Y-68878068D01*
X307310218Y-49255962D02*
X307299408Y-49303716D01*
X93980820Y-156077120D02*
X93956669Y-156072889D01*
X232529146Y-54246194D02*
X232553754Y-54241798D01*
X307209105Y-45583290D02*
X307231173Y-45626414D01*
X25429378Y-143720961D02*
X25404725Y-143722792D01*
X307270903Y-170722840D02*
X307286291Y-170769165D01*
X155966238Y-149288248D02*
X155969244Y-149312282D01*
X44846019Y-133976140D02*
X44831927Y-133996215D01*
X8311491Y-45204695D02*
X8353362Y-45180616D01*
X289079624Y-160142294D02*
X289060033Y-160156231D01*
X112555106Y-156088273D02*
X112544287Y-156086754D01*
X126355764Y-66899147D02*
X126375369Y-66913087D01*
X288379313Y-68322688D02*
X288394186Y-68341578D01*
X155712070Y-148923496D02*
X155733710Y-148936049D01*
X26456184Y-68517775D02*
X26480813Y-68513378D01*
X221104887Y-156082621D02*
X215929884Y-156082621D01*
X26355233Y-134199286D02*
X26330614Y-134201118D01*
X165225020Y-165788333D02*
X165205864Y-165773722D01*
X140527313Y-117509750D02*
X140515958Y-117514225D01*
X174481285Y-117305143D02*
X174480319Y-117292465D01*
X269170889Y-54500534D02*
X269181798Y-54522339D01*
X231044554Y-131596704D02*
X231030613Y-131616310D01*
X165665608Y-165861875D02*
X165641081Y-165868745D01*
X232000171Y-56453473D02*
X232015887Y-56435329D01*
X174679644Y-117524313D02*
X174667546Y-117521522D01*
X269516685Y-58950583D02*
X269538893Y-58960469D01*
X212728723Y-58976058D02*
X212751959Y-58968198D01*
X174650923Y-143383685D02*
X174669256Y-143376602D01*
X93560292Y-155656374D02*
X93557261Y-155631960D01*
X140262224Y-117594139D02*
X140253248Y-117602679D01*
X289060033Y-160156231D02*
X289039751Y-160169234D01*
X288426512Y-68377088D02*
X288443900Y-68393644D01*
X44665461Y-134139813D02*
X44643656Y-134150766D01*
X270277671Y-133912124D02*
X270267828Y-133889834D01*
X279750426Y-134297736D02*
X279730838Y-134283796D01*
X213110398Y-56945266D02*
X213119349Y-56922570D01*
X189019967Y-59376616D02*
X189026518Y-59353068D01*
X269704983Y-58997921D02*
X269729719Y-58998536D01*
X289394321Y-143905364D02*
X289379446Y-143924255D01*
X231229271Y-129636755D02*
X231215330Y-129656360D01*
X149686279Y-165881438D02*
X149661953Y-165883086D01*
X140664838Y-117365464D02*
X140660362Y-117376804D01*
X140637314Y-117419230D02*
X140630344Y-117429023D01*
X64907433Y-129676913D02*
X64894428Y-129656625D01*
X140670317Y-59400501D02*
X140674531Y-59424681D01*
X174766895Y-117532141D02*
X174754700Y-117530619D01*
X174687191Y-143368858D02*
X174704713Y-143360472D01*
X112511783Y-156083640D02*
X112500922Y-156083072D01*
X140301665Y-117564930D02*
X140291316Y-117571472D01*
X270300535Y-133955183D02*
X270288580Y-133933920D01*
X136338141Y-59111672D02*
X136357564Y-59096567D01*
X289679375Y-143733564D02*
X289655230Y-143739147D01*
X289329286Y-144006653D02*
X289319241Y-144028805D01*
X126177398Y-66647137D02*
X126185258Y-66670373D01*
X45924604Y-58572292D02*
X45927637Y-58547880D01*
X269584661Y-58976923D02*
X269608136Y-58983458D01*
X93545121Y-151269236D02*
X93539738Y-151245362D01*
X213040771Y-58693141D02*
X213049723Y-58670432D01*
X270224289Y-129862152D02*
X270220069Y-129837988D01*
X83014218Y-54611109D02*
X83019801Y-54635304D01*
X93506863Y-151153592D02*
X93495893Y-151131790D01*
X125971884Y-59111672D02*
X125990611Y-59127772D01*
X93555430Y-155607339D02*
X93554815Y-155582552D01*
X140323212Y-117553422D02*
X140312304Y-117558911D01*
X289150458Y-160077833D02*
X289133940Y-160095192D01*
X7877991Y-143437125D02*
X7868119Y-143414836D01*
X8089838Y-49732388D02*
X8058411Y-49696096D01*
X126438161Y-66949174D02*
X126460313Y-66959186D01*
X189063879Y-59263034D02*
X189075919Y-59241765D01*
X7839775Y-68925500D02*
X7845155Y-68901616D01*
X8122945Y-170352885D02*
X8157670Y-170319777D01*
X25879957Y-134698733D02*
X25879957Y-143223605D01*
X212916251Y-58868646D02*
X212933617Y-58852089D01*
X307329695Y-174060107D02*
X307328395Y-174111556D01*
X232114323Y-56242213D02*
X232119906Y-56218018D01*
X65202347Y-150783213D02*
X65182272Y-150769120D01*
X179186865Y-66884303D02*
X179205755Y-66899147D01*
X179404177Y-66988319D02*
X179428806Y-66992716D01*
X289779860Y-143723406D02*
X289754217Y-143724057D01*
X202647374Y-156083724D02*
X202636499Y-156084573D01*
X230681018Y-131814575D02*
X230655619Y-131816506D01*
X44929957Y-129936228D02*
X44929957Y-133698870D01*
X306579699Y-175028474D02*
X306531283Y-175039640D01*
X101579893Y-56617285D02*
X101605630Y-56617936D01*
X155949639Y-149508456D02*
X155941450Y-149532862D01*
X13730028Y-143723406D02*
X8330147Y-143723406D01*
X150024783Y-165703063D02*
X150008755Y-165721430D01*
X7890759Y-49403802D02*
X7875039Y-49357337D01*
X174978545Y-142952933D02*
X174979687Y-142933433D01*
X140680006Y-117279620D02*
X140679681Y-117292465D01*
X174578043Y-59200993D02*
X174593148Y-59181570D01*
X307036985Y-45352820D02*
X307070087Y-45387551D01*
X232435340Y-54275327D02*
X232458035Y-54266375D01*
X25477994Y-143713715D02*
X25453814Y-143717929D01*
X279948011Y-134647336D02*
X279944853Y-134622307D01*
X269027402Y-54334068D02*
X269046997Y-54349173D01*
X174485472Y-59424681D02*
X174489688Y-59400501D01*
X188841064Y-66868587D02*
X188858423Y-66852031D01*
X140244708Y-117611655D02*
X140236653Y-117621007D01*
X126336874Y-66884303D02*
X126355764Y-66899147D01*
X232169350Y-54541431D02*
X232179360Y-54519280D01*
X27231426Y-59021014D02*
X27255158Y-59014276D01*
X8353362Y-49939375D02*
X8311491Y-49915288D01*
X149588851Y-165880899D02*
X149564587Y-165877789D01*
X288856245Y-160235849D02*
X288831109Y-160239029D01*
X165542584Y-165883412D02*
X165518063Y-165883969D01*
X289290000Y-144122680D02*
X289285585Y-144147308D01*
X213057584Y-58647195D02*
X213064321Y-58623464D01*
X8532625Y-45104881D02*
X8580072Y-45091406D01*
X64505488Y-129436825D02*
X64479750Y-129436175D01*
X8580072Y-175028474D02*
X8532625Y-175015000D01*
X8532625Y-170104971D02*
X8580072Y-170091496D01*
X27009974Y-59162349D02*
X27026531Y-59144983D01*
X82980655Y-54519280D02*
X82990668Y-54541431D01*
X306854340Y-68524149D02*
X306878914Y-68525981D01*
X7839775Y-143321553D02*
X7835561Y-143297402D01*
X212656167Y-58992775D02*
X212680795Y-58988378D01*
X83030609Y-56142962D02*
X83032540Y-56168361D01*
X65162851Y-150754015D02*
X65144126Y-150737914D01*
X101680686Y-56627442D02*
X101704882Y-56633025D01*
X306965985Y-45288275D02*
X307002264Y-45319707D01*
X179479235Y-66997826D02*
X179504973Y-66998477D01*
X174930935Y-117630713D02*
X174923376Y-117621007D01*
X213320732Y-56689659D02*
X213341662Y-56677623D01*
X289631539Y-143745884D02*
X289608334Y-143753745D01*
X46356228Y-54241513D02*
X46380665Y-54238482D01*
X135803767Y-66975999D02*
X135827004Y-66968139D01*
X287927936Y-59021014D02*
X287951141Y-59028874D01*
X8727718Y-45065088D02*
X8778494Y-45061227D01*
X8052620Y-143639464D02*
X8032542Y-143625372D01*
X174480319Y-117292465D02*
X174479994Y-117279620D01*
X65479620Y-150867152D02*
X65454837Y-150866538D01*
X306963294Y-49833592D02*
X306924680Y-49863814D01*
X306428266Y-170064907D02*
X306477117Y-170070971D01*
X174950319Y-143083794D02*
X174956435Y-143065823D01*
X269229689Y-58498475D02*
X269230306Y-58523260D01*
X221932685Y-131847459D02*
X221909999Y-131856401D01*
X221604948Y-132316691D02*
X221604948Y-155582820D01*
X188653636Y-66975999D02*
X188676857Y-66968139D01*
X189134343Y-59162843D02*
X189151426Y-59144850D01*
X306928211Y-45258587D02*
X306965985Y-45288275D01*
X140231975Y-143136058D02*
X140249982Y-143169150D01*
X179005562Y-66524153D02*
X179007493Y-66549552D01*
X93576414Y-155727959D02*
X93569885Y-155704415D01*
X306666936Y-50001492D02*
X306620505Y-50016837D01*
X279450544Y-134198405D02*
X270729841Y-134198405D01*
X279890555Y-134460089D02*
X279878566Y-134439148D01*
X165591830Y-165878603D02*
X165567186Y-165881629D01*
X306965985Y-174831628D02*
X306928211Y-174861311D01*
X289310258Y-144051515D02*
X289302369Y-144074752D01*
X64580545Y-129446332D02*
X64555917Y-129441936D01*
X136193148Y-59307140D02*
X136203019Y-59284839D01*
X269244862Y-58620331D02*
X269251445Y-58643874D01*
X270229780Y-129935969D02*
X270229164Y-129911184D01*
X44503814Y-134193196D02*
X44479377Y-134196227D01*
X189383045Y-59013606D02*
X189406921Y-59008226D01*
X279940483Y-134597678D02*
X279934934Y-134573482D01*
X44968024Y-129744907D02*
X44959238Y-129767663D01*
X174537089Y-117438460D02*
X174529666Y-117429023D01*
X307185041Y-45541407D02*
X307209105Y-45583290D01*
X279951193Y-159766590D02*
X279950575Y-159741808D01*
X83115347Y-56396834D02*
X83129287Y-56416439D01*
X179205755Y-66899147D02*
X179225360Y-66913087D01*
X288240234Y-59303932D02*
X288249217Y-59326641D01*
X270132094Y-129638532D02*
X270117117Y-129619133D01*
X93554815Y-155582552D02*
X93554815Y-151367220D01*
X82809505Y-54321427D02*
X82829110Y-54335367D01*
X212898108Y-58884362D02*
X212916251Y-58868646D01*
X174702541Y-59082475D02*
X174723234Y-59069412D01*
X307132832Y-49655016D02*
X307102523Y-49693850D01*
X307245958Y-143500874D02*
X307231970Y-143520950D01*
X140345750Y-117544074D02*
X140334368Y-117548474D01*
X289282392Y-144172338D02*
X289280452Y-144197737D01*
X126185258Y-66670373D02*
X126194210Y-66693083D01*
X307231970Y-143520950D02*
X307216994Y-143540371D01*
X140179945Y-117779421D02*
X140179945Y-142914050D01*
X232080759Y-56334042D02*
X232090772Y-56311891D01*
X64980433Y-150391926D02*
X64979818Y-150367098D01*
X45908470Y-58643874D02*
X45915005Y-58620331D01*
X7841606Y-49212263D02*
X7835247Y-49162222D01*
X174788607Y-59036570D02*
X174811363Y-59027795D01*
X178920969Y-59221071D02*
X178934032Y-59241765D01*
X307187336Y-49573467D02*
X307161115Y-49614861D01*
X135914371Y-66926093D02*
X135934660Y-66913087D01*
X232604138Y-54236687D02*
X232629850Y-54236037D01*
X307284782Y-174357419D02*
X307269074Y-174403876D01*
X101859502Y-56702662D02*
X101879108Y-56716599D01*
X289563511Y-143772710D02*
X289541957Y-143783752D01*
X159407094Y-148948061D02*
X159427697Y-148934854D01*
X165169647Y-165741692D02*
X165152666Y-165724311D01*
X26551977Y-68493197D02*
X26574686Y-68484244D01*
X212631137Y-58995954D02*
X212656167Y-58992775D01*
X82630686Y-54246194D02*
X82654882Y-54251777D01*
X288831109Y-160239029D02*
X288805586Y-160240960D01*
X307147002Y-143610267D02*
X307127405Y-143625372D01*
X268827439Y-54245727D02*
X268851291Y-54251107D01*
X269729719Y-129435908D02*
X231630003Y-129435908D01*
X178650386Y-59020134D02*
X178673558Y-59027795D01*
X126578815Y-66992716D02*
X126603844Y-66995895D01*
X7830085Y-171059893D02*
X7831386Y-171008442D01*
X307161115Y-170505253D02*
X307187336Y-170546626D01*
X126654982Y-66998477D02*
X135655043Y-66998477D01*
X83007481Y-54587377D02*
X83014218Y-54611109D01*
X25571354Y-143685370D02*
X25548598Y-143694145D01*
X279787405Y-134328296D02*
X279769292Y-134312580D01*
X307327239Y-68974117D02*
X307329078Y-68998771D01*
X279769292Y-134312580D02*
X279750426Y-134297736D01*
X8677681Y-50048591D02*
X8628444Y-50039792D01*
X188994678Y-66599210D02*
X188999075Y-66574581D01*
X307251184Y-174449280D02*
X307231173Y-174493569D01*
X307291647Y-68832139D02*
X307300405Y-68854895D01*
X307300405Y-143392093D02*
X307291647Y-143414836D01*
X189026518Y-59353068D02*
X189034203Y-59329896D01*
X150008755Y-165721430D02*
X149991852Y-165738995D01*
X270230398Y-133723386D02*
X270229780Y-133698603D01*
X118429876Y-58998536D02*
X125655119Y-58998536D01*
X221635249Y-132144903D02*
X221627398Y-132168116D01*
X270251416Y-133843937D02*
X270244886Y-133820410D01*
X221704160Y-132017778D02*
X221690236Y-132037362D01*
X25636729Y-143652527D02*
X25615460Y-143664544D01*
X268898001Y-54265295D02*
X268920782Y-54274070D01*
X45930082Y-54736098D02*
X45930697Y-54711269D01*
X221340441Y-156023762D02*
X221318637Y-156034715D01*
X188999075Y-66574581D02*
X189002254Y-66549552D01*
X64479750Y-129436175D02*
X45430018Y-129436175D01*
X306525502Y-50040696D02*
X306477117Y-50049141D01*
X7974843Y-45541407D02*
X8000851Y-45500829D01*
X8013119Y-143610267D02*
X7994392Y-143594167D01*
X270239500Y-133796551D02*
X270235277Y-133772401D01*
X7928686Y-174493569D02*
X7908662Y-174449280D01*
X231435334Y-129475199D02*
X231413182Y-129485211D01*
X306854340Y-143722792D02*
X306829603Y-143723406D01*
X213431266Y-56639761D02*
X213454980Y-56633025D01*
X306673672Y-174999280D02*
X306627183Y-175015000D01*
X8073314Y-143652527D02*
X8052620Y-143639464D01*
X221620669Y-132191824D02*
X221615093Y-132215995D01*
X45430018Y-58998536D02*
X45454804Y-58997921D01*
X93719124Y-155953126D02*
X93701132Y-155936045D01*
X44454724Y-134198058D02*
X44429895Y-134198672D01*
X140641977Y-59307140D02*
X140650751Y-59329896D01*
X112565924Y-156090037D02*
X112555106Y-156088273D01*
X306974809Y-143701806D02*
X306951273Y-143708335D01*
X159493402Y-148901342D02*
X159516493Y-148892306D01*
X126483022Y-66968139D02*
X126506259Y-66975999D01*
X279934934Y-134573482D02*
X279928235Y-134549750D01*
X307309400Y-45858464D02*
X307318185Y-45907720D01*
X188629921Y-66982736D02*
X188653636Y-66975999D01*
X126145229Y-59400501D02*
X126149444Y-59424681D01*
X93104154Y-150869598D02*
X93079533Y-150867766D01*
X306997989Y-143694145D02*
X306974809Y-143701806D01*
X306620505Y-170103231D02*
X306666936Y-170118562D01*
X25978132Y-134401292D02*
X25964009Y-134421355D01*
X64940528Y-129741567D02*
X64930515Y-129719416D01*
X288779707Y-68523535D02*
X293730085Y-68523535D01*
X159427697Y-148934854D02*
X159448972Y-148922646D01*
X165445393Y-165878481D02*
X165421601Y-165874328D01*
X65244300Y-150808293D02*
X65223037Y-150796276D01*
X140674531Y-59424681D02*
X140677561Y-59449117D01*
X174974034Y-142991413D02*
X174976657Y-142972265D01*
X44598599Y-134169413D02*
X44575426Y-134177074D01*
X183002760Y-159552371D02*
X165690016Y-165853686D01*
X26574686Y-68484244D02*
X26596838Y-68474232D01*
X189269469Y-59057395D02*
X189291271Y-59046442D01*
X287805258Y-58999186D02*
X287830574Y-59001117D01*
X178946049Y-59263034D02*
X178957002Y-59284839D01*
X26940429Y-59260218D02*
X26952468Y-59239277D01*
X93552370Y-151317814D02*
X93549337Y-151293401D01*
X7943221Y-68706571D02*
X7959321Y-68687844D01*
X102341633Y-58938191D02*
X102363195Y-58949232D01*
X307020773Y-143685370D02*
X306997989Y-143694145D01*
X44765652Y-134069434D02*
X44746924Y-134085535D01*
X101605630Y-56617936D02*
X101631029Y-56619866D01*
X280022193Y-159998384D02*
X280010023Y-159977120D01*
X288880964Y-160231453D02*
X288856245Y-160235849D01*
X26679236Y-68424204D02*
X26698126Y-68409360D01*
X7861564Y-174309974D02*
X7850399Y-174261602D01*
X288269475Y-59397805D02*
X288273890Y-59422433D01*
X306531283Y-175039640D02*
X306481996Y-175048433D01*
X93701132Y-155936045D02*
X93684053Y-155918097D01*
X174868710Y-117571472D02*
X174858359Y-117564930D01*
X174717171Y-117529066D02*
X174704472Y-117528100D01*
X174889614Y-143200624D02*
X174900119Y-143185014D01*
X288929028Y-160219133D02*
X288905235Y-160225870D01*
X280049724Y-160039150D02*
X280035431Y-160019074D01*
X289279153Y-159767521D02*
X289277235Y-159792897D01*
X93268379Y-150915109D02*
X93246079Y-150905222D01*
X288180029Y-59199383D02*
X288194002Y-59218988D01*
X27043897Y-59128427D02*
X27062040Y-59112711D01*
X307286291Y-170769165D02*
X307299408Y-170816235D01*
X159187946Y-149340279D02*
X159189603Y-149315943D01*
X26880083Y-59498599D02*
X26880734Y-59472861D01*
X136170187Y-59376616D02*
X136176715Y-59353068D01*
X126056886Y-59200993D02*
X126070978Y-59221071D01*
X174977320Y-117742561D02*
X174975204Y-117730486D01*
X93932810Y-156067490D02*
X93909283Y-156060939D01*
X188822928Y-66884303D02*
X188841064Y-66868587D01*
X7928686Y-49493515D02*
X7908662Y-49449216D01*
X45929468Y-58523260D02*
X45930082Y-58498475D01*
X83381297Y-56594808D02*
X83405029Y-56601545D01*
X126155571Y-66524153D02*
X126157502Y-66549552D01*
X94054617Y-156082621D02*
X94029834Y-156082004D01*
X306951273Y-68538605D02*
X306974809Y-68545134D01*
X26528740Y-68501057D02*
X26551977Y-68493197D01*
X7845155Y-143345411D02*
X7839775Y-143321553D01*
X188804046Y-66899147D02*
X188822928Y-66884303D01*
X289295605Y-144098484D02*
X289290000Y-144122680D01*
X231090652Y-131511761D02*
X231080640Y-131533913D01*
X179428806Y-66992716D02*
X179453835Y-66995895D01*
X102431292Y-58976058D02*
X102455024Y-58982795D01*
X288249217Y-59326641D02*
X288257107Y-59349878D01*
X232229374Y-54436883D02*
X232244213Y-54417993D01*
X279476420Y-134199055D02*
X279450544Y-134198405D01*
X155962082Y-149264456D02*
X155966238Y-149288248D01*
X269314494Y-58775852D02*
X269328782Y-58795914D01*
X46430147Y-54236037D02*
X82529890Y-54236037D01*
X27100536Y-59083926D02*
X27120825Y-59070921D01*
X45935559Y-54662180D02*
X45939773Y-54638000D01*
X65405822Y-150861676D02*
X65381671Y-150857462D01*
X307107180Y-143639464D02*
X307086365Y-143652527D01*
X93516749Y-151175892D02*
X93506863Y-151153592D01*
X230846702Y-131767853D02*
X230824550Y-131777866D01*
X174961877Y-143047582D02*
X174966632Y-143029089D01*
X126125660Y-59329896D02*
X126133320Y-59353068D01*
X280401332Y-160239165D02*
X280376973Y-160236133D01*
X306431902Y-45065088D02*
X306481996Y-45071447D01*
X270288580Y-133933920D02*
X270277671Y-133912124D01*
X183086897Y-159529879D02*
X183076194Y-159531874D01*
X25453814Y-143717929D02*
X25429378Y-143720961D01*
X44945035Y-129814376D02*
X44939651Y-129838251D01*
X102019609Y-56878882D02*
X102030651Y-56900432D01*
X26840792Y-68218138D02*
X26849745Y-68195429D01*
X165049193Y-165554965D02*
X159217512Y-149533129D01*
X8396474Y-170158620D02*
X8440764Y-170138595D01*
X136533104Y-59013606D02*
X136556962Y-59008226D01*
X136132640Y-66647137D02*
X136139378Y-66623405D01*
X178975650Y-59329896D02*
X178983311Y-59353068D01*
X25882403Y-134649329D02*
X25880572Y-134673948D01*
X221654192Y-132100088D02*
X221644191Y-132122217D01*
X174704472Y-117528100D02*
X174691958Y-117526511D01*
X269874925Y-129457520D02*
X269851389Y-129450986D01*
X83079261Y-56334042D02*
X83090303Y-56355604D01*
X8058411Y-45423839D02*
X8089838Y-45387551D01*
X307101505Y-45423839D02*
X307131179Y-45461619D01*
X189005452Y-59473770D02*
X189007292Y-59449117D01*
X93456644Y-151069779D02*
X93441505Y-151050380D01*
X231152419Y-129787249D02*
X231145682Y-129810980D01*
X232030731Y-56416439D02*
X232044672Y-56396834D01*
X159187474Y-149364668D02*
X159187946Y-149340279D01*
X188530748Y-66997826D02*
X188556125Y-66995895D01*
X221734685Y-131980784D02*
X221718987Y-131998908D01*
X82678614Y-54258514D02*
X82701850Y-54266375D01*
X140185981Y-142991603D02*
X140193383Y-143029255D01*
X140222039Y-117640752D02*
X140215496Y-117651102D01*
X155845849Y-149030246D02*
X155861413Y-149048717D01*
X306800833Y-170177811D02*
X306843356Y-170201868D01*
X140678716Y-117305143D02*
X140677126Y-117317637D01*
X45932528Y-54686616D02*
X45935559Y-54662180D01*
X212605738Y-58997885D02*
X212631137Y-58995954D01*
X306829603Y-143723406D02*
X300929396Y-143723406D01*
X269235197Y-58572292D02*
X269239441Y-58596457D01*
X203429915Y-58998536D02*
X212580000Y-58998536D01*
X27279354Y-59008693D02*
X27303982Y-59004296D01*
X20929871Y-50060118D02*
X20929871Y-68523535D01*
X7835247Y-170957667D02*
X7841606Y-170907629D01*
X83045699Y-56242213D02*
X83052436Y-56265945D01*
X126227304Y-66757738D02*
X126240309Y-66778026D01*
X101879108Y-56716599D02*
X101897998Y-56731438D01*
X174928040Y-143135922D02*
X174936109Y-143118861D01*
X45859122Y-58755168D02*
X45871160Y-58733904D01*
X45643648Y-58950583D02*
X45665451Y-58939612D01*
X46014022Y-54458571D02*
X46028114Y-54438493D01*
X7832530Y-143273001D02*
X7830699Y-143248388D01*
X174888455Y-117586085D02*
X174878749Y-117578526D01*
X230889205Y-131744772D02*
X230868264Y-131756811D01*
X8089838Y-170387611D02*
X8122945Y-170352885D01*
X178840604Y-59127772D02*
X178858595Y-59144850D01*
X289340361Y-143985091D02*
X289329286Y-144006653D01*
X174742408Y-117529699D02*
X174730040Y-117529391D01*
X155934335Y-149172517D02*
X155942902Y-149194938D01*
X7928686Y-170626419D02*
X7950767Y-170583306D01*
X125823608Y-59027795D02*
X125846350Y-59036570D01*
X64974058Y-129860065D02*
X64969661Y-129835438D01*
X45113179Y-129549486D02*
X45094485Y-129565626D01*
X174836807Y-117553422D02*
X174825649Y-117548474D01*
X221607526Y-132265604D02*
X221605598Y-132290978D01*
X231754989Y-56601545D02*
X231778720Y-56594808D01*
X270538687Y-134160371D02*
X270516340Y-134150499D01*
X280035431Y-160019074D02*
X280022193Y-159998384D01*
X270516340Y-134150499D02*
X270494466Y-134139546D01*
X45261449Y-129465455D02*
X45238693Y-129474241D01*
X270159062Y-129679278D02*
X270146082Y-129658594D01*
X44800722Y-134034363D02*
X44783644Y-134052355D01*
X174510171Y-117398636D02*
X174504649Y-117387867D01*
X140204733Y-58999150D02*
X140229355Y-59000981D01*
X179119084Y-66816522D02*
X179134799Y-66834665D01*
X105929907Y-170060015D02*
X208730055Y-170060015D01*
X189504911Y-58998536D02*
X196230070Y-58998536D01*
X20929871Y-68523535D02*
X26380018Y-68523535D01*
X307065000Y-143664544D02*
X307043123Y-143675497D01*
X178999435Y-59424681D02*
X179002466Y-59449117D01*
X288365341Y-68303083D02*
X288379313Y-68322688D01*
X7959321Y-68687844D02*
X7976399Y-68669852D01*
X231868379Y-56556940D02*
X231889320Y-56544901D01*
X174482440Y-59449117D02*
X174485472Y-59424681D01*
X102129256Y-58715293D02*
X102140298Y-58736855D01*
X46216386Y-54283943D02*
X46238686Y-54274070D01*
X280376973Y-160236133D02*
X280352866Y-160231919D01*
X307233453Y-49487294D02*
X307211460Y-49530918D01*
X174969229Y-117706780D02*
X174965387Y-117695192D01*
X7890759Y-174403876D02*
X7875039Y-174357419D01*
X269208053Y-54590568D02*
X269214583Y-54614116D01*
X268778937Y-54238482D02*
X268803309Y-54241513D01*
X179333013Y-66968139D02*
X179356250Y-66975999D01*
X140679392Y-59473770D02*
X140680006Y-59498599D01*
X213095801Y-56992201D02*
X213102538Y-56968486D01*
X174538867Y-59263034D02*
X174550885Y-59241765D01*
X289249637Y-159913626D02*
X289240729Y-159936321D01*
X82930627Y-54436883D02*
X82944568Y-54456488D01*
X125655119Y-58998536D02*
X125679903Y-58999150D01*
X230909493Y-131731766D02*
X230889205Y-131744772D01*
X150100945Y-165577793D02*
X150090780Y-165600303D01*
X279804735Y-134344853D02*
X279787405Y-134328296D01*
X136040941Y-66816522D02*
X136055785Y-66797631D01*
X269007178Y-54319975D02*
X269027402Y-54334068D01*
X140496973Y-59111672D02*
X140515709Y-59127772D01*
X232244213Y-54417993D02*
X232259924Y-54399849D01*
X149540448Y-165873486D02*
X149516475Y-165867990D01*
X289257456Y-159890405D02*
X289249637Y-159913626D01*
X270729841Y-134198405D02*
X270705105Y-134197791D01*
X212994673Y-58778085D02*
X213007678Y-58757796D01*
X174479994Y-117279620D02*
X174479994Y-59498599D01*
X140658411Y-59353068D02*
X140664938Y-59376616D01*
X102140298Y-58736855D02*
X102152337Y-58757796D01*
X300929396Y-143723406D02*
X300929396Y-170060015D01*
X126041781Y-59181570D02*
X126056886Y-59200993D01*
X202625649Y-156085658D02*
X202614830Y-156086976D01*
X45216393Y-129484127D02*
X45194590Y-129495097D01*
X8778494Y-175058653D02*
X8727718Y-175054792D01*
X231057559Y-131576416D02*
X231044554Y-131596704D01*
X289426649Y-143869855D02*
X289410066Y-143887220D01*
X44900698Y-133867359D02*
X44891924Y-133890101D01*
X93564506Y-155680539D02*
X93560292Y-155656374D01*
X8116388Y-68571441D02*
X8138688Y-68561569D01*
X189336329Y-59027795D02*
X189359500Y-59020134D01*
X140477537Y-59096567D02*
X140496973Y-59111672D01*
X306889005Y-174889188D02*
X306848428Y-174915196D01*
X231730794Y-56607128D02*
X231754989Y-56601545D01*
X289279799Y-159741808D02*
X289279153Y-159767521D01*
X231129942Y-129935969D02*
X231129942Y-131317095D01*
X140415448Y-59057395D02*
X140436734Y-59069412D01*
X270214687Y-129814114D02*
X270208162Y-129790571D01*
X279949929Y-134672736D02*
X279948011Y-134647336D01*
X25832052Y-143437125D02*
X25821099Y-143458922D01*
X155876034Y-149067873D02*
X155889693Y-149087674D01*
X269608136Y-58983458D02*
X269631949Y-58988841D01*
X93737851Y-155969234D02*
X93719124Y-155953126D01*
X140609138Y-59241765D02*
X140621154Y-59263034D01*
X83530020Y-56617285D02*
X101579893Y-56617285D01*
X155861413Y-149048717D02*
X155876034Y-149067873D01*
X83032540Y-56168361D02*
X83035719Y-56193390D01*
X307132832Y-170465116D02*
X307161115Y-170505253D01*
X45900802Y-58667045D02*
X45908470Y-58643874D01*
X136203019Y-59284839D02*
X136213971Y-59263034D01*
X221786692Y-131931201D02*
X221768569Y-131946899D01*
X231630003Y-129435908D02*
X231604265Y-129436558D01*
X307233453Y-170632752D02*
X307253279Y-170677342D01*
X7908662Y-174449280D02*
X7890759Y-174403876D01*
X93798037Y-156011543D02*
X93777347Y-155998460D01*
X46173312Y-54306912D02*
X46194581Y-54294896D01*
X132125535Y-159542013D02*
X132115023Y-159539074D01*
X232276474Y-54382483D02*
X232293833Y-54365927D01*
X27185480Y-59037827D02*
X27208190Y-59028874D01*
X101965779Y-56799195D02*
X101980623Y-56818077D01*
X221250411Y-156061023D02*
X221226863Y-156067551D01*
X8028728Y-174658318D02*
X8000851Y-174619118D01*
X178983311Y-59353068D02*
X178989840Y-59376616D01*
X83453853Y-56611525D02*
X83478883Y-56614704D01*
X288165154Y-59180493D02*
X288180029Y-59199383D01*
X83052436Y-56265945D02*
X83060296Y-56289181D01*
X231215330Y-129656360D02*
X231202325Y-129676649D01*
X165265224Y-165814654D02*
X165244820Y-165801983D01*
X8486168Y-49999412D02*
X8440764Y-49981500D01*
X20929871Y-143723406D02*
X20929871Y-170060015D01*
X165205864Y-165773722D02*
X165187393Y-165758169D01*
X306579699Y-45091406D02*
X306627183Y-45104881D01*
X140436734Y-59069412D02*
X140457444Y-59082475D01*
X26044486Y-134328123D02*
X26026537Y-134345248D01*
X289116608Y-160111744D02*
X289098492Y-160127455D01*
X270027521Y-129534083D02*
X270007296Y-129519960D01*
X8184617Y-68545134D02*
X8208165Y-68538605D01*
X83429225Y-56607128D02*
X83453853Y-56611525D01*
X269803403Y-129441386D02*
X269779030Y-129438354D01*
X174906149Y-59004012D02*
X174930586Y-59000981D01*
X174491235Y-117353861D02*
X174487865Y-117342012D01*
X288038458Y-59070921D02*
X288058752Y-59083926D01*
X174667546Y-117521522D02*
X174655680Y-117518154D01*
X140417605Y-117529699D02*
X140405311Y-117530619D01*
X64816004Y-129566065D02*
X64797860Y-129550349D01*
X306666936Y-170118562D02*
X306712530Y-170136124D01*
X174487865Y-117342012D02*
X174485073Y-117329932D01*
X307291647Y-143414836D02*
X307281804Y-143437125D01*
X82768275Y-54296382D02*
X82789216Y-54308421D01*
X159201657Y-149243695D02*
X159208029Y-149220015D01*
X202604046Y-156088523D02*
X202593306Y-156090296D01*
X155914051Y-149129048D02*
X155924711Y-149150541D01*
X140381042Y-117534257D02*
X140369108Y-117536957D01*
X25379896Y-143723406D02*
X20929871Y-143723406D01*
X126139849Y-59376616D02*
X126145229Y-59400501D01*
X221575686Y-155751310D02*
X221566910Y-155774053D01*
X221440626Y-155953384D02*
X221421900Y-155969484D01*
X126506259Y-66975999D02*
X126529991Y-66982736D01*
X25593655Y-143675497D02*
X25571354Y-143685370D01*
X64957341Y-129787512D02*
X64949480Y-129764276D01*
X126116884Y-59307140D02*
X126125660Y-59329896D01*
X288285462Y-68099636D02*
X288289877Y-68124265D01*
X288273890Y-59422433D02*
X288277083Y-59447462D01*
X7976399Y-143577090D02*
X7959321Y-143559098D01*
X102007569Y-56857952D02*
X102019609Y-56878882D01*
X269251445Y-58643874D02*
X269259176Y-58667045D01*
X140492474Y-117521522D02*
X140480375Y-117524313D01*
X288194002Y-59218988D02*
X288207041Y-59239277D01*
X174847718Y-117558911D02*
X174836807Y-117553422D01*
X7850399Y-45858464D02*
X7861564Y-45810072D01*
X8058411Y-174696090D02*
X8028728Y-174658318D01*
X196230070Y-50060118D02*
X118429876Y-50060118D01*
X44686730Y-134127796D02*
X44665461Y-134139813D01*
X45405233Y-129436789D02*
X45380613Y-129438621D01*
X213080061Y-57117085D02*
X213080712Y-57091372D01*
X7859344Y-68854895D02*
X7868119Y-68832139D01*
X307201049Y-143559098D02*
X307184156Y-143577090D01*
X155689638Y-148911951D02*
X155712070Y-148923496D01*
X231983614Y-56470839D02*
X232000171Y-56453473D01*
X149637577Y-165883546D02*
X149613196Y-165882817D01*
X45380613Y-129438621D02*
X45356201Y-129441653D01*
X306928211Y-174861311D02*
X306889005Y-174889188D01*
X93554201Y-151342434D02*
X93552370Y-151317814D01*
X178578772Y-59004012D02*
X178602953Y-59008226D01*
X140632106Y-59284839D02*
X140641977Y-59307140D01*
X288462062Y-68409360D02*
X288480966Y-68424204D01*
X159189603Y-149315943D02*
X159192442Y-149291704D01*
X136069726Y-66778026D02*
X136082732Y-66757738D01*
X279527073Y-134204166D02*
X279501940Y-134200986D01*
X280425900Y-160240996D02*
X280401332Y-160239165D01*
X93533203Y-151221818D02*
X93525535Y-151198648D01*
X140312304Y-117558911D02*
X140301665Y-117564930D01*
X101950064Y-56781059D02*
X101965779Y-56799195D01*
X280450636Y-160241610D02*
X280425900Y-160240996D01*
X25696924Y-143610267D02*
X25677501Y-143625372D01*
X8184617Y-143701806D02*
X8161445Y-143694145D01*
X159245222Y-149128560D02*
X159257303Y-149106990D01*
X232202436Y-54476777D02*
X232215438Y-54456488D01*
X174738476Y-143341835D02*
X174754692Y-143331620D01*
X102300403Y-58913146D02*
X102320692Y-58926151D01*
X26830779Y-68240290D02*
X26840792Y-68218138D01*
X279821251Y-134362219D02*
X279804735Y-134344853D01*
X27208190Y-59028874D02*
X27231426Y-59021014D01*
X307286291Y-49350808D02*
X307270903Y-49397157D01*
X140405323Y-143331721D02*
X140438203Y-143351535D01*
X280259813Y-160203574D02*
X280237607Y-160193701D01*
X136139378Y-66623405D02*
X136144961Y-66599210D01*
X270220069Y-129837988D02*
X270214687Y-129814114D01*
X140615065Y-117447525D02*
X140606787Y-117456201D01*
X7994392Y-143594167D02*
X7976399Y-143577090D01*
X179379982Y-66982736D02*
X179404177Y-66988319D01*
X126318731Y-66868587D02*
X126336874Y-66884303D01*
X174544947Y-117447525D02*
X174537089Y-117438460D01*
X188989096Y-66623405D02*
X188994678Y-66599210D01*
X269101043Y-54400343D02*
X269116988Y-54419071D01*
X26849745Y-68195429D02*
X26857605Y-68172192D01*
X165690016Y-165853686D02*
X165665608Y-165861875D01*
X270432067Y-134100373D02*
X270412472Y-134085268D01*
X289240729Y-159936321D02*
X289230764Y-159958459D01*
X307329078Y-143248388D02*
X307327239Y-143273001D01*
X46028114Y-54438493D02*
X46043219Y-54419071D01*
X101933507Y-56763700D02*
X101950064Y-56781059D01*
X149516475Y-165867990D02*
X149492713Y-165861299D01*
X288409930Y-68359722D02*
X288426512Y-68377088D01*
X230824550Y-131777866D02*
X230801840Y-131786818D01*
X174980070Y-58998536D02*
X178504850Y-58998536D01*
X155969244Y-149312282D02*
X155971081Y-149336518D01*
X44783644Y-134052355D02*
X44765652Y-134069434D01*
X231124181Y-131393260D02*
X231119785Y-131417888D01*
X174489688Y-59400501D02*
X174495069Y-59376616D01*
X268874824Y-54257635D02*
X268898001Y-54265295D01*
X7868119Y-143414836D02*
X7859344Y-143392093D01*
X8231722Y-45258587D02*
X8270923Y-45230706D01*
X26979414Y-59199383D02*
X26994258Y-59180493D01*
X188932463Y-66757738D02*
X188944499Y-66736796D01*
X231505012Y-129451648D02*
X231481280Y-129458386D01*
X159470884Y-148911465D02*
X159493402Y-148901342D01*
X44930571Y-129911445D02*
X44929957Y-129936228D01*
X7890759Y-170716115D02*
X7908662Y-170670709D01*
X306927420Y-68533225D02*
X306951273Y-68538605D01*
X183023384Y-159545320D02*
X183013027Y-159548723D01*
X26082580Y-134296843D02*
X26063180Y-134311983D01*
X306627183Y-175015000D02*
X306579699Y-175028474D01*
X174944531Y-117651102D02*
X174937990Y-117640752D01*
X306829603Y-68523535D02*
X306854340Y-68524149D01*
X307270903Y-49397157D02*
X307253279Y-49442680D01*
X140438203Y-143351535D02*
X140472825Y-143368902D01*
X287973827Y-59037827D02*
X287995964Y-59047839D01*
X231630003Y-56617285D02*
X231655740Y-56616635D01*
X179004911Y-66498416D02*
X179005562Y-66524153D01*
X155941450Y-149532862D02*
X150110029Y-165554705D01*
X221751223Y-131963438D02*
X221734685Y-131980784D01*
X279956089Y-159815602D02*
X279953036Y-159791202D01*
X221589876Y-155704628D02*
X221583347Y-155728155D01*
X45238693Y-129474241D02*
X45216393Y-129484127D01*
X140622922Y-117438460D02*
X140615065Y-117447525D01*
X174593148Y-59181570D02*
X174609248Y-59162843D01*
X8089838Y-45387551D02*
X8122945Y-45352820D01*
X159332053Y-149010283D02*
X159349642Y-148993377D01*
X155956795Y-149240947D02*
X155962082Y-149264456D01*
X279668044Y-134247709D02*
X279645872Y-134237696D01*
X232107586Y-56265945D02*
X232114323Y-56242213D01*
X93549337Y-151293401D02*
X93545121Y-151269236D01*
X26431155Y-68520954D02*
X26456184Y-68517775D01*
X45727463Y-58900363D02*
X45746862Y-58885222D01*
X307185041Y-174578550D02*
X307159045Y-174619118D01*
X136160595Y-59424681D02*
X136164808Y-59400501D01*
X307324198Y-68949681D02*
X307327239Y-68974117D01*
X82829110Y-54335367D02*
X82848001Y-54350211D01*
X8440764Y-49981500D02*
X8396474Y-49961466D01*
X140668768Y-117353861D02*
X140664838Y-117365464D01*
X279623130Y-134228743D02*
X279599848Y-134220883D01*
X26765908Y-68341578D02*
X26780752Y-68322688D01*
X221178801Y-156077145D02*
X221154366Y-156080176D01*
X307231970Y-68725994D02*
X307245958Y-68746071D01*
X45783506Y-58851956D02*
X45800631Y-58834008D01*
X179004297Y-59473770D02*
X179004911Y-59498599D01*
X213300453Y-56702662D02*
X213320732Y-56689659D01*
X126254249Y-66797631D02*
X126269093Y-66816522D01*
X8028728Y-45461619D02*
X8058411Y-45423839D01*
X269116988Y-54419071D02*
X269131964Y-54438493D01*
X213341662Y-56677623D02*
X213363212Y-56666583D01*
X213069904Y-58599268D02*
X213074300Y-58574640D01*
X221805562Y-131916373D02*
X221786692Y-131931201D01*
X140533705Y-59144850D02*
X140550782Y-59162843D01*
X221644191Y-132122217D02*
X221635249Y-132144903D01*
X174610848Y-117499227D02*
X174600377Y-117493210D01*
X188743241Y-66938132D02*
X188764171Y-66926093D01*
X288997232Y-160192311D02*
X288975057Y-160202322D01*
X135849714Y-66959186D02*
X135871866Y-66949174D01*
X26864343Y-68148460D02*
X26869926Y-68124265D01*
X64977237Y-129885094D02*
X64974058Y-129860065D01*
X7950767Y-49536638D02*
X7928686Y-49493515D01*
X174570983Y-117472326D02*
X174561910Y-117464474D01*
X7908662Y-49449216D02*
X7890759Y-49403802D01*
X189052901Y-59284839D02*
X189063879Y-59263034D01*
X65223037Y-150796276D02*
X65202347Y-150783213D01*
X136115827Y-66693083D02*
X136124780Y-66670373D01*
X7994392Y-68652773D02*
X8013119Y-68636672D01*
X102165343Y-58778085D02*
X102179283Y-58797690D01*
X46284615Y-54257635D02*
X46308163Y-54251107D01*
X307165932Y-143594167D02*
X307147002Y-143610267D01*
X101728613Y-56639761D02*
X101751849Y-56647621D01*
X288279677Y-59498599D02*
X288279677Y-68023470D01*
X93638755Y-155859941D02*
X93625691Y-155839257D01*
X155969393Y-149410038D02*
X155966367Y-149434681D01*
X307318687Y-49207631D02*
X307310218Y-49255962D01*
X25938882Y-134463304D02*
X25927912Y-134485107D01*
X179310304Y-66959186D02*
X179333013Y-66968139D01*
X82883511Y-54382483D02*
X82900067Y-54399849D01*
X189248205Y-59069412D02*
X189269469Y-59057395D01*
X174915323Y-117611655D02*
X174906782Y-117602679D01*
X101980623Y-56818077D02*
X101994564Y-56837673D01*
X269377821Y-58851956D02*
X269395583Y-58869081D01*
X231529208Y-129446065D02*
X231505012Y-129451648D01*
X26882664Y-59447462D02*
X26885844Y-59422433D01*
X289462202Y-143837582D02*
X289444039Y-143853298D01*
X136357564Y-59096567D02*
X136377640Y-59082475D01*
X26282037Y-134208366D02*
X26258163Y-134213750D01*
X230754872Y-131801416D02*
X230730676Y-131806999D01*
X45930697Y-54711269D02*
X45932528Y-54686616D01*
X306843356Y-49918162D02*
X306800833Y-49942218D01*
X307086365Y-68594411D02*
X307107180Y-68607475D01*
X64555917Y-129441936D02*
X64530887Y-129438756D01*
X307251184Y-45670717D02*
X307269074Y-45716136D01*
X8270923Y-49889268D02*
X8231722Y-49861379D01*
X306884669Y-170228022D02*
X306924680Y-170256240D01*
X46094391Y-54365273D02*
X46113118Y-54349173D01*
X102385346Y-58959245D02*
X102408056Y-58968198D01*
X126160681Y-66574581D02*
X126165078Y-66599210D01*
X213140400Y-56878882D02*
X213152437Y-56857952D01*
X25927912Y-134485107D02*
X25918025Y-134507408D01*
X8208165Y-143708335D02*
X8184617Y-143701806D01*
X174936109Y-143118861D02*
X174943539Y-143101479D01*
X149828766Y-165846677D02*
X149805648Y-165855425D01*
X269754456Y-129436522D02*
X269729719Y-129435908D01*
X174910033Y-143169016D02*
X174919344Y-143152646D01*
X215929884Y-170060015D02*
X293730085Y-170060015D01*
X64919473Y-129697854D02*
X64907433Y-129676913D01*
X101839214Y-56689659D02*
X101859502Y-56702662D01*
X174858084Y-59013606D02*
X174881968Y-59008226D01*
X287880100Y-59008693D02*
X287904245Y-59014276D01*
X306843356Y-170201868D02*
X306884669Y-170228022D01*
X45915005Y-58620331D02*
X45920388Y-58596457D01*
X94005221Y-156080164D02*
X93980820Y-156077120D01*
X189075919Y-59241765D02*
X189089003Y-59221071D01*
X155811966Y-148995518D02*
X155829360Y-149012499D01*
X8270923Y-174889188D02*
X8231722Y-174861311D01*
X174553227Y-117456201D02*
X174544947Y-117447525D01*
X288302244Y-68172192D02*
X288310132Y-68195429D01*
X83211912Y-56503111D02*
X83230802Y-56517955D01*
X269191641Y-54544639D02*
X269200399Y-54567395D01*
X270101170Y-129600439D02*
X270084272Y-129582491D01*
X270656160Y-134192929D02*
X270632030Y-134188715D01*
X307284782Y-45762609D02*
X307298245Y-45810072D01*
X135871866Y-66949174D02*
X135893429Y-66938132D01*
X8628444Y-45080241D02*
X8677681Y-45071447D01*
X102095694Y-58623464D02*
X102102431Y-58647195D01*
X307329078Y-68998771D02*
X307329695Y-69023600D01*
X221566910Y-155774053D02*
X221557036Y-155796343D01*
X212796821Y-58949232D02*
X212818383Y-58938191D01*
X221599471Y-155656618D02*
X221595257Y-155680768D01*
X8161445Y-68552794D02*
X8184617Y-68545134D01*
X213179377Y-56818077D02*
X213194217Y-56799195D01*
X287951141Y-59028874D02*
X287973827Y-59037827D01*
X65009077Y-150535796D02*
X65001417Y-150512624D01*
X307328395Y-174111556D02*
X307324538Y-174162330D01*
X289728901Y-143725988D02*
X289703943Y-143729167D01*
X8440764Y-170138595D02*
X8486168Y-170120691D01*
X306481996Y-175048433D02*
X306431902Y-175054792D01*
X306329542Y-175059954D02*
X8829945Y-175059954D01*
X45988942Y-54500534D02*
X46000958Y-54479265D01*
X231909609Y-56531895D02*
X231929214Y-56517955D01*
X101704882Y-56633025D02*
X101728613Y-56639761D01*
X231929214Y-56517955D02*
X231948104Y-56503111D01*
X174766307Y-59046442D02*
X174788607Y-59036570D01*
X44939651Y-129838251D02*
X44935435Y-129862414D01*
X136654905Y-58998536D02*
X140179945Y-58998536D01*
X174906782Y-117602679D02*
X174897807Y-117594139D01*
X289207780Y-160000939D02*
X289194823Y-160021218D01*
X288277083Y-59447462D02*
X288279023Y-59472861D01*
X65381671Y-150857462D02*
X65357812Y-150852082D01*
X165093200Y-165646120D02*
X165080648Y-165624499D01*
X306379044Y-50058887D02*
X306329542Y-50060118D01*
X178740418Y-59057395D02*
X178761687Y-59069412D01*
X7850399Y-174261602D02*
X7841606Y-174212367D01*
X183054902Y-159536550D02*
X183044331Y-159539237D01*
X135680781Y-66997826D02*
X135706180Y-66995895D01*
X82944568Y-54456488D02*
X82957574Y-54476777D01*
X65182272Y-150769120D02*
X65162851Y-150754015D01*
X307231173Y-174493569D02*
X307209105Y-174536680D01*
X307211460Y-49530918D02*
X307187336Y-49573467D01*
X25964009Y-134421355D02*
X25950920Y-134442039D01*
X231030613Y-131616310D02*
X231015770Y-131635200D01*
X165187393Y-165758169D02*
X165169647Y-165741692D01*
X221602503Y-155632216D02*
X221599471Y-155656618D01*
X189014567Y-59400501D02*
X189019967Y-59376616D01*
X26234620Y-134220284D02*
X26211450Y-134227952D01*
X268986366Y-54306912D02*
X269007178Y-54319975D01*
X288703791Y-68517775D02*
X288728749Y-68520954D01*
X26144590Y-134257594D02*
X26123326Y-134269632D01*
X25781927Y-143520950D02*
X25766823Y-143540371D01*
X269920889Y-129473975D02*
X269898105Y-129465189D01*
X289365473Y-143943860D02*
X289352434Y-143964149D01*
X165121161Y-165686911D02*
X165106717Y-165666930D01*
X230929099Y-131717826D02*
X230909493Y-131731766D01*
X288585500Y-68484244D02*
X288608185Y-68493197D01*
X25879957Y-143223605D02*
X25879343Y-143248388D01*
X7875039Y-45762609D02*
X7890759Y-45716136D01*
X288295481Y-68148460D02*
X288302244Y-68172192D01*
X279972351Y-159887137D02*
X279965762Y-159863610D01*
X8829945Y-45059926D02*
X306329542Y-45059926D01*
X270047118Y-129549224D02*
X270027521Y-129534083D01*
X101751849Y-56647621D02*
X101774559Y-56656572D01*
X136157564Y-59449117D02*
X136160595Y-59424681D01*
X174644061Y-117514225D02*
X174632706Y-117509750D01*
X230801840Y-131786818D02*
X230778604Y-131794679D01*
X165352082Y-165855160D02*
X165329662Y-165846597D01*
X307329695Y-143223605D02*
X307329078Y-143248388D01*
X288480966Y-68424204D02*
X288500580Y-68438145D01*
X289194823Y-160021218D02*
X289180930Y-160040814D01*
X93539738Y-151245362D02*
X93533203Y-151221818D01*
X135655043Y-66998477D02*
X135680781Y-66997826D01*
X8122945Y-45352820D02*
X8157670Y-45319707D01*
X7875039Y-174357419D02*
X7861564Y-174309974D01*
X213152437Y-56857952D02*
X213165440Y-56837673D01*
X82999620Y-54564141D02*
X83007481Y-54587377D01*
X269200399Y-54567395D02*
X269208053Y-54590568D01*
X135731210Y-66992716D02*
X135755839Y-66988319D01*
X140318091Y-143258971D02*
X140345172Y-143285301D01*
X83035719Y-56193390D02*
X83040116Y-56218018D01*
X45575421Y-58976923D02*
X45598591Y-58969255D01*
X155754538Y-148949567D02*
X155774536Y-148964012D01*
X289521017Y-143795791D02*
X289500723Y-143808797D01*
X126152475Y-59449117D02*
X126154306Y-59473770D01*
X165307686Y-165836979D02*
X165286193Y-165826325D01*
X46132541Y-54334068D02*
X46152619Y-54319975D01*
X270705105Y-134197791D02*
X270680532Y-134195960D01*
X132072325Y-159529620D02*
X112565924Y-156090037D01*
X64969661Y-129835438D02*
X64964078Y-129811243D01*
X174834535Y-59020134D02*
X174858084Y-59013606D01*
X159217512Y-149533129D02*
X159209633Y-149509618D01*
X231130593Y-129910232D02*
X231129942Y-129935969D01*
X140630344Y-117429023D02*
X140622922Y-117438460D01*
X174966632Y-143029089D02*
X174970688Y-143010360D01*
X179054214Y-66715234D02*
X179065255Y-66736796D01*
X174956039Y-117672652D02*
X174950550Y-117661743D01*
X179010672Y-66574581D02*
X179015069Y-66599210D01*
X136268244Y-59181570D02*
X136284343Y-59162843D01*
X232090772Y-56311891D02*
X232099725Y-56289181D01*
X7831386Y-171008442D02*
X7835247Y-170957667D01*
X140674928Y-117329932D02*
X140672137Y-117342012D01*
X189406921Y-59008226D02*
X189431087Y-59004012D01*
X102280798Y-58899205D02*
X102300403Y-58913146D01*
X174691958Y-117526511D02*
X174679644Y-117524313D01*
X118429876Y-50060118D02*
X118429876Y-58998536D01*
X280305579Y-160220010D02*
X280282485Y-160212349D01*
X307231173Y-45626414D02*
X307251184Y-45670717D01*
X231778720Y-56594808D02*
X231801956Y-56586947D01*
X44927511Y-133748266D02*
X44924480Y-133772668D01*
X26618400Y-68463190D02*
X26639341Y-68451150D01*
X269301260Y-58755168D02*
X269314494Y-58775852D01*
X178782380Y-59082475D02*
X178802457Y-59096567D01*
X231604265Y-129436558D02*
X231578866Y-129438489D01*
X300929396Y-50060118D02*
X300929396Y-68523535D01*
X135893429Y-66938132D02*
X135914371Y-66926093D01*
X46076399Y-54382351D02*
X46094391Y-54365273D01*
X8580072Y-50028621D02*
X8532625Y-50015140D01*
X125932386Y-59082475D02*
X125952462Y-59096567D01*
X82789216Y-54308421D02*
X82809505Y-54321427D01*
X221665220Y-132078549D02*
X221654192Y-132100088D01*
X269227233Y-54686616D02*
X269229071Y-54711269D01*
X165374906Y-165862648D02*
X165352082Y-165855160D01*
X178761687Y-59069412D02*
X178782380Y-59082475D01*
X82969613Y-54497718D02*
X82980655Y-54519280D01*
X307020773Y-68561569D02*
X307043123Y-68571441D01*
X7835247Y-45957779D02*
X7841606Y-45907720D01*
X64696572Y-129485478D02*
X64674420Y-129475466D01*
X8677681Y-175048433D02*
X8628444Y-175039640D01*
X44924480Y-133772668D02*
X44920266Y-133796818D01*
X202636499Y-156084573D02*
X202625649Y-156085658D01*
X179027389Y-66647137D02*
X179035249Y-66670373D01*
X93176607Y-150882231D02*
X93152732Y-150876847D01*
X140393116Y-117532141D02*
X140381042Y-117534257D01*
X140293136Y-143230744D02*
X140318091Y-143258971D01*
X8829945Y-175059954D02*
X8778494Y-175058653D01*
X135780035Y-66982736D02*
X135803767Y-66975999D01*
X221690236Y-132037362D02*
X221677246Y-132057630D01*
X64894428Y-129656625D02*
X64880487Y-129637020D01*
X222003777Y-131827302D02*
X221979606Y-131832878D01*
X8231722Y-49861379D02*
X8193950Y-49831684D01*
X25879343Y-143248388D02*
X25877512Y-143273001D01*
X189010336Y-59424681D02*
X189014567Y-59400501D01*
X46308163Y-54251107D02*
X46332047Y-54245727D01*
X159202953Y-149485847D02*
X159197471Y-149461862D01*
X178673558Y-59027795D02*
X178696314Y-59036570D01*
X93525535Y-151198648D02*
X93516749Y-151175892D01*
X270200513Y-129767401D02*
X270191759Y-129744645D01*
X231119785Y-131417888D02*
X231114202Y-131442084D01*
X221604334Y-155607603D02*
X221602503Y-155632216D01*
X112522629Y-156084441D02*
X112511783Y-156083640D01*
X178858595Y-59144850D02*
X178875673Y-59162843D01*
X213085822Y-57040987D02*
X213090218Y-57016378D01*
X8094583Y-68582395D02*
X8116388Y-68571441D01*
X289180930Y-160040814D02*
X289166131Y-160059696D01*
X174663042Y-59111672D02*
X174682464Y-59096567D01*
X155666431Y-148901451D02*
X155689638Y-148911951D01*
X45059412Y-129600699D02*
X45043271Y-129619393D01*
X8353362Y-45180616D02*
X8396474Y-45158533D01*
X135954266Y-66899147D02*
X135973157Y-66884303D01*
X64930515Y-129719416D02*
X64919473Y-129697854D01*
X174509261Y-59329896D02*
X174518038Y-59307140D01*
X82724560Y-54275327D02*
X82746712Y-54285340D01*
X26994258Y-59180493D02*
X27009974Y-59162349D01*
X270608178Y-134183335D02*
X270584645Y-134176806D01*
X45598591Y-58969255D02*
X45621348Y-58960469D01*
X27163328Y-59047839D02*
X27185480Y-59037827D01*
X289098492Y-160127455D02*
X289079624Y-160142294D01*
X307269074Y-45716136D02*
X307284782Y-45762609D01*
X165641081Y-165868745D02*
X165616475Y-165874315D01*
X221546082Y-155818140D02*
X221534064Y-155839403D01*
X7914024Y-68746071D02*
X7928116Y-68725994D01*
X307329695Y-46060051D02*
X307329695Y-49059992D01*
X93311448Y-150938118D02*
X93290183Y-150926080D01*
X140203580Y-143065973D02*
X140216476Y-143101620D01*
X26869926Y-68124265D02*
X26874322Y-68099636D01*
X64530887Y-129438756D02*
X64505488Y-129436825D01*
X140579588Y-117479744D02*
X140569785Y-117486710D01*
X289274076Y-159817905D02*
X289269706Y-159842514D01*
X65017852Y-150558552D02*
X65009077Y-150535796D01*
X135755839Y-66988319D02*
X135780035Y-66982736D01*
X232578762Y-54238618D02*
X232604138Y-54236687D01*
X83313199Y-56567982D02*
X83335351Y-56577995D01*
X231000054Y-131653343D02*
X230983498Y-131670709D01*
X269494984Y-58939612D02*
X269516685Y-58950583D01*
X307281804Y-68809839D02*
X307291647Y-68832139D01*
X8727718Y-170065178D02*
X8778494Y-170061316D01*
X26026537Y-134345248D02*
X26009412Y-134363197D01*
X279988955Y-159933034D02*
X279980087Y-159910291D01*
X189004835Y-59498599D02*
X189005452Y-59473770D01*
X44871098Y-133934187D02*
X44859082Y-133955450D01*
X288443900Y-68393644D02*
X288462062Y-68409360D01*
X165329662Y-165846597D02*
X165307686Y-165836979D01*
X288754065Y-68522885D02*
X288779707Y-68523535D01*
X83024198Y-54659932D02*
X83027378Y-54684962D01*
X140203986Y-117672652D02*
X140199036Y-117683809D01*
X149782220Y-165862993D02*
X149758526Y-165869380D01*
X64964078Y-129811243D02*
X64957341Y-129787512D01*
X112544287Y-156086754D02*
X112533462Y-156085478D01*
X46152619Y-54319975D02*
X46173312Y-54306912D01*
X7875039Y-49357337D02*
X7861564Y-49309884D01*
X289754217Y-143724057D02*
X289728901Y-143725988D01*
X26380018Y-68523535D02*
X26405756Y-68522885D01*
X307002264Y-45319707D02*
X307036985Y-45352820D01*
X64994888Y-150489077D02*
X64989509Y-150465193D01*
X232553754Y-54241798D02*
X232578762Y-54238618D01*
X140190791Y-117706780D02*
X140187514Y-117718552D01*
X307000420Y-170318732D02*
X307035963Y-170352938D01*
X45939773Y-54638000D02*
X45945152Y-54614116D01*
X26880734Y-59472861D02*
X26882664Y-59447462D01*
X65334284Y-150845553D02*
X65311129Y-150837893D01*
X45551877Y-58983458D02*
X45575421Y-58976923D01*
X140566881Y-59181570D02*
X140581985Y-59200993D01*
X269229071Y-54711269D02*
X269229689Y-54736098D01*
X65454837Y-150866538D02*
X65430224Y-150864707D01*
X270313517Y-133975873D02*
X270300535Y-133955183D01*
X188721691Y-66949174D02*
X188743241Y-66938132D01*
X8778494Y-170061316D02*
X8829945Y-170060015D01*
X222028381Y-131822910D02*
X222003777Y-131827302D01*
X7888944Y-143458922D02*
X7877991Y-143437125D01*
X8628444Y-50039792D02*
X8580072Y-50028621D01*
X7928686Y-45626414D02*
X7950767Y-45583290D01*
X230655619Y-131816506D02*
X230629881Y-131817156D01*
X65050694Y-150623926D02*
X65038678Y-150602657D01*
X102261908Y-58884362D02*
X102280798Y-58899205D01*
X25809083Y-143480185D02*
X25796020Y-143500874D01*
X45621348Y-58960469D02*
X45643648Y-58950583D01*
X307127405Y-68621567D02*
X307147002Y-68636672D01*
X7830085Y-46060051D02*
X7831386Y-46008577D01*
X102077373Y-57065995D02*
X102079304Y-57091372D01*
X155733710Y-148936049D02*
X155754538Y-148949567D01*
X289285585Y-144147308D02*
X289282392Y-144172338D01*
X8486168Y-174999280D02*
X8440764Y-174981377D01*
X132135990Y-159545170D02*
X132125535Y-159542013D01*
X288728749Y-68520954D02*
X288754065Y-68522885D01*
X125911697Y-59069412D02*
X125932386Y-59082475D01*
X7943221Y-143540371D02*
X7928116Y-143520950D01*
X149936194Y-165786547D02*
X149916089Y-165800576D01*
X155966367Y-149434681D02*
X155962079Y-149459325D01*
X188955539Y-66715234D02*
X188965550Y-66693083D01*
X140655356Y-117387867D02*
X140649836Y-117398636D01*
X140677126Y-117317637D02*
X140674928Y-117329932D01*
X307298245Y-174309974D02*
X307284782Y-174357419D01*
X93592849Y-155773887D02*
X93584074Y-155751130D01*
X269158934Y-54479265D02*
X269170889Y-54500534D01*
X174858359Y-117564930D02*
X174847718Y-117558911D01*
X174550885Y-59241765D02*
X174563949Y-59221071D01*
X307318185Y-45907720D02*
X307324538Y-45957779D01*
X213209928Y-56781059D02*
X213226479Y-56763700D01*
X93152732Y-150876847D02*
X93128567Y-150872630D01*
X82654882Y-54251777D02*
X82678614Y-54258514D01*
X126194210Y-66693083D02*
X126204223Y-66715234D01*
X112500922Y-156083072D02*
X112490042Y-156082733D01*
X287855532Y-59004296D02*
X287880100Y-59008693D01*
X306428266Y-50055216D02*
X306379044Y-50058887D01*
X174479994Y-59498599D02*
X174480608Y-59473770D01*
X159270384Y-149086123D02*
X159284432Y-149065990D01*
X212879218Y-58899205D02*
X212898108Y-58884362D01*
X140472825Y-143368902D02*
X140509092Y-143383685D01*
X83291637Y-56556940D02*
X83313199Y-56567982D01*
X140509092Y-143383685D02*
X155642469Y-148892039D01*
X287779615Y-58998536D02*
X287805258Y-58999186D01*
X212965889Y-58816580D02*
X212980732Y-58797690D01*
X65038678Y-150602657D02*
X65027724Y-150580853D01*
X155793685Y-148979342D02*
X155811966Y-148995518D01*
X46332047Y-54245727D02*
X46356228Y-54241513D01*
X183013027Y-159548723D02*
X183002760Y-159552371D01*
X7841606Y-174212367D02*
X7835247Y-174162330D01*
X7974843Y-170541434D02*
X8000851Y-170500866D01*
X270680532Y-134195960D02*
X270656160Y-134192929D01*
X44575426Y-134177074D02*
X44551878Y-134183602D01*
X8311491Y-49915288D02*
X8270923Y-49889268D01*
X155774536Y-148964012D02*
X155793685Y-148979342D01*
X231069598Y-131555475D02*
X231057559Y-131576416D01*
X307253279Y-170677342D02*
X307270903Y-170722840D01*
X230947989Y-131702982D02*
X230929099Y-131717826D01*
X306903287Y-68529012D02*
X306927420Y-68533225D01*
X269360461Y-58834008D02*
X269377821Y-58851956D01*
X93290183Y-150926080D02*
X93268379Y-150915109D01*
X174754692Y-143331620D02*
X174770449Y-143320829D01*
X7835561Y-68949681D02*
X7839775Y-68925500D01*
X8280665Y-68525981D02*
X8305318Y-68524149D01*
X280215908Y-160182748D02*
X280194760Y-160170731D01*
X140215496Y-117651102D02*
X140209475Y-117661743D01*
X179504973Y-66998477D02*
X188505034Y-66998477D01*
X136154468Y-66524153D02*
X136155119Y-66498416D01*
X136149358Y-66574581D02*
X136152538Y-66549552D01*
X289379446Y-143924255D02*
X289365473Y-143943860D01*
X8270923Y-45230706D02*
X8311491Y-45204695D01*
X280194760Y-160170731D02*
X280174205Y-160157668D01*
X25766823Y-143540371D02*
X25750723Y-143559098D01*
X306573329Y-170090167D02*
X306620505Y-170103231D01*
X140606787Y-117456201D02*
X140598104Y-117464474D01*
X7861564Y-45810072D02*
X7875039Y-45762609D01*
X140550782Y-59162843D02*
X140566881Y-59181570D01*
X174495165Y-117365464D02*
X174491235Y-117353861D01*
X189227522Y-59082475D02*
X189248205Y-59069412D01*
X213243838Y-56747149D02*
X213261975Y-56731438D01*
X232179360Y-54519280D02*
X232190400Y-54497718D01*
X306903287Y-143717929D02*
X306878914Y-143720961D01*
X26890241Y-59397805D02*
X26895824Y-59373609D01*
X174979687Y-142933433D02*
X174980070Y-142913783D01*
X93483855Y-151110525D02*
X93470767Y-151089841D01*
X159208029Y-149220015D02*
X159215574Y-149196610D01*
X279928235Y-134549750D02*
X279920417Y-134526513D01*
X149758526Y-165869380D02*
X149734609Y-165874584D01*
X7830085Y-143223605D02*
X7830085Y-69023600D01*
X293730085Y-50060118D02*
X203429915Y-50060118D01*
X25885436Y-134624916D02*
X25882403Y-134649329D01*
X8157670Y-49800245D02*
X8122945Y-49767125D01*
X45043271Y-129619393D02*
X45028131Y-129638792D01*
X221202980Y-156072931D02*
X221178801Y-156077145D01*
X45000920Y-129679539D02*
X44988882Y-129700803D01*
X307159045Y-174619118D02*
X307131179Y-174658318D01*
X212933617Y-58852089D02*
X212950173Y-58834723D01*
X307147002Y-68636672D02*
X307165932Y-68652773D01*
X8580072Y-170091496D02*
X8628444Y-170080331D01*
X93390290Y-150996611D02*
X93371595Y-150980470D01*
X7888944Y-68788034D02*
X7900961Y-68766765D01*
X25909239Y-134530164D02*
X25901571Y-134553334D01*
X82866145Y-54365927D02*
X82883511Y-54382483D01*
X307314589Y-68901616D02*
X307319975Y-68925500D01*
X231160280Y-129764013D02*
X231152419Y-129787249D01*
X149916089Y-165800576D02*
X149895257Y-165813641D01*
X178966875Y-59307140D02*
X178975650Y-59329896D01*
X125990611Y-59127772D02*
X126008604Y-59144850D01*
X165567186Y-165881629D02*
X165542584Y-165883412D01*
X289230764Y-159958459D02*
X289219770Y-159980009D01*
X136164808Y-59400501D02*
X136170187Y-59376616D01*
X289280452Y-144197737D02*
X289279799Y-144223475D01*
X140179945Y-142914050D02*
X140181470Y-142953156D01*
X149955543Y-165771585D02*
X149936194Y-165786547D01*
X26405756Y-68522885D02*
X26431155Y-68520954D01*
X230966132Y-131687266D02*
X230947989Y-131702982D01*
X45927637Y-58547880D02*
X45929468Y-58523260D01*
X174600377Y-117493210D02*
X174590232Y-117486710D01*
X280010023Y-159977120D02*
X279998939Y-159955323D01*
X126084041Y-59241765D02*
X126096058Y-59263034D01*
X93886129Y-156053255D02*
X93863386Y-156044455D01*
X140345172Y-143285301D02*
X140374281Y-143309597D01*
X25889652Y-134600752D02*
X25885436Y-134624916D01*
X101916141Y-56747149D02*
X101933507Y-56763700D01*
X289279799Y-144223475D02*
X289279799Y-159741808D01*
X27329011Y-59001117D02*
X27354411Y-58999186D01*
X179225360Y-66913087D02*
X179245649Y-66926093D01*
X44914887Y-133820677D02*
X44908358Y-133844204D01*
X232190400Y-54497718D02*
X232202436Y-54476777D01*
X159188188Y-149389066D02*
X159187474Y-149364668D01*
X270208162Y-129790571D02*
X270200513Y-129767401D01*
X174580429Y-117479744D02*
X174570983Y-117472326D01*
X159209633Y-149509618D02*
X159202953Y-149485847D01*
X136377640Y-59082475D02*
X136398330Y-59069412D01*
X231330785Y-129535239D02*
X231311895Y-129550083D01*
X293730085Y-68523535D02*
X293730085Y-50060118D01*
X268803309Y-54241513D02*
X268827439Y-54245727D01*
X221506905Y-155880168D02*
X221491799Y-155899588D01*
X111230040Y-50060118D02*
X20929871Y-50060118D01*
X221845413Y-131889458D02*
X221825146Y-131902449D01*
X174590232Y-117486710D02*
X174580429Y-117479744D01*
X306997989Y-68552794D02*
X307020773Y-68561569D01*
X7835247Y-49162222D02*
X7831386Y-49111444D01*
X136152538Y-66549552D02*
X136154468Y-66524153D01*
X189043003Y-59307140D02*
X189052901Y-59284839D01*
X288500580Y-68438145D02*
X288520873Y-68451150D01*
X231801956Y-56586947D02*
X231824666Y-56577995D01*
X25880572Y-134673948D02*
X25879957Y-134698733D01*
X306878914Y-68525981D02*
X306903287Y-68529012D01*
X178529681Y-58999150D02*
X178554334Y-59000981D01*
X221520999Y-155860092D02*
X221506905Y-155880168D01*
X25850699Y-143392093D02*
X25841924Y-143414836D01*
X306757194Y-170155885D02*
X306800833Y-170177811D01*
X269729719Y-58998536D02*
X287779615Y-58998536D01*
X232127483Y-56168361D02*
X232129414Y-56142962D01*
X8138688Y-68561569D02*
X8161445Y-68552794D01*
X307002264Y-174800201D02*
X306965985Y-174831628D01*
X231370679Y-129508293D02*
X231350391Y-129521298D01*
X279730838Y-134283796D02*
X279710558Y-134270790D01*
X8330147Y-68523535D02*
X13730028Y-68523535D01*
X279980087Y-159910291D02*
X279972351Y-159887137D01*
X102082535Y-58549611D02*
X102085715Y-58574640D01*
X136319414Y-59127772D02*
X136338141Y-59111672D01*
X178891772Y-59181570D02*
X178906877Y-59200993D01*
X65027724Y-150580853D02*
X65017852Y-150558552D01*
X307216994Y-68706571D02*
X307231970Y-68725994D01*
X125800454Y-59020134D02*
X125823608Y-59027795D01*
X102408056Y-58968198D02*
X102431292Y-58976058D01*
X7835561Y-143297402D02*
X7832530Y-143273001D01*
X26166393Y-134246624D02*
X26144590Y-134257594D01*
X231966248Y-56487395D02*
X231983614Y-56470839D01*
X136441391Y-59046442D02*
X136463680Y-59036570D01*
X140194635Y-117695192D02*
X140190791Y-117706780D01*
X136155119Y-66498416D02*
X136155119Y-59498599D01*
X102554277Y-58997885D02*
X102580015Y-58998536D01*
X213554150Y-56617936D02*
X213579863Y-56617285D01*
X25895036Y-134576877D02*
X25889652Y-134600752D01*
X268920782Y-54274070D02*
X268943129Y-54283943D01*
X213074300Y-58574640D02*
X213077480Y-58549611D01*
X288520873Y-68451150D02*
X288541812Y-68463190D01*
X159197471Y-149461862D02*
X159193184Y-149437707D01*
X25615460Y-143664544D02*
X25593655Y-143675497D01*
X307131179Y-45461619D02*
X307159045Y-45500829D01*
X178696314Y-59036570D02*
X178718614Y-59046442D01*
X8161445Y-143694145D02*
X8138688Y-143685370D01*
X174976657Y-142972265D02*
X174978545Y-142952933D01*
X26211450Y-134227952D02*
X26188694Y-134236738D01*
X45959341Y-54567395D02*
X45968116Y-54544639D01*
X8353362Y-170180702D02*
X8396474Y-170158620D01*
X307318687Y-170912282D02*
X307324779Y-170961095D01*
X140253248Y-117602679D02*
X140244708Y-117611655D01*
X125679903Y-58999150D02*
X125704517Y-59000981D01*
X8157670Y-45319707D02*
X8193950Y-45288275D01*
X307298245Y-45810072D02*
X307309400Y-45858464D01*
X27141766Y-59058881D02*
X27163328Y-59047839D01*
X307101505Y-174696090D02*
X307070087Y-174732369D01*
X83405029Y-56601545D02*
X83429225Y-56607128D01*
X7861564Y-170810019D02*
X7875039Y-170762572D01*
X82701850Y-54266375D02*
X82724560Y-54275327D01*
X45356201Y-129441653D02*
X45332037Y-129445869D01*
X183033822Y-159542159D02*
X183023384Y-159545320D01*
M02*
